SplineFontDB: 3.2
FontName: SyneMono-Regular
FullName: Syne Mono Regular
FamilyName: Syne Mono
Weight: Book
Copyright: Copyright 2019 The Syne Project Authors (https://gitlab.com/bonjour-monde/fonderie/syne-typeface)
Version: 2.000; ttfautohint (v1.8.3)
ItalicAngle: 0
UnderlinePosition: -187
UnderlineWidth: 75
Ascent: 800
Descent: 200
InvalidEm: 0
sfntRevision: 0x00020000
LayerCount: 2
Layer: 0 1 "Back" 1
Layer: 1 1 "Fore" 0
XUID: [1021 908 -1788243187 17686]
StyleMap: 0x0040
FSType: 0
OS2Version: 4
OS2_WeightWidthSlopeOnly: 0
OS2_UseTypoMetrics: 1
CreationTime: 1596106603
ModificationTime: 1734532133
PfmFamily: 17
TTFWeight: 400
TTFWidth: 5
LineGap: 0
VLineGap: 0
Panose: 2 0 0 9 0 0 0 0 0 0
OS2TypoAscent: 925
OS2TypoAOffset: 0
OS2TypoDescent: -275
OS2TypoDOffset: 0
OS2TypoLinegap: 0
OS2WinAscent: 955
OS2WinAOffset: 0
OS2WinDescent: 495
OS2WinDOffset: 0
HheadAscent: 925
HheadAOffset: 0
HheadDescent: -275
HheadDOffset: 0
OS2SubXSize: 650
OS2SubYSize: 600
OS2SubXOff: 0
OS2SubYOff: 75
OS2SupXSize: 650
OS2SupYSize: 600
OS2SupXOff: 0
OS2SupYOff: 350
OS2StrikeYSize: 75
OS2StrikeYPos: 300
OS2CapHeight: 650
OS2XHeight: 500
OS2Vendor: 'NONE'
OS2CodePages: 20000083.00000000
OS2UnicodeRanges: a00000ef.0000206b.00000000.00000000
Lookup: 1 0 0 "'aalt' Access All Alternates in Latin lookup 0" { "'aalt' Access All Alternates in Latin lookup 0 subtable"  } ['aalt' ('DFLT' <'dflt' > 'latn' <'CAT ' 'MOL ' 'dflt' > ) ]
Lookup: 3 0 0 "'aalt' Access All Alternates in Latin lookup 1" { "'aalt' Access All Alternates in Latin lookup 1 subtable"  } ['aalt' ('DFLT' <'dflt' > 'latn' <'CAT ' 'MOL ' 'dflt' > ) ]
Lookup: 6 0 0 "'ccmp' Glyph Composition/Decomposition in Latin lookup 2" { "'ccmp' Glyph Composition/Decomposition in Latin lookup 2 contextual 0"  "'ccmp' Glyph Composition/Decomposition in Latin lookup 2 contextual 1"  } ['ccmp' ('DFLT' <'dflt' > 'latn' <'CAT ' 'MOL ' 'dflt' > ) ]
Lookup: 1 0 0 "Single Substitution lookup 3" { "Single Substitution lookup 3 subtable"  } []

StartChar: A
Encoding: 65 65 1
Width: 550
GlyphClass: 2
Flags: W
AnchorPoint: "Anchor-2" 447 10 basechar 0
AnchorPoint: "Anchor-1" 275 0 basechar 0
AnchorPoint: "Anchor-0" 275 650 basechar 0
LayerCount: 2
Fore
SplineSet
477 0 m 0,0,1
 460 0 460 0 445.5 17 c 128,-1,2
 431 34 431 34 419.5 59.5 c 128,-1,3
 408 85 408 85 400 110.5 c 128,-1,4
 392 136 392 136 388 153 c 128,-1,5
 384 170 384 170 384 170 c 1,6,-1
 274 170 l 2,7,8
 164 170 164 170 139 85 c 256,9,10
 114 0 114 0 72 0 c 0,11,12
 62 0 62 0 62.5 28 c 128,-1,13
 63 56 63 56 72 103 c 128,-1,14
 81 150 81 150 96.5 208.5 c 128,-1,15
 112 267 112 267 131 330 c 128,-1,16
 150 393 150 393 170.5 451.5 c 128,-1,17
 191 510 191 510 211 557 c 128,-1,18
 231 604 231 604 247.5 632 c 128,-1,19
 264 660 264 660 274 660 c 0,20,21
 285 660 285 660 301 632 c 128,-1,22
 317 604 317 604 337 557 c 128,-1,23
 357 510 357 510 378 451.5 c 128,-1,24
 399 393 399 393 418 330 c 128,-1,25
 437 267 437 267 452.5 208.5 c 128,-1,26
 468 150 468 150 477.5 103 c 128,-1,27
 487 56 487 56 487.5 28 c 128,-1,28
 488 0 488 0 477 0 c 0,0,1
274 246 m 0,29,30
 362 246 362 246 318 396 c 256,31,32
 274 546 274 546 230 396 c 0,33,34
 187 246 187 246 274 246 c 0,29,30
EndSplineSet
Substitution2: "Single Substitution lookup 18 subtable" ordfeminine
Substitution2: "'aalt' Access All Alternates in Latin lookup 0 subtable" ordfeminine
EndChar

StartChar: Aogonek
Encoding: 260 260 8
Width: 550
GlyphClass: 2
Flags: W
AnchorPoint: "Anchor-2" 447 10 basechar 0
AnchorPoint: "Anchor-1" 275 0 basechar 0
AnchorPoint: "Anchor-0" 275 650 basechar 0
LayerCount: 2
Fore
SplineSet
547 -123 m 0,0,1
 579 -123 579 -123 583 -168 c 1,2,-1
 516 -230 l 1,3,-1
 412 -230 l 1,4,-1
 351 -171 l 1,5,-1
 351 -76 l 1,6,-1
 389 -21 l 2,7,8
 402 -3 402 -3 413 10 c 128,-1,9
 424 23 424 23 434 32 c 1,10,11
 419 57 419 57 407.5 89.5 c 128,-1,12
 396 122 396 122 390 146 c 128,-1,13
 384 170 384 170 384 170 c 1,14,-1
 274 170 l 2,15,16
 164 170 164 170 139 85 c 256,17,18
 114 0 114 0 72 0 c 0,19,20
 62 0 62 0 62.5 28 c 128,-1,21
 63 56 63 56 72 103 c 128,-1,22
 81 150 81 150 96.5 208.5 c 128,-1,23
 112 267 112 267 131 330 c 128,-1,24
 150 393 150 393 170.5 451.5 c 128,-1,25
 191 510 191 510 211 557 c 128,-1,26
 231 604 231 604 247.5 632 c 128,-1,27
 264 660 264 660 274 660 c 0,28,29
 285 660 285 660 301 632 c 128,-1,30
 317 604 317 604 337 557 c 128,-1,31
 357 510 357 510 378 451.5 c 128,-1,32
 399 393 399 393 418 330 c 128,-1,33
 437 267 437 267 452.5 208.5 c 128,-1,34
 468 150 468 150 477.5 103 c 128,-1,35
 487 56 487 56 487.5 28 c 128,-1,36
 488 0 488 0 477 0 c 2,37,-1
 475 0 l 1,38,39
 470 -10 470 -10 463 -21 c 128,-1,40
 456 -32 456 -32 446 -44 c 2,41,-1
 419 -78 l 1,42,-1
 419 -165 l 1,43,-1
 492 -165 l 1,44,-1
 516 -138 l 1,45,46
 516 -123 516 -123 547 -123 c 0,0,1
274 246 m 0,47,48
 362 246 362 246 318 396 c 256,49,50
 274 546 274 546 230 396 c 0,51,52
 187 246 187 246 274 246 c 0,47,48
EndSplineSet
Substitution2: "'ss03' Style Set 3 in Latin lookup 27 subtable" Aogonek.ss03
Substitution2: "'aalt' Access All Alternates in Latin lookup 0 subtable" Aogonek.ss03
EndChar

StartChar: AE
Encoding: 198 198 11
Width: 550
GlyphClass: 2
Flags: W
AnchorPoint: "Anchor-1" 275 0 basechar 0
AnchorPoint: "Anchor-0" 275 650 basechar 0
LayerCount: 2
Fore
SplineSet
428 75 m 0,0,1
 500 75 500 75 500 38 c 0,2,3
 500 0 500 0 388 0 c 0,4,5
 275 0 275 0 275 91 c 0,6,7
 275 181 275 181 220 181 c 0,8,9
 166 181 166 181 140 91 c 0,10,11
 115 0 115 0 72 0 c 0,12,13
 62 0 62 0 61 27.5 c 128,-1,14
 60 55 60 55 68 101.5 c 128,-1,15
 76 148 76 148 91.5 205.5 c 128,-1,16
 107 263 107 263 128.5 325 c 128,-1,17
 150 387 150 387 176.5 444.5 c 128,-1,18
 203 502 203 502 233 548.5 c 128,-1,19
 263 595 263 595 296 622.5 c 128,-1,20
 329 650 329 650 363 650 c 0,21,22
 499 650 499 650 499 613 c 0,23,24
 499 575 499 575 427 575 c 256,25,26
 355 575 355 575 355 468 c 256,27,28
 355 361 355 361 405 361 c 256,29,30
 455 361 455 361 455 324 c 0,31,32
 455 286 455 286 405 286 c 256,33,34
 355 286 355 286 355 181 c 0,35,36
 355 75 355 75 428 75 c 0,0,1
230 251 m 256,37,38
 275 251 275 251 275 409 c 256,39,40
 275 567 275 567 230 409 c 256,41,42
 185 251 185 251 230 251 c 256,37,38
EndSplineSet
EndChar

StartChar: B
Encoding: 66 66 12
Width: 550
GlyphClass: 2
Flags: W
AnchorPoint: "Anchor-1" 275 0 basechar 0
AnchorPoint: "Anchor-0" 275 650 basechar 0
LayerCount: 2
Fore
SplineSet
496 96 m 1,0,-1
 385 5 l 1,1,2
 338 3 338 3 314.5 1.5 c 128,-1,3
 291 0 291 0 291 0 c 1,4,-1
 168 0 l 2,5,6
 45 0 45 0 45 325 c 256,7,8
 45 650 45 650 153 650 c 2,9,-1
 362 650 l 1,10,-1
 475 558 l 1,11,-1
 475 409 l 1,12,-1
 404 339 l 1,13,14
 371 334 371 334 373 329 c 128,-1,15
 375 324 375 324 412 320 c 1,16,-1
 496 255 l 1,17,-1
 496 96 l 1,0,-1
193 572 m 2,18,19
 125 572 125 572 125 467 c 0,20,21
 125 361 125 361 188 361 c 2,22,-1
 320 361 l 1,23,-1
 396 418 l 1,24,-1
 396 524 l 1,25,-1
 323 572 l 1,26,-1
 193 572 l 2,18,19
416 78 m 1,27,-1
 416 240 l 1,28,-1
 324 283 l 1,29,-1
 188 283 l 2,30,31
 125 283 125 283 125 181 c 0,32,33
 125 78 125 78 198 78 c 2,34,-1
 416 78 l 1,27,-1
EndSplineSet
EndChar

StartChar: C
Encoding: 67 67 13
Width: 550
GlyphClass: 2
Flags: W
AnchorPoint: "Anchor-1" 275 0 basechar 0
AnchorPoint: "Anchor-0" 275 650 basechar 0
LayerCount: 2
Fore
SplineSet
505 109 m 1,0,-1
 395 -10 l 1,1,-1
 160 -10 l 1,2,-1
 35 166 l 1,3,-1
 35 484 l 1,4,-1
 160 660 l 1,5,-1
 395 660 l 1,6,-1
 507 541 l 1,7,8
 515 431 515 431 478 431 c 256,9,10
 441 431 441 431 427 509 c 1,11,-1
 357 585 l 1,12,-1
 199 585 l 1,13,-1
 115 453 l 1,14,-1
 115 196 l 1,15,-1
 199 65 l 1,16,-1
 357 65 l 1,17,-1
 424 141 l 1,18,19
 430 217 430 217 468 217 c 0,20,21
 505 217 505 217 505 109 c 1,0,-1
EndSplineSet
EndChar

StartChar: Ccedilla
Encoding: 199 199 16
Width: 550
GlyphClass: 2
Flags: W
AnchorPoint: "Anchor-1" 377 -240 basechar 0
AnchorPoint: "Anchor-0" 275 650 basechar 0
LayerCount: 2
Fore
SplineSet
468 217 m 0,0,1
 505 217 505 217 505 109 c 1,2,-1
 395 -10 l 1,3,-1
 307 -10 l 1,4,5
 312 -14 312 -14 316 -19.5 c 128,-1,6
 320 -25 320 -25 324 -31 c 2,7,-1
 362 -86 l 1,8,-1
 362 -181 l 1,9,-1
 301 -240 l 1,10,-1
 197 -240 l 1,11,-1
 130 -178 l 1,12,13
 135 -133 135 -133 166 -133 c 256,14,15
 197 -133 197 -133 197 -148 c 1,16,-1
 221 -175 l 1,17,-1
 294 -175 l 1,18,-1
 294 -88 l 1,19,-1
 267 -54 l 2,20,21
 247 -28 247 -28 244 -10 c 1,22,-1
 160 -10 l 1,23,-1
 35 166 l 1,24,-1
 35 484 l 1,25,-1
 160 660 l 1,26,-1
 395 660 l 1,27,-1
 507 541 l 1,28,29
 515 431 515 431 478 431 c 256,30,31
 441 431 441 431 427 509 c 1,32,-1
 357 585 l 1,33,-1
 199 585 l 1,34,-1
 115 453 l 1,35,-1
 115 196 l 1,36,-1
 199 65 l 1,37,-1
 357 65 l 1,38,-1
 424 141 l 1,39,40
 430 217 430 217 468 217 c 0,0,1
EndSplineSet
Substitution2: "'ss03' Style Set 3 in Latin lookup 27 subtable" Ccedilla.ss03
Substitution2: "'aalt' Access All Alternates in Latin lookup 0 subtable" Ccedilla.ss03
EndChar

StartChar: D
Encoding: 68 68 18
Width: 550
GlyphClass: 2
Flags: W
AnchorPoint: "Anchor-1" 275 0 basechar 0
AnchorPoint: "Anchor-0" 275 650 basechar 0
LayerCount: 2
Fore
SplineSet
515 466 m 1,0,-1
 515 184 l 1,1,-1
 370 0 l 1,2,-1
 127 0 l 2,3,4
 45 0 45 0 45 325 c 256,5,6
 45 650 45 650 127 650 c 2,7,-1
 370 650 l 1,8,-1
 515 466 l 1,0,-1
338 77 m 1,9,-1
 436 217 l 1,10,-1
 436 438 l 1,11,-1
 339 573 l 1,12,-1
 167 573 l 2,13,14
 125 573 125 573 125 325 c 256,15,16
 125 77 125 77 167 77 c 2,17,-1
 338 77 l 1,9,-1
EndSplineSet
EndChar

StartChar: E
Encoding: 69 69 22
Width: 550
GlyphClass: 2
Flags: W
AnchorPoint: "Anchor-2" 495 10 basechar 0
AnchorPoint: "Anchor-1" 275 0 basechar 0
AnchorPoint: "Anchor-0" 305 650 basechar 0
LayerCount: 2
Fore
SplineSet
316 75 m 0,0,1
 506 75 506 75 506 38 c 0,2,3
 506 0 506 0 276 0 c 0,4,5
 45 0 45 0 45 325 c 256,6,7
 45 650 45 650 275 650 c 256,8,9
 505 650 505 650 505 613 c 0,10,11
 505 575 505 575 315 575 c 256,12,13
 125 575 125 575 125 468 c 256,14,15
 125 361 125 361 281 361 c 0,16,17
 436 361 436 361 436 324 c 0,18,19
 436 286 436 286 281 286 c 0,20,21
 125 286 125 286 125 181 c 0,22,23
 125 75 125 75 316 75 c 0,0,1
EndSplineSet
EndChar

StartChar: Eogonek
Encoding: 280 280 30
Width: 550
GlyphClass: 2
Flags: W
AnchorPoint: "Anchor-2" 495 10 basechar 0
AnchorPoint: "Anchor-1" 275 0 basechar 0
AnchorPoint: "Anchor-0" 300 680 basechar 0
LayerCount: 2
Fore
SplineSet
565 -123 m 0,0,1
 597 -123 597 -123 601 -168 c 1,2,-1
 534 -230 l 1,3,-1
 430 -230 l 1,4,-1
 369 -171 l 1,5,-1
 369 -76 l 1,6,-1
 407 -21 l 2,7,8
 412 -13 412 -13 417.5 -6 c 128,-1,9
 423 1 423 1 428 7 c 1,10,11
 400 3 400 3 362 1.5 c 128,-1,12
 324 0 324 0 276 0 c 0,13,14
 45 0 45 0 45 325 c 256,15,16
 45 650 45 650 275 650 c 256,17,18
 505 650 505 650 505 613 c 0,19,20
 505 575 505 575 315 575 c 256,21,22
 125 575 125 575 125 468 c 256,23,24
 125 361 125 361 281 361 c 0,25,26
 436 361 436 361 436 324 c 0,27,28
 436 286 436 286 281 286 c 0,29,30
 125 286 125 286 125 181 c 0,31,32
 125 75 125 75 316 75 c 0,33,34
 467 75 467 75 498 52 c 0,35,36
 500 50 500 50 501 50 c 0,37,38
 506 43 506 43 506 38 c 0,39,40
 506 35 506 35 504 31 c 0,41,42
 501 3 501 3 464 -44 c 2,43,-1
 437 -78 l 1,44,-1
 437 -165 l 1,45,-1
 510 -165 l 1,46,-1
 534 -138 l 1,47,48
 534 -123 534 -123 565 -123 c 0,0,1
EndSplineSet
Substitution2: "'ss03' Style Set 3 in Latin lookup 27 subtable" Eogonek.ss03
Substitution2: "'aalt' Access All Alternates in Latin lookup 0 subtable" Eogonek.ss03
EndChar

StartChar: F
Encoding: 70 70 31
Width: 550
GlyphClass: 2
Flags: W
AnchorPoint: "Anchor-1" 275 0 basechar 0
AnchorPoint: "Anchor-0" 275 650 basechar 0
LayerCount: 2
Fore
SplineSet
315 573 m 256,0,1
 125 573 125 573 125 468 c 0,2,3
 125 362 125 362 281 362 c 0,4,5
 436 362 436 362 436 324 c 0,6,7
 436 285 436 285 281 285 c 0,8,9
 125 285 125 285 125 143 c 0,10,11
 125 0 125 0 85 0 c 256,12,13
 45 0 45 0 45 325 c 256,14,15
 45 650 45 650 275 650 c 256,16,17
 505 650 505 650 505 612 c 0,18,19
 505 573 505 573 315 573 c 256,0,1
EndSplineSet
EndChar

StartChar: G
Encoding: 71 71 32
Width: 550
GlyphClass: 2
Flags: W
AnchorPoint: "Anchor-1" 270 0 basechar 0
AnchorPoint: "Anchor-0" 270 650 basechar 0
LayerCount: 2
Fore
SplineSet
505 156 m 0,0,1
 505 0 505 0 471 0 c 256,2,3
 437 0 437 0 437 81 c 0,4,5
 439 150 439 150 427 127.5 c 128,-1,6
 415 105 415 105 364 -10 c 1,7,-1
 146 -10 l 1,8,-1
 35 168 l 1,9,-1
 35 483 l 1,10,-1
 156 660 l 1,11,-1
 374 660 l 1,12,-1
 483 540 l 1,13,14
 495 431 495 431 460 431 c 256,15,16
 425 431 425 431 415 507 c 1,17,-1
 345 583 l 1,18,-1
 115 583 l 1,19,-1
 115 200 l 1,20,-1
 188 67 l 1,21,-1
 313 67 l 1,22,-1
 389 149 l 1,23,24
 412 239 412 239 351 238 c 0,25,26
 289 236 289 236 289 274 c 0,27,28
 289 311 289 311 397 311 c 256,29,30
 505 311 505 311 505 156 c 0,0,1
EndSplineSet
EndChar

StartChar: H
Encoding: 72 72 36
Width: 550
GlyphClass: 2
Flags: W
AnchorPoint: "Anchor-1" 275 0 basechar 0
AnchorPoint: "Anchor-0" 275 650 basechar 0
LayerCount: 2
Fore
SplineSet
465 650 m 256,0,1
 505 650 505 650 505 325 c 256,2,3
 505 0 505 0 465 0 c 256,4,5
 425 0 425 0 425 144 c 0,6,7
 425 287 425 287 275 287 c 256,8,9
 125 287 125 287 125 144 c 0,10,11
 125 0 125 0 85 0 c 256,12,13
 45 0 45 0 45 325 c 256,14,15
 45 650 45 650 85 650 c 256,16,17
 125 650 125 650 125 506 c 256,18,19
 125 362 125 362 275 362 c 256,20,21
 425 362 425 362 425 506 c 256,22,23
 425 650 425 650 465 650 c 256,0,1
EndSplineSet
EndChar

StartChar: Hbar
Encoding: 294 294 37
Width: 550
GlyphClass: 1
Flags: W
LayerCount: 2
Fore
SplineSet
540 470 m 0,0,1
 540 432 540 432 523 432 c 0,2,3
 505 432 505 432 505 216 c 256,4,5
 505 0 505 0 465 0 c 256,6,7
 425 0 425 0 425 144 c 0,8,9
 425 287 425 287 275 287 c 256,10,11
 125 287 125 287 125 144 c 0,12,13
 125 0 125 0 85 0 c 256,14,15
 45 0 45 0 45 216 c 256,16,17
 45 432 45 432 28 432 c 0,18,19
 10 432 10 432 10 470 c 0,20,21
 10 507 10 507 28 507 c 0,22,23
 45 507 45 507 45 579 c 0,24,25
 45 650 45 650 85 650 c 256,26,27
 125 650 125 650 125 579 c 0,28,29
 125 507 125 507 275 507 c 256,30,31
 425 507 425 507 425 579 c 0,32,33
 425 650 425 650 465 650 c 256,34,35
 505 650 505 650 505 579 c 0,36,37
 505 507 505 507 523 507 c 0,38,39
 540 507 540 507 540 470 c 0,0,1
425 397 m 256,40,41
 425 432 425 432 275 432 c 256,42,43
 125 432 125 432 125 397 c 256,44,45
 125 362 125 362 275 362 c 256,46,47
 425 362 425 362 425 397 c 256,40,41
EndSplineSet
EndChar

StartChar: I
Encoding: 73 73 38
Width: 550
GlyphClass: 2
Flags: W
AnchorPoint: "Anchor-2" 375 0 basechar 0
AnchorPoint: "Anchor-1" 275 0 basechar 0
AnchorPoint: "Anchor-0" 275 650 basechar 0
LayerCount: 2
Fore
SplineSet
380 575 m 256,0,1
 315 575 315 575 315 325 c 256,2,3
 315 75 315 75 380 75 c 256,4,5
 445 75 445 75 445 38 c 0,6,7
 445 0 445 0 380 0 c 2,8,-1
 170 0 l 2,9,10
 105 0 105 0 105 38 c 0,11,12
 105 75 105 75 170 75 c 256,13,14
 235 75 235 75 235 325 c 256,15,16
 235 575 235 575 170 575 c 256,17,18
 105 575 105 575 105 613 c 0,19,20
 105 650 105 650 275 650 c 256,21,22
 445 650 445 650 445 613 c 0,23,24
 445 575 445 575 380 575 c 256,0,1
EndSplineSet
EndChar

StartChar: IJ
Encoding: 306 306 39
Width: 550
GlyphClass: 1
Flags: W
LayerCount: 2
Fore
SplineSet
445 650 m 256,0,1
 485 650 485 650 485 435 c 2,2,-1
 485 154 l 1,3,-1
 433 49 l 1,4,-1
 338 -10 l 1,5,-1
 175 -10 l 1,6,-1
 49 96 l 1,7,8
 44 188 44 188 82 188 c 0,9,10
 118 188 118 188 128 130 c 1,11,-1
 211 68 l 1,12,-1
 336 68 l 1,13,-1
 405 152 l 1,14,-1
 405 435 l 2,15,16
 405 650 405 650 445 650 c 256,0,1
132 457 m 0,17,18
 132 263 132 263 92 263 c 256,19,20
 52 263 52 263 52 457 c 0,21,22
 52 650 52 650 92 650 c 256,23,24
 132 650 132 650 132 457 c 0,17,18
EndSplineSet
EndChar

StartChar: Iogonek
Encoding: 302 302 45
Width: 550
GlyphClass: 2
Flags: W
AnchorPoint: "Anchor-2" 375 0 basechar 0
AnchorPoint: "Anchor-1" 275 0 basechar 0
AnchorPoint: "Anchor-0" 275 650 basechar 0
LayerCount: 2
Fore
SplineSet
475 -133 m 0,0,1
 507 -133 507 -133 511 -178 c 1,2,-1
 444 -240 l 1,3,-1
 340 -240 l 1,4,-1
 279 -181 l 1,5,-1
 279 -86 l 1,6,-1
 317 -31 l 2,7,8
 323 -22 323 -22 329 -14.5 c 128,-1,9
 335 -7 335 -7 341 0 c 1,10,-1
 170 0 l 2,11,12
 105 0 105 0 105 38 c 0,13,14
 105 75 105 75 170 75 c 256,15,16
 235 75 235 75 235 325 c 256,17,18
 235 575 235 575 170 575 c 256,19,20
 105 575 105 575 105 613 c 0,21,22
 105 650 105 650 275 650 c 256,23,24
 445 650 445 650 445 613 c 0,25,26
 445 575 445 575 380 575 c 256,27,28
 315 575 315 575 315 325 c 256,29,30
 315 75 315 75 380 75 c 256,31,32
 445 75 445 75 445 38 c 0,33,34
 445 10 445 10 409 2 c 1,35,36
 400 -20 400 -20 374 -54 c 2,37,-1
 347 -88 l 1,38,-1
 347 -175 l 1,39,-1
 420 -175 l 1,40,-1
 444 -148 l 1,41,42
 444 -133 444 -133 475 -133 c 0,0,1
EndSplineSet
Substitution2: "'ss03' Style Set 3 in Latin lookup 27 subtable" Iogonek.ss03
Substitution2: "'aalt' Access All Alternates in Latin lookup 0 subtable" Iogonek.ss03
EndChar

StartChar: J
Encoding: 74 74 46
Width: 550
GlyphClass: 2
Flags: W
AnchorPoint: "Anchor-1" 275 0 basechar 0
AnchorPoint: "Anchor-0" 275 650 basechar 0
LayerCount: 2
Fore
SplineSet
445 650 m 256,0,1
 485 650 485 650 485 435 c 2,2,-1
 485 154 l 1,3,-1
 433 49 l 1,4,-1
 338 -10 l 1,5,-1
 175 -10 l 1,6,-1
 49 96 l 1,7,8
 44 188 44 188 82 188 c 0,9,10
 118 188 118 188 128 130 c 1,11,-1
 211 68 l 1,12,-1
 336 68 l 1,13,-1
 405 152 l 1,14,-1
 405 435 l 2,15,16
 405 650 405 650 445 650 c 256,0,1
EndSplineSet
EndChar

StartChar: K
Encoding: 75 75 47
Width: 550
GlyphClass: 2
Flags: W
AnchorPoint: "Anchor-1" 245 0 basechar 0
AnchorPoint: "Anchor-0" 275 650 basechar 0
LayerCount: 2
Fore
SplineSet
477 0 m 256,0,1
 424 0 424 0 275 170 c 0,2,3
 125 340 125 340 125 170 c 256,4,5
 125 0 125 0 85 0 c 256,6,7
 45 0 45 0 45 325 c 256,8,9
 45 650 45 650 85 650 c 256,10,11
 125 650 125 650 125 495 c 256,12,13
 125 340 125 340 253 495 c 256,14,15
 381 650 381 650 434 650 c 0,16,17
 489 650 489 650 355 497 c 0,18,19
 313 449 313 449 293.5 411.5 c 128,-1,20
 274 374 274 374 277 339 c 128,-1,21
 280 304 280 304 304.5 264 c 128,-1,22
 329 224 329 224 376 172 c 0,23,24
 530 0 530 0 477 0 c 256,0,1
EndSplineSet
EndChar

StartChar: L
Encoding: 76 76 49
Width: 550
GlyphClass: 2
Flags: W
AnchorPoint: "Anchor-1" 275 0 basechar 0
AnchorPoint: "Anchor-0" 115 650 basechar 0
LayerCount: 2
Fore
SplineSet
315 75 m 256,0,1
 505 75 505 75 505 38 c 0,2,3
 505 0 505 0 312 0 c 2,4,-1
 82 0 l 2,5,6
 45 0 45 0 45 325 c 256,7,8
 45 650 45 650 85 650 c 256,9,10
 125 650 125 650 125 363 c 0,11,12
 125 75 125 75 315 75 c 256,0,1
EndSplineSet
EndChar

StartChar: Lslash
Encoding: 321 321 54
Width: 550
GlyphClass: 2
Flags: W
AnchorPoint: "Anchor-1" 275 0 basechar 0
AnchorPoint: "Anchor-0" 115 650 basechar 0
LayerCount: 2
Fore
SplineSet
315 75 m 0,0,1
 505 75 505 75 505 38 c 0,2,3
 505 0 505 0 312 0 c 2,4,-1
 82 0 l 2,5,6
 49 0 49 0 46 246 c 1,7,8
 12 226 12 226 -13.5 216 c 128,-1,9
 -39 206 -39 206 -44 215 c 0,10,11
 -51 226 -51 226 -24 255.5 c 128,-1,12
 3 285 3 285 45 319 c 1,13,-1
 45 325 l 2,14,15
 45 650 45 650 85 650 c 0,16,17
 123 650 123 650 125 378 c 1,18,19
 156 399 156 399 184 414.5 c 128,-1,20
 212 430 212 430 231 436.5 c 128,-1,21
 250 443 250 443 255 435 c 0,22,23
 261 426 261 426 244 404.5 c 128,-1,24
 227 383 227 383 195.5 355.5 c 128,-1,25
 164 328 164 328 127 301 c 1,26,27
 146 75 146 75 315 75 c 0,0,1
EndSplineSet
EndChar

StartChar: M
Encoding: 77 77 55
Width: 550
GlyphClass: 2
Flags: W
AnchorPoint: "Anchor-1" 275 0 basechar 0
AnchorPoint: "Anchor-0" 275 650 basechar 0
LayerCount: 2
Fore
SplineSet
465 650 m 256,0,1
 505 650 505 650 505 325 c 256,2,3
 505 0 505 0 465 0 c 256,4,5
 425 0 425 0 425 215 c 0,6,7
 425 428 425 428 370 215 c 0,8,9
 314 0 314 0 275 0 c 256,10,11
 236 0 236 0 180 213 c 0,12,13
 125 424 125 424 125 213 c 0,14,15
 125 0 125 0 85 0 c 256,16,17
 45 0 45 0 45 325 c 256,18,19
 45 650 45 650 85 650 c 256,20,21
 125 650 125 650 200 379 c 256,22,23
 275 108 275 108 350 379 c 256,24,25
 425 650 425 650 465 650 c 256,0,1
EndSplineSet
EndChar

StartChar: N
Encoding: 78 78 56
Width: 550
GlyphClass: 2
Flags: W
AnchorPoint: "Anchor-1" 275 0 basechar 0
AnchorPoint: "Anchor-0" 275 650 basechar 0
LayerCount: 2
Fore
SplineSet
465 650 m 256,0,1
 505 650 505 650 505 325 c 256,2,3
 505 0 505 0 465 0 c 256,4,5
 425 0 425 0 275 255 c 0,6,7
 125 509 125 509 125 255 c 0,8,9
 125 0 125 0 85 0 c 256,10,11
 45 0 45 0 45 325 c 256,12,13
 45 650 45 650 85 650 c 256,14,15
 125 650 125 650 275 393 c 0,16,17
 425 135 425 135 425 393 c 0,18,19
 425 650 425 650 465 650 c 256,0,1
EndSplineSet
EndChar

StartChar: Eng
Encoding: 330 330 60
Width: 550
GlyphClass: 1
Flags: W
LayerCount: 2
Fore
SplineSet
505 325 m 2,0,-1
 505 -82 l 1,1,-1
 449 -168 l 1,2,-1
 357 -210 l 1,3,4
 305 -210 305 -210 305 -170 c 256,5,6
 305 -130 305 -130 359 -130 c 1,7,-1
 425 -75 l 1,8,-1
 425 1 l 1,9,10
 425 1 425 1 387.5 64.5 c 128,-1,11
 350 128 350 128 275 255 c 0,12,13
 125 509 125 509 125 255 c 0,14,15
 125 0 125 0 85 0 c 256,16,17
 45 0 45 0 45 325 c 256,18,19
 45 650 45 650 85 650 c 256,20,21
 125 650 125 650 275 393 c 0,22,23
 425 135 425 135 425 393 c 0,24,25
 425 650 425 650 465 650 c 256,26,27
 505 650 505 650 505 325 c 2,0,-1
EndSplineSet
EndChar

StartChar: O
Encoding: 79 79 62
Width: 550
GlyphClass: 2
Flags: W
AnchorPoint: "Anchor-2" 495 10 basechar 0
AnchorPoint: "Anchor-1" 275 0 basechar 0
AnchorPoint: "Anchor-0" 275 650 basechar 0
LayerCount: 2
Fore
SplineSet
153 -10 m 1,0,-1
 35 166 l 1,1,-1
 35 481 l 1,2,-1
 159 660 l 1,3,-1
 397 660 l 1,4,-1
 515 484 l 1,5,-1
 515 166 l 1,6,-1
 397 -10 l 1,7,-1
 153 -10 l 1,0,-1
358 67 m 1,8,-1
 435 196 l 1,9,-1
 435 453 l 1,10,-1
 358 583 l 1,11,-1
 192 583 l 1,12,-1
 115 453 l 1,13,-1
 115 196 l 1,14,-1
 192 67 l 1,15,-1
 358 67 l 1,8,-1
EndSplineSet
Substitution2: "Single Substitution lookup 18 subtable" ordmasculine
Substitution2: "'aalt' Access All Alternates in Latin lookup 0 subtable" ordmasculine
EndChar

StartChar: Oslash
Encoding: 216 216 70
Width: 550
GlyphClass: 2
Flags: W
AnchorPoint: "Anchor-2" 495 10 basechar 0
AnchorPoint: "Anchor-1" 275 0 basechar 0
AnchorPoint: "Anchor-0" 275 650 basechar 0
LayerCount: 2
Fore
SplineSet
443 591 m 1,0,-1
 515 484 l 1,1,-1
 515 166 l 1,2,-1
 397 -10 l 1,3,-1
 153 -10 l 1,4,-1
 129 26 l 1,5,6
 112 3 112 3 100.5 -9.5 c 128,-1,7
 89 -22 89 -22 84 -19 c 256,8,9
 79 -16 79 -16 85 5 c 128,-1,10
 91 26 91 26 106 60 c 1,11,-1
 35 166 l 1,12,-1
 35 481 l 1,13,-1
 159 660 l 1,14,-1
 397 660 l 1,15,-1
 420 625 l 1,16,17
 437 648 437 648 449 660 c 128,-1,18
 461 672 461 672 465 670 c 0,19,20
 470 667 470 667 464 646 c 128,-1,21
 458 625 458 625 443 591 c 1,0,-1
115 196 m 1,22,-1
 145 145 l 1,23,24
 176 209 176 209 216 283 c 128,-1,25
 256 357 256 357 297.5 428.5 c 128,-1,26
 339 500 339 500 374 556 c 1,27,-1
 358 583 l 1,28,-1
 192 583 l 1,29,-1
 115 453 l 1,30,-1
 115 196 l 1,22,-1
358 67 m 1,31,-1
 435 196 l 1,32,-1
 435 453 l 1,33,-1
 404 506 l 1,34,35
 373 443 373 443 333 368.5 c 128,-1,36
 293 294 293 294 252 222.5 c 128,-1,37
 211 151 211 151 175 95 c 1,38,-1
 192 67 l 1,39,-1
 358 67 l 1,31,-1
EndSplineSet
EndChar

StartChar: OE
Encoding: 338 338 72
Width: 550
GlyphClass: 2
Flags: W
AnchorPoint: "Anchor-1" 275 0 basechar 0
AnchorPoint: "Anchor-0" 275 650 basechar 0
LayerCount: 2
Fore
SplineSet
506 39 m 0,0,1
 506 0 506 0 388 0 c 0,2,3
 268 0 268 0 247 -10 c 1,4,-1
 122 -10 l 1,5,-1
 35 165 l 1,6,-1
 35 481 l 1,7,-1
 128 660 l 1,8,-1
 247 660 l 1,9,10
 268 650 268 650 388 650 c 0,11,12
 505 650 505 650 505 612 c 0,13,14
 505 573 505 573 426 573 c 0,15,16
 346 573 346 573 380 503 c 1,17,18
 385 362 385 362 426 362 c 0,19,20
 466 362 466 362 466 324 c 0,21,22
 466 285 466 285 425 285 c 256,23,24
 384 285 384 285 381 151 c 1,25,26
 346 77 346 77 426 77 c 256,27,28
 506 77 506 77 506 39 c 0,0,1
115 195 m 1,29,-1
 162 67 l 1,30,-1
 267 67 l 1,31,-1
 305 190 l 1,32,-1
 305 459 l 1,33,-1
 267 583 l 1,34,-1
 162 583 l 1,35,-1
 115 454 l 1,36,-1
 115 195 l 1,29,-1
EndSplineSet
EndChar

StartChar: P
Encoding: 80 80 73
Width: 550
GlyphClass: 2
Flags: W
AnchorPoint: "Anchor-1" 275 0 basechar 0
AnchorPoint: "Anchor-0" 275 650 basechar 0
LayerCount: 2
Fore
SplineSet
356 650 m 1,0,-1
 453 600 l 1,1,-1
 510 505 l 1,2,-1
 510 375 l 1,3,-1
 453 280 l 1,4,-1
 356 230 l 1,5,-1
 210 230 l 2,6,7
 125 230 125 230 125 115 c 256,8,9
 125 0 125 0 85 0 c 256,10,11
 45 0 45 0 45 325 c 256,12,13
 45 650 45 650 170 650 c 2,14,-1
 356 650 l 1,0,-1
355 307 m 1,15,-1
 430 380 l 1,16,-1
 430 502 l 1,17,-1
 356 573 l 1,18,-1
 210 573 l 2,19,20
 125 573 125 573 125 440 c 256,21,22
 125 307 125 307 210 307 c 2,23,-1
 355 307 l 1,15,-1
EndSplineSet
EndChar

StartChar: Thorn
Encoding: 222 222 74
Width: 550
GlyphClass: 2
Flags: W
AnchorPoint: "Anchor-1" 275 0 basechar 0
AnchorPoint: "Anchor-0" 275 650 basechar 0
LayerCount: 2
Fore
SplineSet
356 535 m 1,0,-1
 453 485 l 1,1,-1
 510 390 l 1,2,-1
 510 260 l 1,3,-1
 453 165 l 1,4,-1
 356 115 l 1,5,-1
 210 115 l 2,6,7
 125 115 125 115 125 58 c 0,8,9
 125 0 125 0 85 0 c 256,10,11
 45 0 45 0 45 325 c 256,12,13
 45 650 45 650 85 650 c 256,14,15
 125 650 125 650 125 593 c 0,16,17
 125 535 125 535 210 535 c 2,18,-1
 356 535 l 1,0,-1
355 192 m 1,19,-1
 430 265 l 1,20,-1
 430 387 l 1,21,-1
 356 458 l 1,22,-1
 210 458 l 2,23,24
 125 458 125 458 125 325 c 256,25,26
 125 192 125 192 210 192 c 2,27,-1
 355 192 l 1,19,-1
EndSplineSet
EndChar

StartChar: Q
Encoding: 81 81 75
Width: 550
GlyphClass: 2
Flags: W
AnchorPoint: "Anchor-1" 275 0 basechar 0
AnchorPoint: "Anchor-0" 275 650 basechar 0
LayerCount: 2
Fore
SplineSet
515 180 m 1,0,-1
 416 7 l 1,1,2
 315 -7 315 -7 315 -103 c 0,3,4
 315 -200 315 -200 275 -200 c 256,5,6
 235 -200 235 -200 235 -103 c 0,7,8
 235 -7 235 -7 134 7 c 1,9,-1
 35 180 l 1,10,-1
 35 481 l 1,11,-1
 159 660 l 1,12,-1
 397 660 l 1,13,-1
 515 484 l 1,14,-1
 515 180 l 1,0,-1
358 67 m 1,15,-1
 435 196 l 1,16,-1
 435 453 l 1,17,-1
 358 583 l 1,18,-1
 192 583 l 1,19,-1
 115 453 l 1,20,-1
 115 196 l 1,21,-1
 192 67 l 1,22,-1
 358 67 l 1,15,-1
EndSplineSet
EndChar

StartChar: R
Encoding: 82 82 76
Width: 550
GlyphClass: 2
Flags: W
AnchorPoint: "Anchor-1" 275 0 basechar 0
AnchorPoint: "Anchor-0" 275 650 basechar 0
LayerCount: 2
Fore
SplineSet
375 297 m 1,0,-1
 447 275 l 1,1,-1
 487 217 l 1,2,-1
 487 81 l 2,3,4
 487 0 487 0 448 0 c 0,5,6
 408 0 408 0 408 81 c 0,7,8
 407 122 407 122 407 167.5 c 128,-1,9
 407 213 407 213 407 265 c 1,10,-1
 194 265 l 2,11,12
 125 265 125 265 125 133 c 0,13,14
 125 0 125 0 85 0 c 256,15,16
 45 0 45 0 45 325 c 256,17,18
 45 650 45 650 164 650 c 2,19,-1
 385 650 l 1,20,-1
 497 556 l 1,21,-1
 497 386 l 1,22,-1
 400 306 l 1,23,24
 317 298 317 298 375 297 c 1,0,-1
204 342 m 2,25,-1
 342 342 l 1,26,-1
 417 411 l 1,27,-1
 417 517 l 1,28,-1
 343 573 l 1,29,-1
 204 573 l 2,30,31
 125 573 125 573 125 458 c 0,32,33
 125 342 125 342 204 342 c 2,25,-1
EndSplineSet
EndChar

StartChar: S
Encoding: 83 83 80
Width: 550
GlyphClass: 2
Flags: W
AnchorPoint: "Anchor-1" 275 0 basechar 0
AnchorPoint: "Anchor-0" 275 650 basechar 0
LayerCount: 2
Fore
SplineSet
89 211 m 0,0,1
 125 211 125 211 129 147 c 1,2,-1
 227 65 l 1,3,-1
 350 65 l 1,4,-1
 418 122 l 1,5,-1
 418 202 l 1,6,-1
 381 243 l 1,7,-1
 349 266 l 1,8,9
 324 276 324 276 289 287.5 c 128,-1,10
 254 299 254 299 216 313 c 2,11,-1
 136 351 l 1,12,-1
 74 425 l 1,13,-1
 74 531 l 1,14,-1
 123 612 l 1,15,-1
 216 660 l 1,16,-1
 379 660 l 1,17,-1
 487 547 l 1,18,19
 485 452 485 452 450 452 c 0,20,21
 413 452 413 452 412 519 c 1,22,-1
 336 584 l 1,23,-1
 223 584 l 1,24,-1
 154 534 l 1,25,-1
 154 454 l 1,26,-1
 189 412 l 1,27,-1
 239 388 l 2,28,29
 261 380 261 380 278.5 374 c 128,-1,30
 296 368 296 368 303 366 c 0,31,32
 318 359 318 359 331 355 c 0,33,34
 338 352 338 352 356 344.5 c 128,-1,35
 374 337 374 337 404 326 c 1,36,-1
 452 289 l 1,37,-1
 498 223 l 1,38,-1
 498 89 l 1,39,-1
 392 -10 l 1,40,-1
 214 -10 l 1,41,-1
 101 60 l 1,42,-1
 51 155 l 1,43,44
 51 181 51 181 50.5 192.5 c 128,-1,45
 50 204 50 204 57.5 207.5 c 128,-1,46
 65 211 65 211 89 211 c 0,0,1
EndSplineSet
EndChar

StartChar: Scedilla
Encoding: 350 350 83
Width: 550
GlyphClass: 2
Flags: W
AnchorPoint: "Anchor-1" 377 -240 basechar 0
AnchorPoint: "Anchor-0" 275 650 basechar 0
LayerCount: 2
Fore
SplineSet
404 326 m 1,0,-1
 452 289 l 1,1,-1
 498 223 l 1,2,-1
 498 89 l 1,3,-1
 392 -10 l 1,4,-1
 307 -10 l 1,5,6
 312 -14 312 -14 316 -19.5 c 128,-1,7
 320 -25 320 -25 324 -31 c 2,8,-1
 362 -86 l 1,9,-1
 362 -181 l 1,10,-1
 301 -240 l 1,11,-1
 197 -240 l 1,12,-1
 130 -178 l 1,13,14
 135 -133 135 -133 166 -133 c 256,15,16
 197 -133 197 -133 197 -148 c 1,17,-1
 221 -175 l 1,18,-1
 294 -175 l 1,19,-1
 294 -88 l 1,20,-1
 267 -54 l 2,21,22
 247 -28 247 -28 244 -10 c 1,23,-1
 214 -10 l 1,24,-1
 101 60 l 1,25,-1
 51 155 l 1,26,27
 51 181 51 181 50.5 192.5 c 128,-1,28
 50 204 50 204 57.5 207.5 c 128,-1,29
 65 211 65 211 89 211 c 0,30,31
 125 211 125 211 129 147 c 1,32,-1
 227 65 l 1,33,-1
 350 65 l 1,34,-1
 418 122 l 1,35,-1
 418 202 l 1,36,-1
 381 243 l 1,37,-1
 349 266 l 1,38,39
 324 276 324 276 289 287.5 c 128,-1,40
 254 299 254 299 216 313 c 2,41,-1
 136 351 l 1,42,-1
 74 425 l 1,43,-1
 74 531 l 1,44,-1
 123 612 l 1,45,-1
 216 660 l 1,46,-1
 379 660 l 1,47,-1
 487 547 l 1,48,49
 485 452 485 452 450 452 c 0,50,51
 413 452 413 452 412 519 c 1,52,-1
 336 584 l 1,53,-1
 223 584 l 1,54,-1
 154 534 l 1,55,-1
 154 454 l 1,56,-1
 189 412 l 1,57,-1
 239 388 l 2,58,59
 261 380 261 380 278.5 374 c 128,-1,60
 296 368 296 368 303 366 c 0,61,62
 318 359 318 359 331 355 c 0,63,64
 338 352 338 352 356 344.5 c 128,-1,65
 374 337 374 337 404 326 c 1,0,-1
EndSplineSet
Substitution2: "'ss03' Style Set 3 in Latin lookup 27 subtable" Scedilla.ss03
Substitution2: "'locl' Localized Forms in Latin lookup 5 subtable" uni0218
AlternateSubs2: "'aalt' Access All Alternates in Latin lookup 1 subtable" uni0218 Scedilla.ss03
EndChar

StartChar: T
Encoding: 84 84 85
Width: 550
GlyphClass: 2
Flags: W
AnchorPoint: "Anchor-1" 275 0 basechar 0
AnchorPoint: "Anchor-0" 275 650 basechar 0
LayerCount: 2
Fore
SplineSet
535 613 m 0,0,1
 535 575 535 575 425 575 c 256,2,3
 315 575 315 575 315 288 c 0,4,5
 315 0 315 0 275 0 c 256,6,7
 235 0 235 0 235 288 c 0,8,9
 235 575 235 575 125 575 c 256,10,11
 15 575 15 575 15 613 c 0,12,13
 15 650 15 650 275 650 c 256,14,15
 535 650 535 650 535 613 c 0,0,1
EndSplineSet
EndChar

StartChar: Tbar
Encoding: 358 358 86
Width: 550
GlyphClass: 2
Flags: W
AnchorPoint: "Anchor-1" 275 0 basechar 0
AnchorPoint: "Anchor-0" 275 650 basechar 0
LayerCount: 2
Fore
SplineSet
275 650 m 256,0,1
 535 650 535 650 535 613 c 0,2,3
 535 575 535 575 425 575 c 0,4,5
 329 575 329 575 317 354 c 1,6,7
 425 351 425 351 425 325 c 256,8,9
 425 299 425 299 315 296 c 1,10,-1
 315 288 l 2,11,12
 315 0 315 0 275 0 c 256,13,14
 235 0 235 0 235 288 c 2,15,-1
 235 296 l 1,16,17
 125 299 125 299 125 325 c 256,18,19
 125 351 125 351 233 354 c 1,20,21
 221 575 221 575 125 575 c 0,22,23
 15 575 15 575 15 613 c 0,24,25
 15 650 15 650 275 650 c 256,0,1
EndSplineSet
EndChar

StartChar: uni0162
Encoding: 354 354 88
Width: 550
GlyphClass: 2
Flags: W
AnchorPoint: "Anchor-1" 377 -240 basechar 0
AnchorPoint: "Anchor-0" 275 650 basechar 0
LayerCount: 2
Fore
SplineSet
275 650 m 256,0,1
 535 650 535 650 535 613 c 0,2,3
 535 575 535 575 425 575 c 256,4,5
 315 575 315 575 315 288 c 0,6,7
 315 48 315 48 287 8 c 1,8,9
 304 -3 304 -3 324 -31 c 2,10,-1
 362 -86 l 1,11,-1
 362 -181 l 1,12,-1
 301 -240 l 1,13,-1
 197 -240 l 1,14,-1
 130 -178 l 1,15,16
 135 -133 135 -133 166 -133 c 256,17,18
 197 -133 197 -133 197 -148 c 1,19,-1
 221 -175 l 1,20,-1
 294 -175 l 1,21,-1
 294 -88 l 1,22,-1
 267 -54 l 2,23,24
 243 -24 243 -24 243 -3.5 c 128,-1,25
 243 17 243 17 257 19 c 1,26,27
 235 72 235 72 235 288 c 0,28,29
 235 575 235 575 125 575 c 256,30,31
 15 575 15 575 15 613 c 0,32,33
 15 650 15 650 275 650 c 256,0,1
EndSplineSet
Substitution2: "'ss03' Style Set 3 in Latin lookup 27 subtable" uni0162.ss03
Substitution2: "'locl' Localized Forms in Latin lookup 5 subtable" uni021A
AlternateSubs2: "'aalt' Access All Alternates in Latin lookup 1 subtable" uni021A uni0162.ss03
EndChar

StartChar: U
Encoding: 85 85 90
Width: 550
GlyphClass: 2
Flags: W
AnchorPoint: "Anchor-2" 495 10 basechar 0
AnchorPoint: "Anchor-1" 275 0 basechar 0
AnchorPoint: "Anchor-0" 275 650 basechar 0
LayerCount: 2
Fore
SplineSet
465 650 m 256,0,1
 505 650 505 650 505 450 c 2,2,-1
 505 117 l 1,3,-1
 384 -10 l 1,4,-1
 167 -10 l 1,5,-1
 45 117 l 1,6,-1
 45 450 l 2,7,8
 45 650 45 650 85 650 c 256,9,10
 125 650 125 650 125 450 c 2,11,-1
 125 147 l 1,12,-1
 205 67 l 1,13,-1
 346 67 l 1,14,-1
 425 147 l 1,15,-1
 425 450 l 2,16,17
 425 650 425 650 465 650 c 256,0,1
EndSplineSet
EndChar

StartChar: Uogonek
Encoding: 370 370 97
Width: 550
GlyphClass: 2
Flags: W
AnchorPoint: "Anchor-2" 495 10 basechar 0
AnchorPoint: "Anchor-1" 275 0 basechar 0
AnchorPoint: "Anchor-0" 275 650 basechar 0
LayerCount: 2
Fore
SplineSet
361 -44 m 2,0,-1
 334 -78 l 1,1,-1
 334 -165 l 1,2,-1
 407 -165 l 1,3,-1
 431 -138 l 1,4,5
 431 -123 431 -123 462 -123 c 0,6,7
 494 -123 494 -123 498 -168 c 1,8,-1
 431 -230 l 1,9,-1
 327 -230 l 1,10,-1
 266 -171 l 1,11,-1
 266 -76 l 1,12,-1
 304 -21 l 1,13,-1
 312 -10 l 1,14,-1
 167 -10 l 1,15,-1
 45 117 l 1,16,-1
 45 450 l 2,17,18
 45 650 45 650 85 650 c 256,19,20
 125 650 125 650 125 450 c 2,21,-1
 125 147 l 1,22,-1
 205 67 l 1,23,-1
 346 67 l 1,24,-1
 425 147 l 1,25,-1
 425 450 l 2,26,27
 425 650 425 650 465 650 c 256,28,29
 505 650 505 650 505 450 c 2,30,-1
 505 117 l 1,31,-1
 385 -9 l 2,32,33
 381 -16 381 -16 375 -25 c 128,-1,34
 369 -34 369 -34 361 -44 c 2,0,-1
EndSplineSet
Substitution2: "'ss03' Style Set 3 in Latin lookup 27 subtable" Uogonek.ss03
Substitution2: "'aalt' Access All Alternates in Latin lookup 0 subtable" Uogonek.ss03
EndChar

StartChar: V
Encoding: 86 86 99
Width: 550
GlyphClass: 2
Flags: W
AnchorPoint: "Anchor-1" 275 0 basechar 0
AnchorPoint: "Anchor-0" 275 650 basechar 0
LayerCount: 2
Fore
SplineSet
488 650 m 0,0,1
 499 650 499 650 497.5 622.5 c 128,-1,2
 496 595 496 595 486.5 548.5 c 128,-1,3
 477 502 477 502 460.5 444.5 c 128,-1,4
 444 387 444 387 424 325 c 128,-1,5
 404 263 404 263 382.5 205.5 c 128,-1,6
 361 148 361 148 340.5 101.5 c 128,-1,7
 320 55 320 55 303.5 27.5 c 128,-1,8
 287 0 287 0 276 0 c 0,9,10
 266 0 266 0 249 27.5 c 128,-1,11
 232 55 232 55 211.5 101.5 c 128,-1,12
 191 148 191 148 169 205.5 c 128,-1,13
 147 263 147 263 127 325 c 128,-1,14
 107 387 107 387 90.5 444.5 c 128,-1,15
 74 502 74 502 64 548.5 c 128,-1,16
 54 595 54 595 53 622.5 c 128,-1,17
 52 650 52 650 63 650 c 0,18,19
 106 650 106 650 191 382 c 0,20,21
 276 115 276 115 361 382 c 0,22,23
 446 650 446 650 488 650 c 0,0,1
EndSplineSet
EndChar

StartChar: W
Encoding: 87 87 100
Width: 550
GlyphClass: 2
Flags: W
AnchorPoint: "Anchor-1" 275 0 basechar 0
AnchorPoint: "Anchor-0" 275 650 basechar 0
LayerCount: 2
Fore
SplineSet
488 650 m 0,0,1
 500 650 500 650 503.5 615 c 128,-1,2
 507 580 507 580 504.5 522 c 128,-1,3
 502 464 502 464 494 394.5 c 128,-1,4
 486 325 486 325 475 255.5 c 128,-1,5
 464 186 464 186 451 128 c 128,-1,6
 438 70 438 70 424.5 35 c 128,-1,7
 411 0 411 0 399 0 c 0,8,9
 357 0 357 0 317 253 c 0,10,11
 277 507 277 507 236 253 c 0,12,13
 196 0 196 0 153 0 c 0,14,15
 143 0 143 0 131 27.5 c 128,-1,16
 119 55 119 55 107.5 101.5 c 128,-1,17
 96 148 96 148 85 205.5 c 128,-1,18
 74 263 74 263 65.5 325 c 128,-1,19
 57 387 57 387 51.5 444.5 c 128,-1,20
 46 502 46 502 45 548.5 c 128,-1,21
 44 595 44 595 48 622.5 c 128,-1,22
 52 650 52 650 63 650 c 0,23,24
 106 650 106 650 136 434 c 0,25,26
 165 218 165 218 199 434 c 0,27,28
 234 650 234 650 276 650 c 0,29,30
 319 650 319 650 353 434 c 0,31,32
 387 220 387 220 417 434 c 0,33,34
 446 650 446 650 488 650 c 0,0,1
EndSplineSet
EndChar

StartChar: X
Encoding: 88 88 105
Width: 550
GlyphClass: 2
Flags: W
AnchorPoint: "Anchor-1" 275 0 basechar 0
AnchorPoint: "Anchor-0" 275 650 basechar 0
LayerCount: 2
Fore
SplineSet
412 491 m 0,0,1
 318 332 318 332 412 166 c 256,2,3
 506 0 506 0 457 0 c 0,4,5
 407 0 407 0 341 129 c 0,6,7
 274 257 274 257 204 129 c 0,8,9
 134 0 134 0 88 0 c 0,10,11
 43 0 43 0 139 166 c 0,12,13
 234 331 234 331 144 491 c 0,14,15
 53 650 53 650 98 650 c 256,16,17
 143 650 143 650 210 527 c 0,18,19
 277 405 277 405 347 527 c 0,20,21
 418 650 418 650 462 650 c 0,22,23
 507 650 507 650 412 491 c 0,0,1
EndSplineSet
EndChar

StartChar: Y
Encoding: 89 89 106
Width: 550
GlyphClass: 2
Flags: W
AnchorPoint: "Anchor-1" 275 0 basechar 0
AnchorPoint: "Anchor-0" 275 650 basechar 0
LayerCount: 2
Fore
SplineSet
480 650 m 0,0,1
 525 650 525 650 420 437 c 0,2,3
 315 223 315 223 315 112 c 0,4,5
 315 0 315 0 275 0 c 256,6,7
 235 0 235 0 235 112 c 0,8,9
 235 223 235 223 130 437 c 0,10,11
 25 650 25 650 70 650 c 256,12,13
 115 650 115 650 196 476 c 0,14,15
 277 301 277 301 356 476 c 0,16,17
 436 650 436 650 480 650 c 0,0,1
EndSplineSet
EndChar

StartChar: Z
Encoding: 90 90 111
Width: 550
GlyphClass: 2
Flags: W
AnchorPoint: "Anchor-1" 275 0 basechar 0
AnchorPoint: "Anchor-0" 275 650 basechar 0
LayerCount: 2
Fore
SplineSet
495 613 m 0,0,1
 495 575 495 575 323 325 c 256,2,3
 151 75 151 75 323 75 c 256,4,5
 495 75 495 75 495 38 c 0,6,7
 495 0 495 0 275 0 c 256,8,9
 55 0 55 0 55 38 c 0,10,11
 55 74 55 74 228 325 c 0,12,13
 400 575 400 575 228 575 c 0,14,15
 55 575 55 575 55 613 c 0,16,17
 55 650 55 650 275 650 c 256,18,19
 495 650 495 650 495 613 c 0,0,1
EndSplineSet
EndChar

StartChar: a
Encoding: 97 97 180
Width: 550
GlyphClass: 2
Flags: W
AnchorPoint: "Anchor-2" 435 10 basechar 0
AnchorPoint: "Anchor-1" 275 0 basechar 0
AnchorPoint: "Anchor-0" 275 500 basechar 0
LayerCount: 2
Fore
SplineSet
447 500 m 256,0,1
 487 500 487 500 487 250 c 256,2,3
 487 0 487 0 451 0 c 256,4,5
 415 0 415 0 413 11 c 2,6,-1
 407 79 l 1,7,-1
 407 133 l 2,8,9
 407 150 407 150 403 140 c 128,-1,10
 399 130 399 130 391 93 c 1,11,-1
 311 -10 l 1,12,-1
 187 -10 l 1,13,-1
 100 56 l 1,14,-1
 51 174 l 1,15,-1
 51 324 l 1,16,-1
 101 443 l 1,17,-1
 193 510 l 1,18,-1
 319 510 l 1,19,-1
 393 424 l 1,20,21
 400 389 400 389 403.5 389.5 c 128,-1,22
 407 390 407 390 407 427 c 0,23,24
 407 500 407 500 447 500 c 256,0,1
332 67 m 1,25,-1
 407 170 l 1,26,-1
 407 333 l 1,27,-1
 332 432 l 1,28,-1
 195 432 l 1,29,-1
 131 334 l 1,30,-1
 131 167 l 1,31,-1
 200 67 l 1,32,-1
 332 67 l 1,25,-1
EndSplineSet
Substitution2: "Single Substitution lookup 18 subtable" ordfeminine
Substitution2: "'aalt' Access All Alternates in Latin lookup 0 subtable" ordfeminine
EndChar

StartChar: aogonek
Encoding: 261 261 187
Width: 550
GlyphClass: 2
Flags: W
AnchorPoint: "Anchor-2" 435 10 basechar 0
AnchorPoint: "Anchor-1" 275 0 basechar 0
AnchorPoint: "Anchor-0" 275 500 basechar 0
LayerCount: 2
Fore
SplineSet
535 -123 m 0,0,1
 567 -123 567 -123 571 -168 c 1,2,-1
 504 -230 l 1,3,-1
 400 -230 l 1,4,-1
 339 -171 l 1,5,-1
 339 -76 l 1,6,-1
 377 -21 l 2,7,8
 386 -7 386 -7 395 3.5 c 128,-1,9
 404 14 404 14 412 22 c 1,10,-1
 407 79 l 1,11,-1
 407 133 l 2,12,13
 407 150 407 150 403 140 c 128,-1,14
 399 130 399 130 391 93 c 1,15,-1
 311 -10 l 1,16,-1
 187 -10 l 1,17,-1
 100 56 l 1,18,-1
 51 174 l 1,19,-1
 51 324 l 1,20,-1
 101 443 l 1,21,-1
 193 510 l 1,22,-1
 319 510 l 1,23,-1
 393 424 l 1,24,25
 400 389 400 389 403.5 389.5 c 128,-1,26
 407 390 407 390 407 427 c 0,27,28
 407 500 407 500 447 500 c 256,29,30
 487 500 487 500 487 250 c 0,31,32
 487 99 487 99 474 41 c 1,33,34
 476 29 476 29 466.5 7 c 128,-1,35
 457 -15 457 -15 434 -44 c 2,36,-1
 407 -78 l 1,37,-1
 407 -165 l 1,38,-1
 480 -165 l 1,39,-1
 504 -138 l 1,40,41
 504 -123 504 -123 535 -123 c 0,0,1
332 67 m 1,42,-1
 407 170 l 1,43,-1
 407 333 l 1,44,-1
 332 432 l 1,45,-1
 195 432 l 1,46,-1
 131 334 l 1,47,-1
 131 167 l 1,48,-1
 200 67 l 1,49,-1
 332 67 l 1,42,-1
EndSplineSet
Substitution2: "'ss03' Style Set 3 in Latin lookup 27 subtable" aogonek.ss03
Substitution2: "'aalt' Access All Alternates in Latin lookup 0 subtable" aogonek.ss03
EndChar

StartChar: ae
Encoding: 230 230 190
Width: 550
GlyphClass: 2
Flags: W
AnchorPoint: "Anchor-1" 275 0 basechar 0
AnchorPoint: "Anchor-0" 275 500 basechar 0
LayerCount: 2
Fore
SplineSet
466 510 m 1,0,-1
 528 393 l 1,1,2
 528 335 528 335 530.5 301.5 c 128,-1,3
 533 268 533 268 527.5 252.5 c 128,-1,4
 522 237 522 237 497.5 233 c 128,-1,5
 473 229 473 229 419 229 c 0,6,7
 310 229 310 229 310 150 c 1,8,-1
 352 67 l 1,9,-1
 423 67 l 1,10,-1
 446 114 l 1,11,12
 449 161 449 161 487 161 c 0,13,14
 523 161 523 161 519 82 c 1,15,-1
 460 -10 l 1,16,-1
 318 -10 l 1,17,18
 280 77 280 77 268 36 c 1,19,-1
 203 -10 l 1,20,-1
 94 -10 l 1,21,-1
 21 79 l 1,22,-1
 21 223 l 1,23,-1
 93 313 l 1,24,-1
 223 313 l 1,25,26
 250 255 250 255 250 297 c 2,27,-1
 250 431 l 1,28,-1
 146 431 l 1,29,-1
 98 391 l 1,30,31
 91 349 91 349 56 349 c 256,32,33
 21 349 21 349 23 423 c 1,34,-1
 104 510 l 1,35,-1
 217 510 l 1,36,-1
 274 477 l 1,37,38
 291 447 291 447 328 510 c 1,39,-1
 466 510 l 1,0,-1
383 299 m 0,40,41
 450 299 450 299 450 364 c 1,42,-1
 422 433 l 1,43,-1
 354 433 l 1,44,-1
 315 358 l 1,45,46
 315 299 315 299 383 299 c 0,40,41
212 66 m 1,47,-1
 255 114 l 1,48,-1
 255 191 l 1,49,-1
 213 236 l 1,50,-1
 135 236 l 1,51,-1
 99 190 l 1,52,-1
 99 113 l 1,53,-1
 137 66 l 1,54,-1
 212 66 l 1,47,-1
EndSplineSet
EndChar

StartChar: b
Encoding: 98 98 191
Width: 550
GlyphClass: 2
Flags: WO
LayerCount: 2
Fore
SplineSet
136.893554688 132.125976562 m 1,0,1
 137.61328125 79.796875 137.61328125 79.796875 134.583984375 22.2265625 c 1,2,3
 93.3173828125 -4.1845703125 93.3173828125 -4.1845703125 78.9267578125 37.14453125 c 0,4,5
 67.1494140625 70.970703125 67.1494140625 70.970703125 64.8974609375 208.57421875 c 0,6,7
 63.15625 314.979492188 63.15625 314.979492188 61.8408203125 355.465820312 c 0,8,9
 61.8408203125 699.518554688 61.8408203125 699.518554688 101.161132812 699.518554688 c 128,-1,10
 140.481445312 699.518554688 140.481445312 699.518554688 140.481445312 532.407226562 c 0,11,12
 140.481445312 448.827148438 140.481445312 448.827148438 147.854492188 443.4453125 c 1,13,14
 200.147460938 515.522460938 200.147460938 515.522460938 259.916992188 512.747070312 c 1,15,16
 298.234375 515.153320312 298.234375 515.153320312 346.284179688 500.751953125 c 128,-1,17
 394.334960938 486.3515625 394.334960938 486.3515625 413.020507812 467.479492188 c 0,18,19
 436.083007812 448.368164062 436.083007812 448.368164062 451.620117188 421.484375 c 128,-1,20
 467.158203125 394.600585938 467.158203125 394.600585938 474.780273438 360.818359375 c 128,-1,21
 482.40234375 327.036132812 482.40234375 327.036132812 485.459960938 301.052734375 c 128,-1,22
 488.518554688 275.068359375 488.518554688 275.068359375 490.432617188 237.99609375 c 0,23,24
 490.681640625 180.921875 490.681640625 180.921875 470.624023438 132.126953125 c 128,-1,25
 450.56640625 83.3310546875 450.56640625 83.3310546875 418.858398438 52.6953125 c 128,-1,26
 387.150390625 22.0595703125 387.150390625 22.0595703125 346.938476562 8.5126953125 c 128,-1,27
 306.7265625 -5.033203125 306.7265625 -5.033203125 267.946289062 1.939453125 c 128,-1,28
 229.166015625 8.912109375 229.166015625 8.912109375 193.599609375 42.2138671875 c 128,-1,29
 158.032226562 75.515625 158.032226562 75.515625 136.893554688 132.125976562 c 1,0,1
278.102539062 77.2744140625 m 0,30,31
 316.528320312 76.4716796875 316.528320312 76.4716796875 348.094726562 98.9580078125 c 128,-1,32
 379.662109375 121.4453125 379.662109375 121.4453125 396.110351562 156.3984375 c 128,-1,33
 412.559570312 191.3515625 412.559570312 191.3515625 411.840820312 229.100585938 c 0,34,35
 413.318359375 258.114257812 413.318359375 258.114257812 412.436523438 286.763671875 c 128,-1,36
 411.5546875 315.4140625 411.5546875 315.4140625 402.413085938 341.96484375 c 128,-1,37
 393.270507812 368.515625 393.270507812 368.515625 379.0078125 389.030273438 c 128,-1,38
 364.745117188 409.545898438 364.745117188 409.545898438 339.458984375 422.290039062 c 128,-1,39
 314.172851562 435.03515625 314.172851562 435.03515625 281.002929688 436.072265625 c 0,40,41
 250.29296875 436.666992188 250.29296875 436.666992188 224.587890625 424.850585938 c 128,-1,42
 198.881835938 413.034179688 198.881835938 413.034179688 182.282226562 392.53125 c 128,-1,43
 165.682617188 372.029296875 165.682617188 372.029296875 154.057617188 345.265625 c 128,-1,44
 142.432617188 318.502929688 142.432617188 318.502929688 139.865234375 288.74609375 c 128,-1,45
 137.297851562 258.989257812 137.297851562 258.989257812 139.677734375 229.15234375 c 128,-1,46
 142.05859375 199.315429688 142.05859375 199.315429688 153.447265625 172.177734375 c 128,-1,47
 164.8359375 145.0390625 164.8359375 145.0390625 181.14453125 124.000976562 c 128,-1,48
 197.453125 102.963867188 197.453125 102.963867188 222.72265625 90.3173828125 c 128,-1,49
 247.991210938 77.6708984375 247.991210938 77.6708984375 278.102539062 77.2744140625 c 0,30,31
EndSplineSet
EndChar

StartChar: c
Encoding: 99 99 192
Width: 550
GlyphClass: 2
Flags: W
AnchorPoint: "Anchor-1" 275 0 basechar 0
AnchorPoint: "Anchor-0" 275 500 basechar 0
LayerCount: 2
Fore
SplineSet
488 96 m 1,0,-1
 371 -10 l 1,1,-1
 219 -10 l 1,2,-1
 113 53 l 1,3,-1
 51 171 l 1,4,-1
 51 327 l 1,5,-1
 113 446 l 1,6,-1
 219 510 l 1,7,-1
 370 510 l 1,8,-1
 487 404 l 1,9,10
 499 313 499 313 463 313 c 0,11,12
 426 313 426 313 408 372 c 1,13,-1
 339 433 l 1,14,-1
 242 433 l 1,15,-1
 172 389 l 1,16,-1
 131 306 l 1,17,-1
 131 192 l 1,18,-1
 172 110 l 1,19,-1
 242 67 l 1,20,-1
 340 67 l 1,21,-1
 409 128 l 1,22,23
 427 188 427 188 463 188 c 256,24,25
 499 188 499 188 488 96 c 1,0,-1
EndSplineSet
EndChar

StartChar: ccedilla
Encoding: 231 231 195
Width: 550
GlyphClass: 2
Flags: W
AnchorPoint: "Anchor-1" 377 -240 basechar 0
AnchorPoint: "Anchor-0" 275 500 basechar 0
LayerCount: 2
Fore
SplineSet
463 188 m 256,0,1
 499 188 499 188 488 96 c 1,2,-1
 371 -10 l 1,3,-1
 307 -10 l 1,4,5
 312 -14 312 -14 316 -19.5 c 128,-1,6
 320 -25 320 -25 324 -31 c 2,7,-1
 362 -86 l 1,8,-1
 362 -181 l 1,9,-1
 301 -240 l 1,10,-1
 197 -240 l 1,11,-1
 130 -178 l 1,12,13
 135 -133 135 -133 166 -133 c 256,14,15
 197 -133 197 -133 197 -148 c 1,16,-1
 221 -175 l 1,17,-1
 294 -175 l 1,18,-1
 294 -88 l 1,19,-1
 267 -54 l 2,20,21
 247 -28 247 -28 244 -10 c 1,22,-1
 219 -10 l 1,23,-1
 113 53 l 1,24,-1
 51 171 l 1,25,-1
 51 327 l 1,26,-1
 113 446 l 1,27,-1
 219 510 l 1,28,-1
 370 510 l 1,29,-1
 487 404 l 1,30,31
 499 313 499 313 463 313 c 0,32,33
 426 313 426 313 408 372 c 1,34,-1
 339 433 l 1,35,-1
 242 433 l 1,36,-1
 172 389 l 1,37,-1
 131 306 l 1,38,-1
 131 192 l 1,39,-1
 172 110 l 1,40,-1
 242 67 l 1,41,-1
 340 67 l 1,42,-1
 409 128 l 1,43,44
 427 188 427 188 463 188 c 256,0,1
EndSplineSet
Substitution2: "'ss03' Style Set 3 in Latin lookup 27 subtable" ccedilla.ss03
Substitution2: "'aalt' Access All Alternates in Latin lookup 0 subtable" ccedilla.ss03
EndChar

StartChar: d
Encoding: 100 100 197
Width: 550
GlyphClass: 2
Flags: W
AnchorPoint: "Anchor-1" 275 0 basechar 0
AnchorPoint: "Anchor-0" 275 800 basechar 0
LayerCount: 2
Fore
SplineSet
447 700 m 260,0,1
 487 700 487 700 487 350 c 260,2,3
 487 0 487 0 451 0 c 260,4,5
 415 0 415 0 413 11 c 6,6,-1
 407 79 l 5,7,-1
 407 131 l 6,8,9
 407 147 407 147 403 136.5 c 132,-1,10
 399 126 399 126 391 90 c 5,11,-1
 311 -10 l 5,12,-1
 187 -10 l 5,13,-1
 100 56 l 5,14,-1
 51 174 l 5,15,-1
 51 324 l 5,16,-1
 101 443 l 5,17,-1
 193 510 l 5,18,-1
 376 510 l 5,19,20
 392 434 392 434 399.5 439.5 c 132,-1,21
 407 445 407 445 407 530 c 4,22,23
 407 700 407 700 447 700 c 260,0,1
332 67 m 5,24,-1
 407 170 l 5,25,-1
 407 333 l 5,26,-1
 332 432 l 5,27,-1
 195 432 l 5,28,-1
 131 334 l 5,29,-1
 131 167 l 5,30,-1
 200 67 l 5,31,-1
 332 67 l 5,24,-1
EndSplineSet
EndChar

StartChar: eth
Encoding: 240 240 198
Width: 550
GlyphClass: 1
Flags: W
LayerCount: 2
Fore
SplineSet
505 474 m 1,0,-1
 505 188 l 1,1,-1
 453 67 l 1,2,-1
 349 -10 l 1,3,-1
 169 -10 l 1,4,-1
 51 133 l 1,5,-1
 51 324 l 1,6,-1
 101 443 l 1,7,-1
 193 510 l 1,8,-1
 343 510 l 1,9,10
 387 448 387 448 320 569 c 1,11,12
 119 642 119 642 134 676 c 0,13,14
 147 710 147 710 221 684 c 1,15,16
 284 644 284 644 319 677 c 0,17,18
 337 694 337 694 352 694.5 c 128,-1,19
 367 695 367 695 376 686 c 128,-1,20
 385 677 385 677 384 662.5 c 128,-1,21
 383 648 383 648 368 634 c 0,22,23
 339 606 339 606 505 474 c 1,0,-1
348 67 m 1,24,-1
 425 170 l 1,25,-1
 425 334 l 1,26,-1
 348 433 l 1,27,-1
 203 433 l 1,28,-1
 131 333 l 1,29,-1
 131 167 l 1,30,-1
 206 67 l 1,31,-1
 348 67 l 1,24,-1
EndSplineSet
EndChar

StartChar: e
Encoding: 101 101 201
Width: 550
GlyphClass: 2
Flags: W
AnchorPoint: "Anchor-2" 495 10 basechar 0
AnchorPoint: "Anchor-1" 275 0 basechar 0
AnchorPoint: "Anchor-0" 275 500 basechar 0
LayerCount: 2
Fore
SplineSet
458 161 m 0,0,1
 496 161 496 161 483 85 c 1,2,-1
 378 -10 l 1,3,-1
 221 -10 l 1,4,-1
 112 56 l 1,5,-1
 51 174 l 1,6,-1
 51 324 l 1,7,-1
 110 443 l 1,8,-1
 217 510 l 1,9,-1
 395 510 l 1,10,-1
 504 365 l 1,11,12
 498 229 498 229 315 229 c 0,13,14
 131 229 131 229 138 156 c 1,15,-1
 224 67 l 1,16,-1
 391 67 l 1,17,18
 419 161 419 161 458 161 c 0,0,1
224 433 m 1,19,-1
 151 363 l 1,20,21
 136 301 136 301 276 301 c 256,22,23
 416 301 416 301 412 365 c 1,24,-1
 343 433 l 1,25,-1
 224 433 l 1,19,-1
EndSplineSet
EndChar

StartChar: eogonek
Encoding: 281 281 209
Width: 550
GlyphClass: 2
Flags: W
AnchorPoint: "Anchor-2" 495 10 basechar 0
AnchorPoint: "Anchor-1" 275 0 basechar 0
AnchorPoint: "Anchor-0" 497 500 basechar 0
LayerCount: 2
Fore
SplineSet
475 -123 m 0,0,1
 507 -123 507 -123 511 -168 c 1,2,-1
 444 -230 l 1,3,-1
 340 -230 l 1,4,-1
 279 -171 l 1,5,-1
 279 -76 l 1,6,-1
 317 -21 l 1,7,-1
 325 -10 l 1,8,-1
 221 -10 l 1,9,-1
 112 56 l 1,10,-1
 51 174 l 1,11,-1
 51 324 l 1,12,-1
 110 443 l 1,13,-1
 217 510 l 1,14,-1
 395 510 l 1,15,-1
 504 365 l 1,16,17
 498 229 498 229 315 229 c 0,18,19
 131 229 131 229 138 156 c 1,20,-1
 224 67 l 1,21,-1
 391 67 l 1,22,23
 419 161 419 161 458 161 c 0,24,25
 496 161 496 161 483 85 c 1,26,-1
 411 20 l 1,27,28
 407 8 407 8 398 -8 c 128,-1,29
 389 -24 389 -24 374 -44 c 2,30,-1
 347 -78 l 1,31,-1
 347 -165 l 1,32,-1
 420 -165 l 1,33,-1
 444 -138 l 1,34,35
 444 -123 444 -123 475 -123 c 0,0,1
224 433 m 1,36,-1
 151 363 l 1,37,38
 136 301 136 301 276 301 c 256,39,40
 416 301 416 301 412 365 c 1,41,-1
 343 433 l 1,42,-1
 224 433 l 1,36,-1
EndSplineSet
Substitution2: "'ss03' Style Set 3 in Latin lookup 27 subtable" eogonek.ss03
Substitution2: "'aalt' Access All Alternates in Latin lookup 0 subtable" eogonek.ss03
EndChar

StartChar: f
Encoding: 102 102 210
Width: 550
GlyphClass: 2
Flags: W
AnchorPoint: "Anchor-1" 275 0 basechar 0
AnchorPoint: "Anchor-0" 275 800 basechar 0
LayerCount: 2
Fore
SplineSet
267 622 m 1,0,-1
 267 515 l 2,1,2
 267 500 267 500 375 500 c 0,3,4
 482 500 482 500 482 463 c 0,5,6
 482 425 482 425 375 425 c 0,7,8
 267 425 267 425 267 213 c 0,9,10
 267 0 267 0 227 0 c 256,11,12
 187 0 187 0 187 213 c 0,13,14
 187 425 187 425 128 425 c 0,15,16
 68 425 68 425 68 463 c 0,17,18
 68 500 68 500 128 500 c 0,19,20
 187 500 187 500 187 515 c 2,21,-1
 187 616 l 1,22,-1
 278 700 l 1,23,-1
 425 700 l 2,24,25
 493 700 493 700 493 660 c 256,26,27
 493 620 493 620 425 620 c 0,28,29
 391 620 391 620 351.5 620.5 c 128,-1,30
 312 621 312 621 267 622 c 1,0,-1
EndSplineSet
EndChar

StartChar: g
Encoding: 103 103 211
Width: 550
GlyphClass: 2
Flags: W
AnchorPoint: "Anchor-1" 275 -200 basechar 0
AnchorPoint: "Anchor-0" 266 500 basechar 0
LayerCount: 2
Fore
SplineSet
533 458 m 0,0,1
 533 414 533 414 469 414 c 1,2,3
 416 434 416 434 415 428 c 128,-1,4
 414 422 414 422 454 386 c 1,5,-1
 454 228 l 1,6,-1
 398 131 l 1,7,-1
 304 79 l 1,8,9
 248 79 248 79 188 76 c 1,10,-1
 135 58 l 1,11,-1
 135 18 l 1,12,-1
 158 0 l 1,13,-1
 371 0 l 1,14,-1
 475 -74 l 1,15,-1
 475 -179 l 2,16,17
 475 -200 475 -200 435 -200 c 256,18,19
 395 -200 395 -200 395 -189 c 2,20,-1
 395 -126 l 1,21,-1
 340 -77 l 1,22,-1
 55 -77 l 1,23,-1
 55 54 l 1,24,-1
 124 94 l 1,25,26
 172 93 172 93 114 115 c 1,27,-1
 41 219 l 1,28,-1
 41 357 l 1,29,-1
 98 456 l 1,30,-1
 193 510 l 1,31,-1
 282 510 l 1,32,33
 311 499 311 499 412 501 c 0,34,35
 477 501 477 501 505 490.5 c 128,-1,36
 533 480 533 480 533 458 c 0,0,1
300 154 m 1,37,-1
 374 229 l 1,38,-1
 374 356 l 1,39,-1
 300 432 l 1,40,-1
 196 432 l 1,41,-1
 121 357 l 1,42,-1
 121 229 l 1,43,-1
 196 154 l 1,44,-1
 300 154 l 1,37,-1
EndSplineSet
EndChar

StartChar: h
Encoding: 104 104 215
Width: 550
GlyphClass: 2
Flags: W
AnchorPoint: "Anchor-1" 275 0 basechar 0
AnchorPoint: "Anchor-0" 275 800 basechar 0
LayerCount: 2
Fore
SplineSet
362 510 m 1,0,-1
 436 477 l 1,1,-1
 487 397 l 1,2,-1
 487 166 l 2,3,4
 487 0 487 0 447 0 c 256,5,6
 407 0 407 0 407 156 c 2,7,-1
 407 430 l 1,8,-1
 228 430 l 1,9,-1
 156 345 l 1,10,11
 143 294 143 294 143 147 c 256,12,13
 143 0 143 0 103 0 c 256,14,15
 63 0 63 0 63 350 c 256,16,17
 63 700 63 700 103 700 c 256,18,19
 143 700 143 700 143 526 c 0,20,21
 143 351 143 351 161 409 c 1,22,-1
 251 510 l 1,23,-1
 362 510 l 1,0,-1
EndSplineSet
EndChar

StartChar: hbar
Encoding: 295 295 216
Width: 550
GlyphClass: 2
Flags: W
AnchorPoint: "Anchor-1" 275 0 basechar 0
AnchorPoint: "Anchor-0" 275 800 basechar 0
LayerCount: 2
Fore
SplineSet
362 510 m 1,0,-1
 436 477 l 1,1,-1
 487 397 l 1,2,-1
 487 166 l 2,3,4
 487 0 487 0 447 0 c 256,5,6
 407 0 407 0 407 156 c 2,7,-1
 407 430 l 1,8,-1
 228 430 l 1,9,-1
 156 345 l 1,10,11
 143 294 143 294 143 147 c 256,12,13
 143 0 143 0 103 0 c 256,14,15
 63 0 63 0 63 350 c 0,16,17
 63 409 63 409 64 458.5 c 128,-1,18
 65 508 65 508 68 547 c 1,19,20
 -30 552 -30 552 -30 576 c 0,21,22
 -30 601 -30 601 72 605 c 1,23,24
 83 700 83 700 103 700 c 0,25,26
 133 700 133 700 140 606 c 1,27,28
 270 605 270 605 270 576 c 0,29,30
 270 549 270 549 143 546 c 1,31,-1
 143 526 l 2,32,33
 143 351 143 351 161 409 c 1,34,-1
 251 510 l 1,35,-1
 362 510 l 1,0,-1
EndSplineSet
EndChar

StartChar: i
Encoding: 105 105 217
Width: 550
GlyphClass: 2
Flags: W
AnchorPoint: "Anchor-2" 415 10 basechar 0
AnchorPoint: "Anchor-1" 275 0 basechar 0
LayerCount: 2
Fore
SplineSet
337 652 m 0,0,1
 337 603 337 603 285 603 c 256,2,3
 233 603 233 603 233 652 c 0,4,5
 233 700 233 700 285 700 c 256,6,7
 337 700 337 700 337 652 c 0,0,1
395 75 m 256,8,9
 465 75 465 75 465 38 c 0,10,11
 465 0 465 0 275 0 c 256,12,13
 85 0 85 0 85 38 c 0,14,15
 85 75 85 75 165 75 c 256,16,17
 245 75 245 75 245 250 c 256,18,19
 245 425 245 425 165 425 c 256,20,21
 85 425 85 425 85 463 c 0,22,23
 85 500 85 500 205 500 c 256,24,25
 325 500 325 500 325 288 c 0,26,27
 325 75 325 75 395 75 c 256,8,9
EndSplineSet
Substitution2: "Single Substitution lookup 4 subtable" dotlessi
Substitution2: "Single Substitution lookup 3 subtable" dotlessi
EndChar

StartChar: dotlessi
Encoding: 305 305 218
Width: 550
GlyphClass: 2
Flags: W
AnchorPoint: "Anchor-2" 495 10 basechar 0
AnchorPoint: "Anchor-1" 275 0 basechar 0
AnchorPoint: "Anchor-0" 275 500 basechar 0
LayerCount: 2
Fore
SplineSet
395 75 m 256,0,1
 465 75 465 75 465 38 c 0,2,3
 465 0 465 0 275 0 c 256,4,5
 85 0 85 0 85 38 c 0,6,7
 85 75 85 75 165 75 c 256,8,9
 245 75 245 75 245 250 c 256,10,11
 245 425 245 425 165 425 c 256,12,13
 85 425 85 425 85 463 c 0,14,15
 85 500 85 500 205 500 c 256,16,17
 325 500 325 500 325 288 c 0,18,19
 325 75 325 75 395 75 c 256,0,1
EndSplineSet
EndChar

StartChar: ij
Encoding: 307 307 223
Width: 550
GlyphClass: 1
Flags: W
LayerCount: 2
Fore
SplineSet
247 652 m 0,0,1
 247 603 247 603 195 603 c 256,2,3
 143 603 143 603 143 652 c 0,4,5
 143 700 143 700 195 700 c 256,6,7
 247 700 247 700 247 652 c 0,0,1
506 652 m 0,8,9
 506 603 506 603 454 603 c 256,10,11
 402 603 402 603 402 652 c 0,12,13
 402 700 402 700 454 700 c 256,14,15
 506 700 506 700 506 652 c 0,8,9
305 75 m 0,16,17
 355 75 355 75 355 38 c 0,18,19
 355 0 355 0 185 0 c 0,20,21
 25 0 25 0 25 38 c 0,22,23
 25 57 25 57 41.5 66 c 128,-1,24
 58 75 58 75 75 75 c 0,25,26
 155 75 155 75 155 250 c 256,27,28
 155 425 155 425 75 425 c 0,29,30
 58 425 58 425 41.5 434.5 c 128,-1,31
 25 444 25 444 25 463 c 256,32,33
 25 482 25 482 51.5 491 c 128,-1,34
 78 500 78 500 115 500 c 0,35,36
 235 500 235 500 235 288 c 0,37,38
 235 75 235 75 305 75 c 0,16,17
506 235 m 2,39,-1
 506 -116 l 1,40,-1
 415 -200 l 1,41,-1
 263 -200 l 2,42,43
 190 -200 190 -200 190 -162 c 0,44,45
 190 -125 190 -125 263 -125 c 0,46,47
 300 -125 300 -125 328.5 -125 c 128,-1,48
 357 -125 357 -125 378 -126 c 1,49,-1
 426 -83 l 1,50,-1
 426 198 l 2,51,52
 426 425 426 425 358 425 c 0,53,54
 280 425 280 425 280 463 c 0,55,56
 280 500 280 500 398 500 c 0,57,58
 506 500 506 500 506 235 c 2,39,-1
EndSplineSet
EndChar

StartChar: iogonek
Encoding: 303 303 225
Width: 550
GlyphClass: 2
Flags: W
AnchorPoint: "Anchor-2" 415 10 basechar 0
AnchorPoint: "Anchor-1" 275 0 basechar 0
LayerCount: 2
Fore
SplineSet
285 603 m 256,0,1
 233 603 233 603 233 652 c 0,2,3
 233 700 233 700 285 700 c 256,4,5
 337 700 337 700 337 652 c 0,6,7
 337 603 337 603 285 603 c 256,0,1
515 -123 m 0,8,9
 547 -123 547 -123 551 -168 c 1,10,-1
 484 -230 l 1,11,-1
 380 -230 l 1,12,-1
 319 -171 l 1,13,-1
 319 -76 l 1,14,-1
 357 -21 l 2,15,16
 362 -14 362 -14 367 -8 c 128,-1,17
 372 -2 372 -2 376 4 c 1,18,19
 355 2 355 2 330 1 c 128,-1,20
 305 0 305 0 275 0 c 0,21,22
 85 0 85 0 85 38 c 0,23,24
 85 75 85 75 165 75 c 256,25,26
 245 75 245 75 245 250 c 256,27,28
 245 425 245 425 165 425 c 256,29,30
 85 425 85 425 85 463 c 0,31,32
 85 500 85 500 205 500 c 256,33,34
 325 500 325 500 325 288 c 0,35,36
 325 75 325 75 395 75 c 256,37,38
 465 75 465 75 465 38 c 0,39,40
 465 28 465 28 452 21 c 1,41,42
 448 8 448 8 439 -8 c 128,-1,43
 430 -24 430 -24 414 -44 c 2,44,-1
 387 -78 l 1,45,-1
 387 -165 l 1,46,-1
 460 -165 l 1,47,-1
 484 -138 l 1,48,49
 484 -123 484 -123 515 -123 c 0,8,9
EndSplineSet
Substitution2: "'ss03' Style Set 3 in Latin lookup 27 subtable" iogonek.ss03
Substitution2: "'aalt' Access All Alternates in Latin lookup 0 subtable" iogonek.ss03
EndChar

StartChar: j
Encoding: 106 106 226
Width: 550
GlyphClass: 1
Flags: W
LayerCount: 2
Fore
SplineSet
415 652 m 0,0,1
 415 603 415 603 363 603 c 256,2,3
 311 603 311 603 311 652 c 0,4,5
 311 700 311 700 363 700 c 256,6,7
 415 700 415 700 415 652 c 0,0,1
415 235 m 2,8,-1
 415 -116 l 1,9,-1
 324 -200 l 1,10,-1
 172 -200 l 2,11,12
 99 -200 99 -200 99 -162 c 0,13,14
 99 -125 99 -125 172 -125 c 0,15,16
 209 -125 209 -125 237.5 -125 c 128,-1,17
 266 -125 266 -125 287 -126 c 1,18,-1
 335 -83 l 1,19,-1
 335 198 l 2,20,21
 335 425 335 425 217 425 c 256,22,23
 99 425 99 425 99 463 c 0,24,25
 99 500 99 500 257 500 c 256,26,27
 415 500 415 500 415 235 c 2,8,-1
EndSplineSet
EndChar

StartChar: k
Encoding: 107 107 227
Width: 550
GlyphClass: 2
Flags: W
AnchorPoint: "Anchor-1" 245 0 basechar 0
AnchorPoint: "Anchor-0" 275 800 basechar 0
LayerCount: 2
Fore
SplineSet
63 350 m 256,0,1
 63 700 63 700 103 700 c 256,2,3
 143 700 143 700 143 350 c 256,4,5
 143 0 143 0 103 0 c 256,6,7
 63 0 63 0 63 350 c 256,0,1
389 139 m 256,8,9
 513 0 513 0 463 0 c 0,10,11
 446 0 446 0 416.5 18.5 c 128,-1,12
 387 37 387 37 353.5 68.5 c 128,-1,13
 320 100 320 100 291.5 139.5 c 128,-1,14
 263 179 263 179 247 223 c 128,-1,15
 231 267 231 267 236.5 310 c 128,-1,16
 242 353 242 353 277 390 c 0,17,18
 384 500 384 500 440 500 c 0,19,20
 497 500 497 500 381 389 c 256,21,22
 265 278 265 278 389 139 c 256,8,9
EndSplineSet
EndChar

StartChar: l
Encoding: 108 108 229
Width: 550
GlyphClass: 2
Flags: W
AnchorPoint: "Anchor-1" 275 0 basechar 0
AnchorPoint: "Anchor-0" 182 700 basechar 0
LayerCount: 2
Fore
SplineSet
429 75 m 0,0,1
 482 75 482 75 482 38 c 0,2,3
 482 0 482 0 429 0 c 2,4,-1
 296 0 l 1,5,-1
 205 84 l 1,6,-1
 205 398 l 2,7,8
 205 625 205 625 135 625 c 0,9,10
 64 625 64 625 64 663 c 0,11,12
 64 700 64 700 135 700 c 2,13,-1
 245 700 l 2,14,15
 285 700 285 700 285 435 c 2,16,-1
 285 117 l 1,17,-1
 333 74 l 1,18,19
 354 75 354 75 378 75 c 128,-1,20
 402 75 402 75 429 75 c 0,0,1
EndSplineSet
EndChar

StartChar: lslash
Encoding: 322 322 234
Width: 550
GlyphClass: 2
Flags: W
AnchorPoint: "Anchor-1" 275 0 basechar 0
AnchorPoint: "Anchor-0" 182 700 basechar 0
LayerCount: 2
Fore
SplineSet
429 75 m 0,0,1
 482 75 482 75 482 38 c 0,2,3
 482 0 482 0 429 0 c 2,4,-1
 296 0 l 1,5,-1
 205 84 l 1,6,-1
 205 260 l 1,7,8
 167 236 167 236 137.5 223.5 c 128,-1,9
 108 211 108 211 102 221 c 0,10,11
 97 229 97 229 110 246.5 c 128,-1,12
 123 264 123 264 148.5 288 c 128,-1,13
 174 312 174 312 205 336 c 1,14,-1
 205 398 l 2,15,16
 205 625 205 625 135 625 c 0,17,18
 64 625 64 625 64 663 c 0,19,20
 64 700 64 700 135 700 c 2,21,-1
 245 700 l 2,22,23
 285 700 285 700 285 435 c 2,24,-1
 285 393 l 1,25,26
 327 421 327 421 360.5 436 c 128,-1,27
 394 451 394 451 401 441 c 0,28,29
 407 433 407 433 391.5 413 c 128,-1,30
 376 393 376 393 347.5 367.5 c 128,-1,31
 319 342 319 342 285 316 c 1,32,-1
 285 117 l 1,33,-1
 333 74 l 1,34,35
 354 75 354 75 378 75 c 128,-1,36
 402 75 402 75 429 75 c 0,0,1
EndSplineSet
EndChar

StartChar: m
Encoding: 109 109 235
Width: 550
GlyphClass: 2
Flags: W
AnchorPoint: "Anchor-1" 275 0 basechar 0
AnchorPoint: "Anchor-0" 275 500 basechar 0
LayerCount: 2
Fore
SplineSet
517 510 m 1,0,-1
 517 166 l 2,1,2
 517 0 517 0 477 0 c 256,3,4
 437 0 437 0 437 171 c 2,5,-1
 437 388 l 1,6,-1
 416 430 l 1,7,-1
 344 430 l 1,8,9
 316 333 316 333 316 166 c 0,10,11
 316 0 316 0 278 0 c 256,12,13
 240 0 240 0 240 171 c 2,14,-1
 240 389 l 1,15,-1
 222 430 l 1,16,-1
 163 430 l 1,17,-1
 123 348 l 1,18,19
 118 323 118 323 115.5 273 c 128,-1,20
 113 223 113 223 113 149 c 0,21,22
 113 0 113 0 73 0 c 256,23,24
 33 0 33 0 33 250 c 256,25,26
 33 500 33 500 73 500 c 256,27,28
 113 500 113 500 113 429 c 0,29,30
 113 360 113 360 126 416 c 1,31,-1
 180 510 l 1,32,-1
 282 510 l 1,33,34
 303 445 303 445 312.5 426 c 128,-1,35
 322 407 322 407 329 433 c 1,36,-1
 381 510 l 1,37,-1
 517 510 l 1,0,-1
EndSplineSet
EndChar

StartChar: n
Encoding: 110 110 236
Width: 550
GlyphClass: 2
Flags: W
AnchorPoint: "Anchor-1" 275 0 basechar 0
AnchorPoint: "Anchor-0" 295 500 basechar 0
LayerCount: 2
Fore
SplineSet
362 510 m 1,0,-1
 436 477 l 1,1,-1
 487 397 l 1,2,-1
 487 166 l 2,3,4
 487 0 487 0 447 0 c 256,5,6
 407 0 407 0 407 156 c 2,7,-1
 407 430 l 1,8,-1
 228 430 l 1,9,-1
 157 344 l 1,10,11
 143 290 143 290 143 146 c 0,12,13
 143 0 143 0 103 0 c 256,14,15
 63 0 63 0 63 250 c 256,16,17
 63 500 63 500 103 500 c 256,18,19
 143 500 143 500 143 426 c 0,20,21
 143 351 143 351 161 409 c 1,22,-1
 251 510 l 1,23,-1
 362 510 l 1,0,-1
EndSplineSet
EndChar

StartChar: eng
Encoding: 331 331 240
Width: 550
GlyphClass: 1
Flags: W
LayerCount: 2
Fore
SplineSet
362 510 m 1,0,-1
 436 477 l 1,1,-1
 487 397 l 1,2,-1
 487 -82 l 1,3,-1
 431 -168 l 1,4,-1
 339 -210 l 1,5,6
 287 -210 287 -210 287 -170 c 256,7,8
 287 -130 287 -130 341 -130 c 1,9,-1
 407 -75 l 1,10,-1
 407 430 l 1,11,-1
 228 430 l 1,12,-1
 157 344 l 1,13,14
 143 290 143 290 143 146 c 0,15,16
 143 0 143 0 103 0 c 256,17,18
 63 0 63 0 63 250 c 256,19,20
 63 500 63 500 103 500 c 256,21,22
 143 500 143 500 143 426 c 0,23,24
 143 351 143 351 161 409 c 1,25,-1
 251 510 l 1,26,-1
 362 510 l 1,0,-1
EndSplineSet
EndChar

StartChar: o
Encoding: 111 111 242
Width: 550
GlyphClass: 2
Flags: W
AnchorPoint: "Anchor-2" 495 10 basechar 0
AnchorPoint: "Anchor-1" 275 0 basechar 0
AnchorPoint: "Anchor-0" 275 500 basechar 0
LayerCount: 2
Fore
SplineSet
210 -10 m 1,0,-1
 108 53 l 1,1,-1
 51 170 l 1,2,-1
 51 328 l 1,3,-1
 108 446 l 1,4,-1
 210 510 l 1,5,-1
 341 510 l 1,6,-1
 442 446 l 1,7,-1
 499 328 l 1,8,-1
 499 170 l 1,9,-1
 443 53 l 1,10,-1
 342 -10 l 1,11,-1
 210 -10 l 1,0,-1
341 67 m 1,12,-1
 419 163 l 1,13,-1
 419 335 l 1,14,-1
 341 433 l 1,15,-1
 211 433 l 1,16,-1
 131 335 l 1,17,-1
 131 163 l 1,18,-1
 210 67 l 1,19,-1
 341 67 l 1,12,-1
EndSplineSet
Substitution2: "Single Substitution lookup 18 subtable" ordmasculine
Substitution2: "'aalt' Access All Alternates in Latin lookup 0 subtable" ordmasculine
EndChar

StartChar: oslash
Encoding: 248 248 250
Width: 550
GlyphClass: 2
Flags: W
AnchorPoint: "Anchor-0" 275 500 basechar 0
LayerCount: 2
Fore
SplineSet
464 411 m 1,0,-1
 499 311 l 1,1,-1
 499 170 l 1,2,-1
 443 53 l 1,3,-1
 342 -10 l 1,4,-1
 222 -10 l 1,5,6
 175 13 175 13 164 -6 c 0,7,8
 157 -18 157 -18 141.5 -14.5 c 128,-1,9
 126 -11 126 -11 115.5 1.5 c 128,-1,10
 105 14 105 14 113 28 c 0,11,12
 125 47 125 47 90 82 c 1,13,-1
 51 184 l 1,14,-1
 51 328 l 1,15,-1
 108 446 l 1,16,-1
 210 510 l 1,17,-1
 336 510 l 1,18,19
 383 484 383 484 395 505 c 0,20,21
 403 519 403 519 419.5 516 c 128,-1,22
 436 513 436 513 446 500 c 128,-1,23
 456 487 456 487 446 470 c 0,24,25
 431 445 431 445 464 411 c 1,0,-1
131 168 m 1,26,27
 143 152 143 152 163.5 163 c 128,-1,28
 184 174 184 174 208 202.5 c 128,-1,29
 232 231 232 231 255 267.5 c 128,-1,30
 278 304 278 304 294.5 340 c 128,-1,31
 311 376 311 376 316.5 401.5 c 128,-1,32
 322 427 322 427 312 433 c 1,33,-1
 211 433 l 1,34,-1
 131 335 l 1,35,-1
 131 168 l 1,26,27
341 67 m 1,36,-1
 419 163 l 1,37,-1
 419 324 l 1,38,39
 409 340 409 340 389.5 329 c 128,-1,40
 370 318 370 318 347 290 c 128,-1,41
 324 262 324 262 301.5 226 c 128,-1,42
 279 190 279 190 262 155 c 128,-1,43
 245 120 245 120 238.5 95.5 c 128,-1,44
 232 71 232 71 241 67 c 1,45,-1
 341 67 l 1,36,-1
EndSplineSet
EndChar

StartChar: oe
Encoding: 339 339 252
Width: 550
GlyphClass: 2
Flags: W
AnchorPoint: "Anchor-1" 275 0 basechar 0
AnchorPoint: "Anchor-0" 275 500 basechar 0
LayerCount: 2
Fore
SplineSet
465 510 m 1,0,-1
 528 393 l 1,1,2
 528 335 528 335 530.5 301.5 c 128,-1,3
 533 268 533 268 527 252.5 c 128,-1,4
 521 237 521 237 496.5 233 c 128,-1,5
 472 229 472 229 418 229 c 0,6,7
 309 229 309 229 309 150 c 1,8,-1
 351 67 l 1,9,-1
 422 67 l 1,10,-1
 445 114 l 1,11,12
 448 161 448 161 486 161 c 256,13,14
 524 161 524 161 519 83 c 1,15,-1
 459 -10 l 1,16,-1
 322 -10 l 1,17,18
 282 69 282 69 249 -10 c 1,19,-1
 101 -10 l 1,20,-1
 21 126 l 1,21,-1
 21 371 l 1,22,-1
 101 510 l 1,23,-1
 246 510 l 1,24,25
 281 431 281 431 318 510 c 1,26,-1
 465 510 l 1,0,-1
212 67 m 1,27,-1
 249 160 l 1,28,-1
 249 337 l 1,29,-1
 212 433 l 1,30,-1
 136 433 l 1,31,-1
 101 340 l 1,32,-1
 101 157 l 1,33,-1
 135 67 l 1,34,-1
 212 67 l 1,27,-1
382 299 m 0,35,36
 449 299 449 299 449 364 c 1,37,-1
 421 433 l 1,38,-1
 353 433 l 1,39,-1
 314 358 l 1,40,41
 314 299 314 299 382 299 c 0,35,36
EndSplineSet
EndChar

StartChar: p
Encoding: 112 112 253
Width: 550
GlyphClass: 2
Flags: W
AnchorPoint: "Anchor-1" 275 0 basechar 0
AnchorPoint: "Anchor-0" 275 500 basechar 0
LayerCount: 2
Fore
SplineSet
363 510 m 1,0,-1
 450 444 l 1,1,-1
 499 326 l 1,2,-1
 499 176 l 1,3,-1
 449 57 l 1,4,-1
 357 -10 l 1,5,-1
 174 -10 l 1,6,7
 143 139 143 139 143 -29 c 0,8,9
 143 -200 143 -200 103 -200 c 256,10,11
 63 -200 63 -200 63 150 c 256,12,13
 63 500 63 500 102 500 c 0,14,15
 140 500 140 500 140 489 c 2,16,-1
 143 430 l 1,17,-1
 143 369 l 2,18,19
 143 353 143 353 147 363.5 c 128,-1,20
 151 374 151 374 159 410 c 1,21,-1
 239 510 l 1,22,-1
 363 510 l 1,0,-1
355 68 m 1,23,-1
 419 166 l 1,24,-1
 419 333 l 1,25,-1
 350 433 l 1,26,-1
 218 433 l 1,27,-1
 143 330 l 1,28,-1
 143 167 l 1,29,-1
 218 68 l 1,30,-1
 355 68 l 1,23,-1
EndSplineSet
EndChar

StartChar: thorn
Encoding: 254 254 254
Width: 550
GlyphClass: 2
Flags: W
AnchorPoint: "Anchor-1" 275 0 basechar 0
AnchorPoint: "Anchor-0" 275 500 basechar 0
LayerCount: 2
Fore
SplineSet
363 510 m 1,0,-1
 450 444 l 1,1,-1
 499 326 l 1,2,-1
 499 176 l 1,3,-1
 449 57 l 1,4,-1
 357 -10 l 1,5,-1
 174 -10 l 1,6,7
 143 139 143 139 143 -29 c 0,8,9
 143 -200 143 -200 103 -200 c 256,10,11
 63 -200 63 -200 63 250 c 256,12,13
 63 700 63 700 102 700 c 0,14,15
 115 700 115 700 123 679 c 128,-1,16
 131 658 131 658 135.5 623.5 c 128,-1,17
 140 589 140 589 141.5 549.5 c 128,-1,18
 143 510 143 510 143.5 472.5 c 128,-1,19
 144 435 144 435 143.5 407 c 128,-1,20
 143 379 143 379 143 369 c 0,21,22
 143 353 143 353 147 363.5 c 128,-1,23
 151 374 151 374 159 410 c 1,24,-1
 239 510 l 1,25,-1
 363 510 l 1,0,-1
355 68 m 1,26,-1
 419 166 l 1,27,-1
 419 333 l 1,28,-1
 350 433 l 1,29,-1
 218 433 l 1,30,-1
 143 330 l 1,31,-1
 143 167 l 1,32,-1
 218 68 l 1,33,-1
 355 68 l 1,26,-1
EndSplineSet
EndChar

StartChar: q
Encoding: 113 113 255
Width: 550
GlyphClass: 2
Flags: W
AnchorPoint: "Anchor-1" 275 0 basechar 0
AnchorPoint: "Anchor-0" 275 500 basechar 0
LayerCount: 2
Fore
SplineSet
447 500 m 256,0,1
 487 500 487 500 487 150 c 256,2,3
 487 -200 487 -200 447 -200 c 256,4,5
 407 -200 407 -200 407 -23 c 0,6,7
 407 153 407 153 392 82 c 1,8,-1
 314 -10 l 1,9,-1
 190 -10 l 1,10,-1
 100 56 l 1,11,-1
 51 174 l 1,12,-1
 51 324 l 1,13,-1
 100 442 l 1,14,-1
 190 510 l 1,15,-1
 318 510 l 1,16,-1
 393 435 l 1,17,18
 400 401 400 401 403.5 400.5 c 128,-1,19
 407 400 407 400 407 434 c 0,20,21
 407 500 407 500 447 500 c 256,0,1
334 67 m 1,22,-1
 407 170 l 1,23,-1
 407 333 l 1,24,-1
 334 433 l 1,25,-1
 197 433 l 1,26,-1
 131 335 l 1,27,-1
 131 166 l 1,28,-1
 202 67 l 1,29,-1
 334 67 l 1,22,-1
EndSplineSet
EndChar

StartChar: r
Encoding: 114 114 256
Width: 550
GlyphClass: 2
Flags: W
AnchorPoint: "Anchor-1" 245 0 basechar 0
AnchorPoint: "Anchor-0" 295 500 basechar 0
LayerCount: 2
Fore
SplineSet
358 428 m 1,0,-1
 257 363 l 1,1,2
 242 324 242 324 242 200 c 0,3,4
 242 75 242 75 329 75 c 0,5,6
 415 75 415 75 415 38 c 0,7,8
 415 0 415 0 239 0 c 256,9,10
 63 0 63 0 63 38 c 0,11,12
 63 75 63 75 113 75 c 0,13,14
 162 75 162 75 162 288 c 0,15,16
 162 500 162 500 202 500 c 256,17,18
 242 500 242 500 242 435 c 0,19,20
 242 403 242 403 246.5 399.5 c 128,-1,21
 251 396 251 396 259 422 c 1,22,-1
 362 510 l 1,23,24
 464 510 464 510 464 469 c 256,25,26
 464 428 464 428 358 428 c 1,0,-1
EndSplineSet
EndChar

StartChar: s
Encoding: 115 115 260
Width: 550
GlyphClass: 2
Flags: W
AnchorPoint: "Anchor-1" 275 0 basechar 0
AnchorPoint: "Anchor-0" 275 500 basechar 0
LayerCount: 2
Fore
SplineSet
104 161 m 0,0,1
 140 161 140 161 151 120 c 1,2,-1
 233 66 l 1,3,-1
 356 66 l 1,4,-1
 404 100 l 1,5,-1
 404 166 l 1,6,-1
 358 198 l 1,7,8
 323 204 323 204 282 211.5 c 128,-1,9
 241 219 241 219 194 227 c 1,10,-1
 96 298 l 1,11,-1
 96 429 l 1,12,-1
 193 510 l 1,13,-1
 354 510 l 1,14,-1
 453 424 l 1,15,16
 455 349 455 349 420 349 c 0,17,18
 384 349 384 349 371 431 c 1,19,-1
 228 431 l 1,20,-1
 176 397 l 1,21,-1
 176 335 l 1,22,-1
 232 300 l 1,23,24
 268 293 268 293 309.5 285 c 128,-1,25
 351 277 351 277 398 269 c 1,26,-1
 484 202 l 1,27,-1
 484 66 l 1,28,-1
 391 -10 l 1,29,-1
 217 -10 l 1,30,-1
 107 54 l 1,31,-1
 64 135 l 1,32,33
 67 161 67 161 104 161 c 0,0,1
EndSplineSet
EndChar

StartChar: scedilla
Encoding: 351 351 263
Width: 550
GlyphClass: 2
Flags: W
AnchorPoint: "Anchor-1" 377 -240 basechar 0
AnchorPoint: "Anchor-0" 275 500 basechar 0
LayerCount: 2
Fore
SplineSet
398 269 m 1,0,-1
 484 202 l 1,1,-1
 484 66 l 1,2,-1
 391 -10 l 1,3,-1
 307 -10 l 1,4,5
 312 -14 312 -14 316 -19.5 c 128,-1,6
 320 -25 320 -25 324 -31 c 2,7,-1
 362 -86 l 1,8,-1
 362 -181 l 1,9,-1
 301 -240 l 1,10,-1
 197 -240 l 1,11,-1
 130 -178 l 1,12,13
 135 -133 135 -133 166 -133 c 256,14,15
 197 -133 197 -133 197 -148 c 1,16,-1
 221 -175 l 1,17,-1
 294 -175 l 1,18,-1
 294 -88 l 1,19,-1
 267 -54 l 2,20,21
 247 -28 247 -28 244 -10 c 1,22,-1
 217 -10 l 1,23,-1
 107 54 l 1,24,-1
 64 135 l 1,25,26
 67 161 67 161 104 161 c 0,27,28
 140 161 140 161 151 120 c 1,29,-1
 233 66 l 1,30,-1
 356 66 l 1,31,-1
 404 100 l 1,32,-1
 404 166 l 1,33,-1
 358 198 l 1,34,35
 323 204 323 204 282 211.5 c 128,-1,36
 241 219 241 219 194 227 c 1,37,-1
 96 298 l 1,38,-1
 96 429 l 1,39,-1
 193 510 l 1,40,-1
 354 510 l 1,41,-1
 453 424 l 1,42,43
 455 349 455 349 420 349 c 0,44,45
 384 349 384 349 371 431 c 1,46,-1
 228 431 l 1,47,-1
 176 397 l 1,48,-1
 176 335 l 1,49,-1
 232 300 l 1,50,51
 268 293 268 293 309.5 285 c 128,-1,52
 351 277 351 277 398 269 c 1,0,-1
EndSplineSet
Substitution2: "'ss03' Style Set 3 in Latin lookup 27 subtable" scedilla.ss03
Substitution2: "'locl' Localized Forms in Latin lookup 5 subtable" uni0219
AlternateSubs2: "'aalt' Access All Alternates in Latin lookup 1 subtable" uni0219 scedilla.ss03
EndChar

StartChar: germandbls
Encoding: 223 223 265
Width: 550
GlyphClass: 2
Flags: W
AnchorPoint: "Anchor-1" 275 0 basechar 0
AnchorPoint: "Anchor-0" 275 500 basechar 0
LayerCount: 2
Fore
SplineSet
394 199 m 1,0,-1
 489 114 l 1,1,-1
 489 -21 l 1,2,-1
 437 -108 l 1,3,-1
 336 -160 l 1,4,5
 266 -160 266 -160 266 -123 c 256,6,7
 266 -86 266 -86 338 -86 c 1,8,-1
 409 -25 l 1,9,-1
 409 87 l 1,10,-1
 343 150 l 1,11,-1
 256 150 l 2,12,13
 237 150 237 150 237 187 c 0,14,15
 237 225 237 225 292 325 c 256,16,17
 347 425 347 425 251 425 c 256,18,19
 155 425 155 425 155 213 c 0,20,21
 155 0 155 0 115 0 c 256,22,23
 75 0 75 0 75 265 c 2,24,-1
 75 616 l 1,25,-1
 166 700 l 1,26,-1
 268 700 l 2,27,28
 291 700 291 700 291 660 c 256,29,30
 291 620 291 620 268 620 c 0,31,32
 257 620 257 620 228.5 620.5 c 128,-1,33
 200 621 200 621 155 622 c 1,34,-1
 155 515 l 2,35,36
 155 500 155 500 296 500 c 256,37,38
 437 500 437 500 437 464 c 0,39,40
 437 426 437 426 376 316 c 0,41,42
 315 204 315 204 394 199 c 1,0,-1
EndSplineSet
EndChar

StartChar: t
Encoding: 116 116 266
Width: 550
GlyphClass: 2
Flags: W
LayerCount: 2
Fore
SplineSet
230.176757812 89.9306640625 m 1,0,-1
 230.231445312 89.9306640625 l 1,1,2
 225.349609375 228.06640625 225.349609375 228.06640625 225.111328125 247.241210938 c 0,3,4
 224.892578125 270.41015625 224.892578125 270.41015625 224.892578125 281.502929688 c 0,5,6
 224.892578125 309.796875 224.892578125 309.796875 226.254882812 395.673828125 c 0,7,8
 226.33984375 401.981445312 226.33984375 401.981445312 221.025390625 405.315429688 c 0,9,10
 218.360351562 406.94921875 218.360351562 406.94921875 215.250976562 406.94921875 c 2,11,-1
 214.543945312 406.94921875 l 2,12,13
 213.244140625 407.057617188 213.244140625 407.057617188 212.583007812 407.057617188 c 2,14,-1
 204.84765625 407.057617188 l 2,15,16
 48.626953125 409.309570312 48.626953125 409.309570312 48.626953125 448.291992188 c 0,17,18
 48.626953125 461.162109375 48.626953125 461.162109375 88.150390625 468.3125 c 128,-1,19
 127.673828125 475.462890625 127.673828125 475.462890625 217.267578125 480.919921875 c 0,20,21
 222.28515625 481.254882812 222.28515625 481.254882812 225.219726562 485.16796875 c 0,22,23
 227.509765625 487.967773438 227.509765625 487.967773438 227.670898438 491.595703125 c 0,24,25
 227.749023438 493.263671875 227.749023438 493.263671875 227.885742188 496.702148438 c 128,-1,26
 228.022460938 500.139648438 228.022460938 500.139648438 228.107421875 501.890625 c 0,27,28
 235.559570312 662.508789062 235.559570312 662.508789062 257.465820312 693.08203125 c 0,29,30
 263.407226562 699.270507812 263.407226562 699.270507812 270.5390625 700 c 0,31,32
 277.620117188 699.267578125 277.620117188 699.267578125 283.557617188 693.08203125 c 0,33,34
 305.46484375 662.508789062 305.46484375 662.508789062 312.916992188 501.890625 c 0,35,36
 313.001953125 500.139648438 313.001953125 500.139648438 313.138671875 496.702148438 c 128,-1,37
 313.275390625 493.263671875 313.275390625 493.263671875 313.353515625 491.595703125 c 0,38,39
 313.513671875 487.967773438 313.513671875 487.967773438 315.803710938 485.16796875 c 0,40,41
 318.740234375 481.254882812 318.740234375 481.254882812 323.756835938 480.919921875 c 0,42,43
 413.349609375 475.462890625 413.349609375 475.462890625 452.874023438 468.3125 c 128,-1,44
 492.397460938 461.162109375 492.397460938 461.162109375 492.397460938 448.291992188 c 0,45,46
 492.397460938 409.309570312 492.397460938 409.309570312 336.122070312 407.057617188 c 2,47,-1
 328.44140625 407.057617188 l 2,48,49
 327.779296875 407.057617188 327.779296875 407.057617188 326.48046875 406.94921875 c 0,50,51
 323.208984375 406.64453125 323.208984375 406.64453125 320.107421875 405.315429688 c 0,52,53
 312.528320312 402.104492188 312.528320312 402.104492188 312.100585938 396.109375 c 2,54,-1
 312.100585938 167.060546875 l 2,55,56
 312.100585938 162.001953125 312.100585938 162.001953125 312.345703125 152.701171875 c 128,-1,57
 312.590820312 143.400390625 312.590820312 143.400390625 312.590820312 138.30078125 c 2,58,-1
 312.590820312 121.197265625 l 2,59,60
 313 93.0498046875 313 93.0498046875 319.290039062 86.1181640625 c 0,61,62
 320.849609375 84.39453125 320.849609375 84.39453125 322.831054688 83.2861328125 c 0,63,64
 329.647460938 79.17578125 329.647460938 79.17578125 366.788085938 78.6552734375 c 0,65,66
 404.549804688 77.263671875 404.549804688 77.263671875 421.368164062 75.1689453125 c 0,67,68
 459.622070312 70.4580078125 459.622070312 70.4580078125 481.28515625 63.62109375 c 0,69,70
 506.7734375 55.615234375 506.7734375 55.615234375 508.412109375 44.8837890625 c 0,71,72
 508.520507812 44.5029296875 508.520507812 44.5029296875 508.520507812 43.685546875 c 0,73,74
 508.520507812 42.2412109375 508.520507812 42.2412109375 508.357421875 41.0166015625 c 0,75,76
 508.030273438 39.2734375 508.030273438 39.2734375 507.8125 38.4013671875 c 0,77,78
 507.206054688 36.5810546875 507.206054688 36.5810546875 506.88671875 35.896484375 c 0,79,80
 505.299804688 31.7705078125 505.299804688 31.7705078125 501.276367188 27.998046875 c 0,81,82
 488.046875 15.33984375 488.046875 15.33984375 450.509765625 8.388671875 c 0,83,84
 414.1796875 0 414.1796875 0 366.625 0 c 0,85,86
 358.6328125 0 358.6328125 0 352.08203125 0.3818359375 c 0,87,88
 302.151367188 2.9072265625 302.151367188 2.9072265625 270.430664062 22.7685546875 c 0,89,90
 259.16796875 29.8466796875 259.16796875 29.8466796875 250.875976562 38.6748046875 c 0,91,92
 239.77734375 50.3388671875 239.77734375 50.3388671875 234.31640625 65.9638671875 c 0,93,94
 230.62890625 76.3623046875 230.62890625 76.3623046875 230.176757812 89.9306640625 c 1,0,-1
EndSplineSet
EndChar

StartChar: tbar
Encoding: 359 359 267
Width: 550
GlyphClass: 2
Flags: W
AnchorPoint: "Anchor-1" 326 0 basechar 0
AnchorPoint: "Anchor-0" 275 500 basechar 0
LayerCount: 2
Fore
SplineSet
419 75 m 0,0,1
 472 75 472 75 472 38 c 0,2,3
 472 0 472 0 419 0 c 2,4,-1
 286 0 l 1,5,-1
 195 84 l 1,6,-1
 195 234 l 1,7,8
 100 240 100 240 100 270 c 256,9,10
 100 300 100 300 195 306 c 1,11,12
 194 425 194 425 132 425 c 0,13,14
 68 425 68 425 68 463 c 0,15,16
 68 500 68 500 132 500 c 0,17,18
 195 500 195 500 195 565 c 256,19,20
 195 630 195 630 235 630 c 256,21,22
 275 630 275 630 275 565 c 256,23,24
 275 500 275 500 374 500 c 0,25,26
 472 500 472 500 472 463 c 0,27,28
 472 425 472 425 374 425 c 0,29,30
 278 425 278 425 275 307 c 1,31,32
 390 303 390 303 390 270 c 256,33,34
 390 237 390 237 275 233 c 1,35,-1
 275 117 l 1,36,-1
 323 74 l 1,37,38
 344 75 344 75 368 75 c 128,-1,39
 392 75 392 75 419 75 c 0,0,1
EndSplineSet
EndChar

StartChar: uni0163
Encoding: 355 355 269
Width: 550
GlyphClass: 2
Flags: W
AnchorPoint: "Anchor-1" 417 -240 basechar 0
AnchorPoint: "Anchor-0" 275 500 basechar 0
LayerCount: 2
Fore
SplineSet
419 75 m 0,0,1
 472 75 472 75 472 38 c 0,2,3
 472 0 472 0 419 0 c 2,4,-1
 337 0 l 1,5,6
 351 -13 351 -13 364 -31 c 2,7,-1
 402 -86 l 1,8,-1
 402 -181 l 1,9,-1
 341 -240 l 1,10,-1
 237 -240 l 1,11,-1
 170 -178 l 1,12,13
 175 -133 175 -133 206 -133 c 256,14,15
 237 -133 237 -133 237 -148 c 1,16,-1
 261 -175 l 1,17,-1
 334 -175 l 1,18,-1
 334 -88 l 1,19,-1
 307 -54 l 2,20,21
 293 -36 293 -36 287.5 -21.5 c 128,-1,22
 282 -7 282 -7 283 3 c 1,23,-1
 195 84 l 1,24,-1
 195 298 l 2,25,26
 195 425 195 425 132 425 c 0,27,28
 68 425 68 425 68 463 c 0,29,30
 68 500 68 500 132 500 c 0,31,32
 195 500 195 500 195 565 c 256,33,34
 195 630 195 630 235 630 c 256,35,36
 275 630 275 630 275 565 c 256,37,38
 275 500 275 500 374 500 c 0,39,40
 472 500 472 500 472 463 c 0,41,42
 472 425 472 425 374 425 c 0,43,44
 275 425 275 425 275 298 c 2,45,-1
 275 117 l 1,46,-1
 323 74 l 1,47,48
 344 75 344 75 368 75 c 128,-1,49
 392 75 392 75 419 75 c 0,0,1
EndSplineSet
Substitution2: "'ss03' Style Set 3 in Latin lookup 27 subtable" uni0163.ss03
Substitution2: "'locl' Localized Forms in Latin lookup 5 subtable" uni021B
AlternateSubs2: "'aalt' Access All Alternates in Latin lookup 1 subtable" uni021B uni0163.ss03
EndChar

StartChar: u
Encoding: 117 117 271
Width: 550
GlyphClass: 2
Flags: W
AnchorPoint: "Anchor-2" 495 10 basechar 0
AnchorPoint: "Anchor-1" 275 0 basechar 0
AnchorPoint: "Anchor-0" 275 500 basechar 0
LayerCount: 2
Fore
SplineSet
447 500 m 256,0,1
 487 500 487 500 487 250 c 256,2,3
 487 0 487 0 447 0 c 256,4,5
 407 0 407 0 407 76 c 0,6,7
 407 153 407 153 389 88 c 1,8,-1
 304 -10 l 1,9,-1
 188 -10 l 1,10,-1
 114 23 l 1,11,-1
 63 103 l 1,12,-1
 63 334 l 2,13,14
 63 500 63 500 103 500 c 256,15,16
 143 500 143 500 143 344 c 2,17,-1
 143 70 l 1,18,-1
 322 70 l 1,19,-1
 393 156 l 1,20,21
 407 210 407 210 407 354 c 0,22,23
 407 500 407 500 447 500 c 256,0,1
EndSplineSet
EndChar

StartChar: uogonek
Encoding: 371 371 278
Width: 550
GlyphClass: 2
Flags: W
AnchorPoint: "Anchor-2" 495 10 basechar 0
AnchorPoint: "Anchor-1" 275 0 basechar 0
AnchorPoint: "Anchor-0" 275 500 basechar 0
LayerCount: 2
Fore
SplineSet
535 -123 m 0,0,1
 567 -123 567 -123 571 -168 c 1,2,-1
 504 -230 l 1,3,-1
 400 -230 l 1,4,-1
 339 -171 l 1,5,-1
 339 -76 l 1,6,-1
 377 -21 l 2,7,8
 387 -7 387 -7 396.5 4.5 c 128,-1,9
 406 16 406 16 414 25 c 1,10,11
 407 42 407 42 407 76 c 0,12,13
 407 153 407 153 389 88 c 1,14,-1
 304 -10 l 1,15,-1
 188 -10 l 1,16,-1
 114 23 l 1,17,-1
 63 103 l 1,18,-1
 63 334 l 2,19,20
 63 500 63 500 103 500 c 256,21,22
 143 500 143 500 143 344 c 2,23,-1
 143 70 l 1,24,-1
 322 70 l 1,25,-1
 393 156 l 1,26,27
 407 210 407 210 407 354 c 0,28,29
 407 500 407 500 447 500 c 256,30,31
 487 500 487 500 487 250 c 0,32,33
 487 177 487 177 484 125.5 c 128,-1,34
 481 74 481 74 474 44 c 1,35,36
 477 33 477 33 468 10 c 128,-1,37
 459 -13 459 -13 434 -44 c 2,38,-1
 407 -78 l 1,39,-1
 407 -165 l 1,40,-1
 480 -165 l 1,41,-1
 504 -138 l 1,42,43
 504 -123 504 -123 535 -123 c 0,0,1
EndSplineSet
Substitution2: "'ss03' Style Set 3 in Latin lookup 27 subtable" uogonek.ss03
Substitution2: "'aalt' Access All Alternates in Latin lookup 0 subtable" uogonek.ss03
EndChar

StartChar: v
Encoding: 118 118 280
Width: 550
GlyphClass: 2
Flags: W
AnchorPoint: "Anchor-1" 275 0 basechar 0
AnchorPoint: "Anchor-0" 275 500 basechar 0
LayerCount: 2
Fore
SplineSet
469 500 m 0,0,1
 481 500 481 500 479 473 c 128,-1,2
 477 446 477 446 464.5 401.5 c 128,-1,3
 452 357 452 357 432.5 303.5 c 128,-1,4
 413 250 413 250 390.5 196.5 c 128,-1,5
 368 143 368 143 345.5 98.5 c 128,-1,6
 323 54 323 54 304.5 27 c 128,-1,7
 286 0 286 0 275 0 c 256,8,9
 264 0 264 0 245.5 27 c 128,-1,10
 227 54 227 54 204.5 98.5 c 128,-1,11
 182 143 182 143 159.5 196.5 c 128,-1,12
 137 250 137 250 117.5 303.5 c 128,-1,13
 98 357 98 357 86 401.5 c 128,-1,14
 74 446 74 446 72 473 c 128,-1,15
 70 500 70 500 82 500 c 0,16,17
 125 500 125 500 200 299 c 0,18,19
 274 98 274 98 350 299 c 0,20,21
 425 500 425 500 469 500 c 0,0,1
EndSplineSet
EndChar

StartChar: w
Encoding: 119 119 281
Width: 550
GlyphClass: 2
Flags: W
AnchorPoint: "Anchor-1" 275 0 basechar 0
AnchorPoint: "Anchor-0" 275 500 basechar 0
LayerCount: 2
Fore
SplineSet
469 500 m 0,0,1
 481 500 481 500 484.5 473 c 128,-1,2
 488 446 488 446 484.5 401.5 c 128,-1,3
 481 357 481 357 472 303.5 c 128,-1,4
 463 250 463 250 451 196.5 c 128,-1,5
 439 143 439 143 425.5 98.5 c 128,-1,6
 412 54 412 54 399 27 c 128,-1,7
 386 0 386 0 376 0 c 0,8,9
 340 0 340 0 305 177 c 0,10,11
 288 266 288 266 270 266 c 128,-1,12
 252 266 252 266 235 177 c 0,13,14
 201 0 201 0 164 0 c 0,15,16
 154 0 154 0 141.5 27 c 128,-1,17
 129 54 129 54 116.5 98.5 c 128,-1,18
 104 143 104 143 93 196.5 c 128,-1,19
 82 250 82 250 74.5 303.5 c 128,-1,20
 67 357 67 357 64.5 401.5 c 128,-1,21
 62 446 62 446 66 473 c 128,-1,22
 70 500 70 500 82 500 c 0,23,24
 126 500 126 500 151 322 c 0,25,26
 177 144 177 144 205 322 c 0,27,28
 232 500 232 500 271 500 c 0,29,30
 309 500 309 500 336 318 c 0,31,32
 349 227 349 227 363.5 227 c 128,-1,33
 378 227 378 227 394 318 c 0,34,35
 426 500 426 500 469 500 c 0,0,1
EndSplineSet
EndChar

StartChar: x
Encoding: 120 120 286
Width: 550
GlyphClass: 2
Flags: W
AnchorPoint: "Anchor-1" 275 0 basechar 0
AnchorPoint: "Anchor-0" 275 500 basechar 0
LayerCount: 2
Fore
SplineSet
462 0 m 256,0,1
 413 0 413 0 344 95 c 0,2,3
 274 190 274 190 206 95 c 0,4,5
 137 0 137 0 89 0 c 0,6,7
 40 0 40 0 134 127 c 0,8,9
 227 253 227 253 134 377 c 0,10,11
 40 500 40 500 89 500 c 0,12,13
 137 500 137 500 206 410 c 256,14,15
 275 320 275 320 339 410 c 0,16,17
 404 500 404 500 452 500 c 0,18,19
 499 500 499 500 411 379 c 0,20,21
 322 256 322 256 416 129 c 0,22,23
 511 0 511 0 462 0 c 256,0,1
EndSplineSet
EndChar

StartChar: y
Encoding: 121 121 287
Width: 550
GlyphClass: 2
Flags: W
AnchorPoint: "Anchor-1" 275 0 basechar 0
AnchorPoint: "Anchor-0" 275 500 basechar 0
LayerCount: 2
Fore
SplineSet
470 500 m 0,0,1
 481 500 481 500 476.5 470.5 c 128,-1,2
 472 441 472 441 457 391 c 128,-1,3
 442 341 442 341 419.5 278.5 c 128,-1,4
 397 216 397 216 370 150 c 128,-1,5
 343 84 343 84 315 21.5 c 128,-1,6
 287 -41 287 -41 261.5 -91 c 128,-1,7
 236 -141 236 -141 216.5 -170.5 c 128,-1,8
 197 -200 197 -200 186 -200 c 0,9,10
 144 -200 144 -200 189 -96 c 0,11,12
 234 6 234 6 136 254 c 0,13,14
 39 500 39 500 81 500 c 256,15,16
 123 500 123 500 199 302 c 0,17,18
 275 105 275 105 351 302 c 0,19,20
 428 500 428 500 470 500 c 0,0,1
EndSplineSet
EndChar

StartChar: z
Encoding: 122 122 292
Width: 550
GlyphClass: 2
Flags: W
AnchorPoint: "Anchor-1" 275 0 basechar 0
AnchorPoint: "Anchor-0" 275 500 basechar 0
LayerCount: 2
Fore
SplineSet
326 75 m 0,0,1
 479 75 479 75 479 38 c 0,2,3
 479 0 479 0 275 0 c 256,4,5
 71 0 71 0 71 38 c 0,6,7
 71 75 71 75 225 250 c 256,8,9
 379 425 379 425 225 425 c 256,10,11
 71 425 71 425 71 463 c 0,12,13
 71 500 71 500 274 500 c 0,14,15
 476 500 476 500 476 463 c 0,16,17
 476 425 476 425 325 250 c 256,18,19
 174 75 174 75 326 75 c 0,0,1
EndSplineSet
EndChar

StartChar: ordfeminine
Encoding: 170 170 360
Width: 550
GlyphClass: 1
Flags: W
LayerCount: 2
Fore
SplineSet
446 700 m 256,0,1
 486 700 486 700 486 505 c 256,2,3
 486 310 486 310 450 310 c 256,4,5
 414 310 414 310 412 321 c 2,6,-1
 406 386 l 1,7,-1
 406 419 l 2,8,9
 406 440 406 440 389 381 c 1,10,-1
 312 300 l 1,11,-1
 195 300 l 1,12,-1
 110 353 l 1,13,-1
 63 444 l 1,14,-1
 63 559 l 1,15,-1
 111 655 l 1,16,-1
 200 710 l 1,17,-1
 320 710 l 1,18,-1
 392 644 l 1,19,20
 399 616 399 616 402.5 616 c 128,-1,21
 406 616 406 616 406 644 c 0,22,23
 406 700 406 700 446 700 c 256,0,1
312 377 m 1,24,-1
 374 412 l 1,25,-1
 406 468 l 1,26,-1
 406 560 l 1,27,-1
 334 632 l 1,28,-1
 204 632 l 1,29,-1
 143 561 l 1,30,-1
 143 446 l 1,31,-1
 210 377 l 1,32,-1
 312 377 l 1,24,-1
EndSplineSet
EndChar

StartChar: ordmasculine
Encoding: 186 186 361
Width: 550
GlyphClass: 1
Flags: W
LayerCount: 2
Fore
SplineSet
213 290 m 1,0,-1
 115 344 l 1,1,-1
 61 439 l 1,2,-1
 61 559 l 1,3,-1
 115 655 l 1,4,-1
 213 710 l 1,5,-1
 339 710 l 1,6,-1
 436 655 l 1,7,-1
 489 559 l 1,8,-1
 489 439 l 1,9,-1
 436 344 l 1,10,-1
 339 290 l 1,11,-1
 213 290 l 1,0,-1
336 364 m 1,12,-1
 410 439 l 1,13,-1
 410 559 l 1,14,-1
 337 636 l 1,15,-1
 215 636 l 1,16,-1
 140 559 l 1,17,-1
 140 439 l 1,18,-1
 214 364 l 1,19,-1
 336 364 l 1,12,-1
EndSplineSet
EndChar

StartChar: uni0394
Encoding: 916 916 362
Width: 550
GlyphClass: 1
Flags: W
LayerCount: 2
Fore
SplineSet
393 350 m 0,0,1
 510 0 510 0 275 0 c 0,2,3
 223 0 223 0 191.5 26.5 c 128,-1,4
 160 53 160 53 145.5 97.5 c 128,-1,5
 131 142 131 142 131.5 194.5 c 128,-1,6
 132 247 132 247 144 299.5 c 128,-1,7
 156 352 156 352 176.5 396 c 128,-1,8
 197 440 197 440 223.5 467 c 128,-1,9
 250 494 250 494 279 494.5 c 128,-1,10
 308 495 308 495 337.5 461.5 c 128,-1,11
 367 428 367 428 393 350 c 0,0,1
216 282 m 0,12,13
 156 80 156 80 275 80 c 0,14,15
 393 80 393 80 335 282 c 0,16,17
 275 485 275 485 216 282 c 0,12,13
EndSplineSet
EndChar

StartChar: uni03A9
Encoding: 937 937 363
Width: 550
GlyphClass: 2
Flags: W
AnchorPoint: "Anchor-1" 275 0 basechar 0
LayerCount: 2
Fore
SplineSet
384 89 m 2,0,1
 384 74 384 74 447 77 c 256,2,3
 510 80 510 80 510 40 c 256,4,5
 510 0 510 0 412 0 c 256,6,7
 314 0 314 0 314 65 c 256,8,9
 314 130 314 130 372 172 c 1,10,-1
 440 278 l 1,11,-1
 440 459 l 1,12,-1
 356 580 l 1,13,-1
 194 580 l 1,14,-1
 110 460 l 1,15,-1
 110 274 l 1,16,-1
 178 165 l 1,17,18
 240 130 240 130 240 65 c 256,19,20
 240 0 240 0 140 0 c 256,21,22
 40 0 40 0 40 40 c 256,23,24
 40 80 40 80 105 77 c 256,25,26
 170 74 170 74 170 89 c 0,27,28
 170 102 170 102 102 152 c 1,29,-1
 30 269 l 1,30,-1
 30 444 l 1,31,-1
 87 579 l 1,32,-1
 198 660 l 1,33,-1
 352 660 l 1,34,-1
 463 579 l 1,35,-1
 520 443 l 1,36,-1
 520 269 l 1,37,-1
 445 146 l 1,38,39
 384 103 384 103 384 103 c 1,40,-1
 384 89 l 2,0,1
EndSplineSet
EndChar

StartChar: pi
Encoding: 960 960 365
Width: 550
GlyphClass: 1
Flags: W
LayerCount: 2
Fore
SplineSet
465 425 m 256,0,1
 420 425 420 425 420 297 c 2,2,-1
 420 127 l 1,3,-1
 439 84 l 1,4,-1
 476 70 l 1,5,6
 509 70 509 70 509 30 c 256,7,8
 509 -10 509 -10 425 -10 c 1,9,-1
 340 84 l 1,10,-1
 340 297 l 2,11,12
 340 425 340 425 275 425 c 256,13,14
 210 425 210 425 210 213 c 0,15,16
 210 0 210 0 170 0 c 256,17,18
 130 0 130 0 130 213 c 0,19,20
 130 425 130 425 85 425 c 256,21,22
 40 425 40 425 40 463 c 0,23,24
 40 500 40 500 275 500 c 256,25,26
 510 500 510 500 510 463 c 0,27,28
 510 425 510 425 465 425 c 256,0,1
EndSplineSet
EndChar

StartChar: two.lf
Encoding: 65668 -1 378
Width: 550
GlyphClass: 1
Flags: W
LayerCount: 2
Fore
SplineSet
321 75 m 256,0,1
 465 75 465 75 465 38 c 0,2,3
 465 0 465 0 275 0 c 256,4,5
 85 0 85 0 85 38 c 2,6,-1
 85 75 l 1,7,8
 85 75 85 75 89.5 80.5 c 128,-1,9
 94 86 94 86 103 96 c 1,10,11
 102 95 102 95 136.5 136.5 c 128,-1,12
 171 178 171 178 239 260 c 2,13,-1
 333 380 l 1,14,-1
 368 448 l 1,15,-1
 368 529 l 1,16,-1
 311 585 l 1,17,-1
 221 585 l 1,18,-1
 157 528 l 1,19,20
 157 484 157 484 122 484 c 0,21,22
 99 484 99 484 91.5 486.5 c 128,-1,23
 84 489 84 489 85 501.5 c 128,-1,24
 86 514 86 514 86 544 c 1,25,-1
 135 618 l 1,26,-1
 218 660 l 1,27,-1
 321 660 l 1,28,-1
 403 614 l 1,29,-1
 448 534 l 1,30,-1
 448 442 l 1,31,-1
 402 348 l 1,32,-1
 338 265 l 2,33,34
 311 233 311 233 291.5 210.5 c 128,-1,35
 272 188 272 188 260 174 c 1,36,37
 261 175 261 175 250.5 162.5 c 128,-1,38
 240 150 240 150 219 125 c 0,39,40
 177 75 177 75 321 75 c 256,0,1
EndSplineSet
Substitution2: "'onum' Oldstyle Figures in Latin lookup 22 subtable" two.osf
Substitution2: "'tnum' Tabular Numbers in Latin lookup 21 subtable" two
AlternateSubs2: "'aalt' Access All Alternates in Latin lookup 1 subtable" two two.osf
EndChar

StartChar: three.lf
Encoding: 65669 -1 379
Width: 550
GlyphClass: 1
Flags: W
LayerCount: 2
Fore
SplineSet
418 322 m 1,0,-1
 418 127 l 1,1,-1
 369 40 l 1,2,-1
 282 -10 l 1,3,-1
 174 -10 l 1,4,-1
 88 36 l 1,5,-1
 37 115 l 1,6,7
 37 147 37 147 36 160 c 128,-1,8
 35 173 35 173 42.5 175.5 c 128,-1,9
 50 178 50 178 73 178 c 0,10,11
 108 178 108 178 108 130 c 1,12,-1
 176 65 l 1,13,-1
 277 65 l 1,14,-1
 338 128 l 1,15,-1
 338 235 l 1,16,-1
 270 301 l 1,17,-1
 185 301 l 2,18,19
 156 301 156 301 156 338 c 0,20,21
 156 374 156 374 185 374 c 2,22,-1
 269 374 l 1,23,-1
 329 433 l 1,24,-1
 329 529 l 1,25,-1
 269 585 l 1,26,-1
 178 585 l 1,27,-1
 117 528 l 1,28,29
 117 484 117 484 82 484 c 0,30,31
 58 484 58 484 51 487 c 128,-1,32
 44 490 44 490 45 502.5 c 128,-1,33
 46 515 46 515 46 545 c 1,34,-1
 94 618 l 1,35,-1
 175 660 l 1,36,-1
 278 660 l 1,37,-1
 362 614 l 1,38,-1
 409 533 l 1,39,-1
 409 414 l 1,40,-1
 337 349 l 1,41,42
 270 342 270 342 418 322 c 1,0,-1
EndSplineSet
Substitution2: "'onum' Oldstyle Figures in Latin lookup 22 subtable" three.osf
Substitution2: "'tnum' Tabular Numbers in Latin lookup 21 subtable" three
AlternateSubs2: "'aalt' Access All Alternates in Latin lookup 1 subtable" three three.osf
EndChar

StartChar: four.lf
Encoding: 65670 -1 380
Width: 550
GlyphClass: 1
Flags: W
LayerCount: 2
Fore
SplineSet
492 183 m 0,0,1
 492 145 492 145 446 145 c 256,2,3
 400 145 400 145 400 73 c 0,4,5
 400 0 400 0 360 0 c 256,6,7
 320 0 320 0 320 73 c 0,8,9
 320 145 320 145 183 145 c 0,10,11
 45 145 45 145 45 183 c 0,12,13
 45 194 45 194 59.5 224.5 c 128,-1,14
 74 255 74 255 98 297.5 c 128,-1,15
 122 340 122 340 152 388 c 128,-1,16
 182 436 182 436 213.5 482 c 128,-1,17
 245 528 245 528 274.5 566 c 128,-1,18
 304 604 304 604 326.5 627 c 128,-1,19
 349 650 349 650 360 650 c 0,20,21
 400 650 400 650 400 435 c 256,22,23
 400 220 400 220 446 220 c 256,24,25
 492 220 492 220 492 183 c 0,0,1
227 220 m 0,26,27
 320 220 320 220 320 368 c 0,28,29
 320 410 320 410 308.5 422 c 128,-1,30
 297 434 297 434 280 424.5 c 128,-1,31
 263 415 263 415 244.5 392 c 128,-1,32
 226 369 226 369 211 340 c 128,-1,33
 196 311 196 311 190.5 283.5 c 128,-1,34
 185 256 185 256 192.5 238 c 128,-1,35
 200 220 200 220 227 220 c 0,26,27
EndSplineSet
Substitution2: "'onum' Oldstyle Figures in Latin lookup 22 subtable" four.osf
Substitution2: "'tnum' Tabular Numbers in Latin lookup 21 subtable" four
AlternateSubs2: "'aalt' Access All Alternates in Latin lookup 1 subtable" four four.osf
EndChar

StartChar: five.lf
Encoding: 65671 -1 381
Width: 550
GlyphClass: 1
Flags: W
LayerCount: 2
Fore
SplineSet
347 420 m 1,0,-1
 437 367 l 1,1,-1
 489 268 l 1,2,-1
 489 140 l 1,3,-1
 432 42 l 1,4,-1
 336 -10 l 1,5,-1
 222 -10 l 1,6,-1
 124 38 l 1,7,-1
 64 127 l 1,8,9
 60 187 60 187 100 187 c 256,10,11
 140 187 140 187 146 131 c 1,12,-1
 223 68 l 1,13,-1
 314 68 l 1,14,-1
 373 100 l 1,15,-1
 410 162 l 1,16,-1
 410 246 l 1,17,-1
 375 309 l 1,18,-1
 318 342 l 1,19,-1
 189 342 l 1,20,21
 153 260 153 260 116 267 c 0,22,23
 104 270 104 270 95 298.5 c 128,-1,24
 86 327 86 327 84 370.5 c 128,-1,25
 82 414 82 414 89.5 462.5 c 128,-1,26
 97 511 97 511 117 553.5 c 128,-1,27
 137 596 137 596 173 623 c 128,-1,28
 209 650 209 650 264 650 c 0,29,30
 428 650 428 650 428 613 c 0,31,32
 428 575 428 575 302 575 c 256,33,34
 176 575 176 575 168 453 c 0,35,36
 164 392 164 392 167 372.5 c 128,-1,37
 170 353 170 353 178 375 c 1,38,-1
 249 420 l 1,39,-1
 347 420 l 1,0,-1
EndSplineSet
Substitution2: "'onum' Oldstyle Figures in Latin lookup 22 subtable" five.osf
Substitution2: "'tnum' Tabular Numbers in Latin lookup 21 subtable" five
AlternateSubs2: "'aalt' Access All Alternates in Latin lookup 1 subtable" five five.osf
EndChar

StartChar: six.lf
Encoding: 65672 -1 382
Width: 550
GlyphClass: 1
Flags: W
LayerCount: 2
Fore
SplineSet
309 420 m 1,0,-1
 398 368 l 1,1,-1
 451 272 l 1,2,-1
 451 143 l 1,3,-1
 393 43 l 1,4,-1
 294 -10 l 1,5,-1
 177 -10 l 1,6,-1
 81 41 l 1,7,-1
 25 135 l 1,8,-1
 25 249 l 1,9,10
 37 280 37 280 44.5 300 c 128,-1,11
 52 320 52 320 56 329 c 2,12,-1
 185 601 l 2,13,14
 207 650 207 650 251 650 c 256,15,16
 295 650 295 650 224 510 c 0,17,18
 153 369 153 369 199 420 c 1,19,-1
 309 420 l 1,0,-1
371 270 m 1,20,-1
 297 343 l 1,21,-1
 180 343 l 1,22,-1
 105 261 l 1,23,-1
 105 138 l 1,24,-1
 180 67 l 1,25,-1
 292 67 l 1,26,-1
 371 143 l 1,27,-1
 371 270 l 1,20,-1
EndSplineSet
Substitution2: "'onum' Oldstyle Figures in Latin lookup 22 subtable" six.osf
Substitution2: "'tnum' Tabular Numbers in Latin lookup 21 subtable" six
AlternateSubs2: "'aalt' Access All Alternates in Latin lookup 1 subtable" six six.osf
EndChar

StartChar: seven.lf
Encoding: 65673 -1 383
Width: 550
GlyphClass: 1
Flags: W
LayerCount: 2
Fore
SplineSet
206 650 m 0,0,1
 391 650 391 650 391 613 c 0,2,3
 391 602 391 602 379.5 564 c 128,-1,4
 368 526 368 526 348 470 c 128,-1,5
 328 414 328 414 303.5 350.5 c 128,-1,6
 279 287 279 287 252.5 225 c 128,-1,7
 226 163 226 163 201.5 112 c 128,-1,8
 177 61 177 61 157.5 30.5 c 128,-1,9
 138 0 138 0 127 0 c 0,10,11
 87 0 87 0 199 288 c 0,12,13
 310 575 310 575 165 575 c 256,14,15
 20 575 20 575 20 613 c 0,16,17
 20 650 20 650 206 650 c 0,0,1
EndSplineSet
Substitution2: "'onum' Oldstyle Figures in Latin lookup 22 subtable" seven.osf
Substitution2: "'tnum' Tabular Numbers in Latin lookup 21 subtable" seven
AlternateSubs2: "'aalt' Access All Alternates in Latin lookup 1 subtable" seven seven.osf
EndChar

StartChar: eight.lf
Encoding: 65674 -1 384
Width: 550
GlyphClass: 1
Flags: W
LayerCount: 2
Fore
SplineSet
375 323 m 1,0,-1
 437 239 l 1,1,-1
 437 126 l 1,2,-1
 388 40 l 1,3,-1
 297 -10 l 1,4,-1
 178 -10 l 1,5,-1
 87 40 l 1,6,-1
 37 126 l 1,7,-1
 37 239 l 1,8,-1
 100 323 l 1,9,10
 151 342 151 342 106 358 c 1,11,-1
 51 429 l 1,12,-1
 51 533 l 1,13,-1
 98 614 l 1,14,-1
 182 660 l 1,15,-1
 292 660 l 1,16,-1
 377 614 l 1,17,-1
 423 533 l 1,18,-1
 423 428 l 1,19,-1
 369 358 l 1,20,21
 324 342 324 342 375 323 c 1,0,-1
193 585 m 1,22,-1
 131 528 l 1,23,-1
 131 439 l 1,24,-1
 193 379 l 1,25,-1
 282 379 l 1,26,-1
 343 439 l 1,27,-1
 343 528 l 1,28,-1
 282 585 l 1,29,-1
 193 585 l 1,22,-1
289 65 m 1,30,-1
 357 129 l 1,31,-1
 357 230 l 1,32,-1
 289 296 l 1,33,-1
 185 296 l 1,34,-1
 117 230 l 1,35,-1
 117 129 l 1,36,-1
 185 65 l 1,37,-1
 289 65 l 1,30,-1
EndSplineSet
Substitution2: "'onum' Oldstyle Figures in Latin lookup 22 subtable" eight.osf
Substitution2: "'tnum' Tabular Numbers in Latin lookup 21 subtable" eight
AlternateSubs2: "'aalt' Access All Alternates in Latin lookup 1 subtable" eight eight.osf
EndChar

StartChar: nine.lf
Encoding: 65675 -1 385
Width: 550
GlyphClass: 1
Flags: W
LayerCount: 2
Fore
SplineSet
311 660 m 1,0,-1
 407 609 l 1,1,-1
 463 515 l 1,2,-1
 463 401 l 1,3,4
 451 370 451 370 443.5 350 c 128,-1,5
 436 330 436 330 432 322 c 2,6,-1
 303 49 l 2,7,8
 281 0 281 0 237 0 c 256,9,10
 193 0 193 0 264 140 c 0,11,12
 335 281 335 281 289 230 c 1,13,-1
 181 230 l 1,14,-1
 91 283 l 1,15,-1
 37 379 l 1,16,-1
 37 508 l 1,17,-1
 95 607 l 1,18,-1
 194 660 l 1,19,-1
 311 660 l 1,0,-1
308 307 m 1,20,-1
 383 389 l 1,21,-1
 383 512 l 1,22,-1
 308 583 l 1,23,-1
 196 583 l 1,24,-1
 117 507 l 1,25,-1
 117 380 l 1,26,-1
 191 307 l 1,27,-1
 308 307 l 1,20,-1
EndSplineSet
Substitution2: "'onum' Oldstyle Figures in Latin lookup 22 subtable" nine.osf
Substitution2: "'tnum' Tabular Numbers in Latin lookup 21 subtable" nine
AlternateSubs2: "'aalt' Access All Alternates in Latin lookup 1 subtable" nine nine.osf
EndChar

StartChar: zero.osf
Encoding: 65676 -1 386
Width: 550
GlyphClass: 1
Flags: W
LayerCount: 2
Fore
SplineSet
217 -10 m 1,0,-1
 104 53 l 1,1,-1
 37 171 l 1,2,-1
 37 326 l 1,3,-1
 105 445 l 1,4,-1
 217 510 l 1,5,-1
 347 510 l 1,6,-1
 458 445 l 1,7,-1
 525 326 l 1,8,-1
 525 171 l 1,9,-1
 458 53 l 1,10,-1
 347 -10 l 1,11,-1
 217 -10 l 1,0,-1
324 67 m 1,12,-1
 399 110 l 1,13,-1
 445 193 l 1,14,-1
 445 305 l 1,15,-1
 399 388 l 1,16,-1
 324 433 l 1,17,-1
 240 433 l 1,18,-1
 164 389 l 1,19,-1
 117 305 l 1,20,-1
 117 193 l 1,21,-1
 164 110 l 1,22,-1
 239 67 l 1,23,-1
 324 67 l 1,12,-1
EndSplineSet
Substitution2: "'case' Case-Sensitive Forms in Latin lookup 23 subtable" zero.lf
Substitution2: "'tnum' Tabular Numbers in Latin lookup 21 subtable" zero.tosf
Substitution2: "'lnum' Lining Figures in Latin lookup 19 subtable" zero.lf
AlternateSubs2: "'aalt' Access All Alternates in Latin lookup 1 subtable" zero.lf zero.tosf
EndChar

StartChar: one.osf
Encoding: 65677 -1 387
Width: 550
GlyphClass: 1
Flags: W
LayerCount: 2
Fore
SplineSet
398 75 m 0,0,1
 470 75 470 75 470 38 c 0,2,3
 470 0 470 0 275 0 c 256,4,5
 80 0 80 0 80 38 c 0,6,7
 80 75 80 75 163 75 c 0,8,9
 245 75 245 75 245 250 c 256,10,11
 245 425 245 425 168 425 c 0,12,13
 90 425 90 425 90 463 c 0,14,15
 90 500 90 500 208 500 c 0,16,17
 325 500 325 500 325 288 c 0,18,19
 325 75 325 75 398 75 c 0,0,1
EndSplineSet
Substitution2: "'case' Case-Sensitive Forms in Latin lookup 23 subtable" one.lf
Substitution2: "'tnum' Tabular Numbers in Latin lookup 21 subtable" one.tosf
Substitution2: "'lnum' Lining Figures in Latin lookup 19 subtable" one.lf
AlternateSubs2: "'aalt' Access All Alternates in Latin lookup 1 subtable" one.lf one.tosf
EndChar

StartChar: two.osf
Encoding: 65678 -1 388
Width: 550
GlyphClass: 1
Flags: W
LayerCount: 2
Fore
SplineSet
337 75 m 0,0,1
 465 75 465 75 465 38 c 0,2,3
 465 0 465 0 280 0 c 256,4,5
 95 0 95 0 95 38 c 2,6,-1
 95 75 l 1,7,8
 95 75 95 75 105 82.5 c 128,-1,9
 115 90 115 90 134 104 c 0,10,11
 175 132 175 132 210 156.5 c 128,-1,12
 245 181 245 181 276 202 c 2,13,-1
 334 250 l 1,14,-1
 368 304 l 1,15,-1
 368 381 l 1,16,-1
 310 435 l 1,17,-1
 220 435 l 1,18,-1
 157 378 l 1,19,20
 157 334 157 334 122 334 c 0,21,22
 99 334 99 334 91.5 337 c 128,-1,23
 84 340 84 340 85 352.5 c 128,-1,24
 86 365 86 365 86 395 c 1,25,-1
 135 468 l 1,26,-1
 217 510 l 1,27,-1
 322 510 l 1,28,-1
 405 465 l 1,29,-1
 448 389 l 1,30,-1
 448 289 l 1,31,-1
 381 201 l 1,32,33
 347 176 347 176 316.5 154 c 128,-1,34
 286 132 286 132 260 113 c 0,35,36
 207 75 207 75 337 75 c 0,0,1
EndSplineSet
Substitution2: "'case' Case-Sensitive Forms in Latin lookup 23 subtable" two.lf
Substitution2: "'tnum' Tabular Numbers in Latin lookup 21 subtable" two.tosf
Substitution2: "'lnum' Lining Figures in Latin lookup 19 subtable" two.lf
AlternateSubs2: "'aalt' Access All Alternates in Latin lookup 1 subtable" two.lf two.tosf
EndChar

StartChar: three.osf
Encoding: 65679 -1 389
Width: 550
GlyphClass: 1
Flags: W
LayerCount: 2
Fore
SplineSet
465 171 m 1,0,-1
 465 -24 l 1,1,-1
 417 -110 l 1,2,-1
 329 -160 l 1,3,-1
 221 -160 l 1,4,-1
 135 -114 l 1,5,-1
 84 -36 l 1,6,7
 84 -4 84 -4 83 9 c 128,-1,8
 82 22 82 22 89.5 24.5 c 128,-1,9
 97 27 97 27 120 27 c 0,10,11
 155 27 155 27 155 -21 c 1,12,-1
 223 -86 l 1,13,-1
 324 -86 l 1,14,-1
 385 -22 l 1,15,-1
 385 85 l 1,16,-1
 317 150 l 1,17,-1
 232 150 l 2,18,19
 203 150 203 150 203 187 c 256,20,21
 203 224 203 224 232 224 c 2,22,-1
 316 224 l 1,23,-1
 376 283 l 1,24,-1
 376 378 l 1,25,-1
 316 435 l 1,26,-1
 225 435 l 1,27,-1
 164 377 l 1,28,29
 164 333 164 333 129 333 c 0,30,31
 106 333 106 333 98.5 336 c 128,-1,32
 91 339 91 339 92 351.5 c 128,-1,33
 93 364 93 364 93 394 c 1,34,-1
 141 468 l 1,35,-1
 222 510 l 1,36,-1
 325 510 l 1,37,-1
 409 463 l 1,38,-1
 456 382 l 1,39,-1
 456 264 l 1,40,-1
 383 198 l 1,41,42
 316 191 316 191 465 171 c 1,0,-1
EndSplineSet
Substitution2: "'case' Case-Sensitive Forms in Latin lookup 23 subtable" three.lf
Substitution2: "'tnum' Tabular Numbers in Latin lookup 21 subtable" three.tosf
Substitution2: "'lnum' Lining Figures in Latin lookup 19 subtable" three.lf
AlternateSubs2: "'aalt' Access All Alternates in Latin lookup 1 subtable" three.lf three.tosf
EndChar

StartChar: four.osf
Encoding: 65680 -1 390
Width: 550
GlyphClass: 1
Flags: W
LayerCount: 2
Fore
SplineSet
498 38 m 0,0,1
 498 0 498 0 452 0 c 256,2,3
 406 0 406 0 406 -72 c 0,4,5
 406 -145 406 -145 366 -145 c 256,6,7
 326 -145 326 -145 326 -72 c 0,8,9
 326 0 326 0 189 0 c 0,10,11
 51 0 51 0 51 38 c 0,12,13
 51 49 51 49 65.5 79.5 c 128,-1,14
 80 110 80 110 104 152.5 c 128,-1,15
 128 195 128 195 158 243 c 128,-1,16
 188 291 188 291 219.5 337 c 128,-1,17
 251 383 251 383 280.5 421 c 128,-1,18
 310 459 310 459 332.5 482 c 128,-1,19
 355 505 355 505 366 505 c 0,20,21
 406 505 406 505 406 290 c 256,22,23
 406 75 406 75 452 75 c 256,24,25
 498 75 498 75 498 38 c 0,0,1
233 75 m 0,26,27
 326 75 326 75 326 223 c 0,28,29
 326 265 326 265 314.5 277 c 128,-1,30
 303 289 303 289 286 279.5 c 128,-1,31
 269 270 269 270 250.5 247 c 128,-1,32
 232 224 232 224 217 195 c 128,-1,33
 202 166 202 166 196.5 138.5 c 128,-1,34
 191 111 191 111 198.5 93 c 128,-1,35
 206 75 206 75 233 75 c 0,26,27
EndSplineSet
Substitution2: "'case' Case-Sensitive Forms in Latin lookup 23 subtable" four.lf
Substitution2: "'tnum' Tabular Numbers in Latin lookup 21 subtable" four.tosf
Substitution2: "'lnum' Lining Figures in Latin lookup 19 subtable" four.lf
AlternateSubs2: "'aalt' Access All Alternates in Latin lookup 1 subtable" four.lf four.tosf
EndChar

StartChar: five.osf
Encoding: 65681 -1 391
Width: 550
GlyphClass: 1
Flags: W
LayerCount: 2
Fore
SplineSet
350 270 m 1,0,-1
 439 217 l 1,1,-1
 489 119 l 1,2,-1
 489 -11 l 1,3,-1
 433 -108 l 1,4,-1
 337 -160 l 1,5,-1
 222 -160 l 1,6,-1
 124 -112 l 1,7,-1
 64 -23 l 1,8,9
 60 37 60 37 100 37 c 256,10,11
 140 37 140 37 146 -19 c 1,12,-1
 223 -82 l 1,13,-1
 335 -82 l 1,14,-1
 410 -9 l 1,15,-1
 410 118 l 1,16,-1
 340 192 l 1,17,-1
 189 192 l 1,18,19
 153 110 153 110 116 117 c 0,20,21
 104 120 104 120 95 148.5 c 128,-1,22
 86 177 86 177 84 220.5 c 128,-1,23
 82 264 82 264 89.5 312.5 c 128,-1,24
 97 361 97 361 117 403.5 c 128,-1,25
 137 446 137 446 173 473 c 128,-1,26
 209 500 209 500 264 500 c 0,27,28
 428 500 428 500 428 463 c 0,29,30
 428 425 428 425 302 425 c 256,31,32
 176 425 176 425 168 303 c 0,33,34
 164 242 164 242 167 223 c 128,-1,35
 170 204 170 204 178 226 c 1,36,-1
 249 270 l 1,37,-1
 350 270 l 1,0,-1
EndSplineSet
Substitution2: "'case' Case-Sensitive Forms in Latin lookup 23 subtable" five.lf
Substitution2: "'tnum' Tabular Numbers in Latin lookup 21 subtable" five.tosf
Substitution2: "'lnum' Lining Figures in Latin lookup 19 subtable" five.lf
AlternateSubs2: "'aalt' Access All Alternates in Latin lookup 1 subtable" five.lf five.tosf
EndChar

StartChar: six.osf
Encoding: 65682 -1 392
Width: 550
GlyphClass: 1
Flags: W
LayerCount: 2
Fore
SplineSet
346 420 m 1,0,-1
 435 368 l 1,1,-1
 488 272 l 1,2,-1
 488 143 l 1,3,-1
 430 43 l 1,4,-1
 331 -10 l 1,5,-1
 214 -10 l 1,6,-1
 118 41 l 1,7,-1
 62 135 l 1,8,-1
 62 249 l 1,9,10
 74 280 74 280 81.5 300 c 128,-1,11
 89 320 89 320 93 329 c 2,12,-1
 222 601 l 2,13,14
 244 650 244 650 288 650 c 256,15,16
 332 650 332 650 261 510 c 0,17,18
 190 369 190 369 236 420 c 1,19,-1
 346 420 l 1,0,-1
408 270 m 1,20,-1
 334 343 l 1,21,-1
 217 343 l 1,22,-1
 142 261 l 1,23,-1
 142 138 l 1,24,-1
 217 67 l 1,25,-1
 329 67 l 1,26,-1
 408 143 l 1,27,-1
 408 270 l 1,20,-1
EndSplineSet
Substitution2: "'case' Case-Sensitive Forms in Latin lookup 23 subtable" six.lf
Substitution2: "'tnum' Tabular Numbers in Latin lookup 21 subtable" six.tosf
Substitution2: "'lnum' Lining Figures in Latin lookup 19 subtable" six.lf
AlternateSubs2: "'aalt' Access All Alternates in Latin lookup 1 subtable" six.lf six.tosf
EndChar

StartChar: seven.osf
Encoding: 65683 -1 393
Width: 550
GlyphClass: 1
Flags: W
LayerCount: 2
Fore
SplineSet
276 500 m 0,0,1
 461 500 461 500 461 463 c 0,2,3
 461 452 461 452 449.5 414 c 128,-1,4
 438 376 438 376 418 320 c 128,-1,5
 398 264 398 264 373.5 200.5 c 128,-1,6
 349 137 349 137 322.5 75 c 128,-1,7
 296 13 296 13 271.5 -38 c 128,-1,8
 247 -89 247 -89 227.5 -119.5 c 128,-1,9
 208 -150 208 -150 197 -150 c 0,10,11
 157 -150 157 -150 268 138 c 0,12,13
 379 425 379 425 235 425 c 0,14,15
 90 425 90 425 90 463 c 0,16,17
 90 500 90 500 276 500 c 0,0,1
EndSplineSet
Substitution2: "'case' Case-Sensitive Forms in Latin lookup 23 subtable" seven.lf
Substitution2: "'tnum' Tabular Numbers in Latin lookup 21 subtable" seven.tosf
Substitution2: "'lnum' Lining Figures in Latin lookup 19 subtable" seven.lf
AlternateSubs2: "'aalt' Access All Alternates in Latin lookup 1 subtable" seven.lf seven.tosf
EndChar

StartChar: eight.osf
Encoding: 65684 -1 394
Width: 550
GlyphClass: 1
Flags: W
LayerCount: 2
Fore
SplineSet
421 323 m 1,0,-1
 485 240 l 1,1,-1
 485 126 l 1,2,-1
 435 40 l 1,3,-1
 340 -10 l 1,4,-1
 210 -10 l 1,5,-1
 115 40 l 1,6,-1
 65 126 l 1,7,-1
 65 240 l 1,8,-1
 129 323 l 1,9,10
 183 342 183 342 135 358 c 1,11,-1
 79 428 l 1,12,-1
 79 534 l 1,13,-1
 127 614 l 1,14,-1
 215 660 l 1,15,-1
 335 660 l 1,16,-1
 423 614 l 1,17,-1
 471 534 l 1,18,-1
 471 428 l 1,19,-1
 415 358 l 1,20,21
 367 342 367 342 421 323 c 1,0,-1
223 585 m 1,22,-1
 159 529 l 1,23,-1
 159 439 l 1,24,-1
 224 379 l 1,25,-1
 326 379 l 1,26,-1
 391 439 l 1,27,-1
 391 529 l 1,28,-1
 327 585 l 1,29,-1
 223 585 l 1,22,-1
334 65 m 1,30,-1
 405 129 l 1,31,-1
 405 230 l 1,32,-1
 334 296 l 1,33,-1
 216 296 l 1,34,-1
 145 230 l 1,35,-1
 145 129 l 1,36,-1
 216 65 l 1,37,-1
 334 65 l 1,30,-1
EndSplineSet
Substitution2: "'case' Case-Sensitive Forms in Latin lookup 23 subtable" eight.lf
Substitution2: "'tnum' Tabular Numbers in Latin lookup 21 subtable" eight.tosf
Substitution2: "'lnum' Lining Figures in Latin lookup 19 subtable" eight.lf
AlternateSubs2: "'aalt' Access All Alternates in Latin lookup 1 subtable" eight.lf eight.tosf
EndChar

StartChar: nine.osf
Encoding: 65685 -1 395
Width: 550
GlyphClass: 1
Flags: W
LayerCount: 2
Fore
SplineSet
336 510 m 1,0,-1
 432 459 l 1,1,-1
 488 365 l 1,2,-1
 488 251 l 1,3,4
 476 220 476 220 468.5 200 c 128,-1,5
 461 180 461 180 457 171 c 2,6,-1
 328 -101 l 2,7,8
 306 -150 306 -150 262 -150 c 256,9,10
 218 -150 218 -150 289 -10 c 0,11,12
 360 131 360 131 314 80 c 1,13,-1
 206 80 l 1,14,-1
 116 133 l 1,15,-1
 62 229 l 1,16,-1
 62 358 l 1,17,-1
 120 457 l 1,18,-1
 219 510 l 1,19,-1
 336 510 l 1,0,-1
333 157 m 1,20,-1
 408 239 l 1,21,-1
 408 362 l 1,22,-1
 333 433 l 1,23,-1
 221 433 l 1,24,-1
 142 357 l 1,25,-1
 142 230 l 1,26,-1
 216 157 l 1,27,-1
 333 157 l 1,20,-1
EndSplineSet
Substitution2: "'case' Case-Sensitive Forms in Latin lookup 23 subtable" nine.lf
Substitution2: "'tnum' Tabular Numbers in Latin lookup 21 subtable" nine.tosf
Substitution2: "'lnum' Lining Figures in Latin lookup 19 subtable" nine.lf
AlternateSubs2: "'aalt' Access All Alternates in Latin lookup 1 subtable" nine.lf nine.tosf
EndChar

StartChar: zero.tf
Encoding: 65686 -1 396
Width: 550
GlyphClass: 1
Flags: W
LayerCount: 2
Fore
SplineSet
389 660 m 1,0,-1
 505 475 l 1,1,-1
 505 175 l 1,2,-1
 389 -10 l 1,3,-1
 161 -10 l 1,4,-1
 45 175 l 1,5,-1
 45 475 l 1,6,-1
 161 660 l 1,7,-1
 389 660 l 1,0,-1
350 70 m 1,8,-1
 425 206 l 1,9,-1
 425 444 l 1,10,-1
 350 580 l 1,11,-1
 200 580 l 1,12,-1
 125 444 l 1,13,-1
 125 206 l 1,14,-1
 200 70 l 1,15,-1
 350 70 l 1,8,-1
EndSplineSet
Substitution2: "'case' Case-Sensitive Forms in Latin lookup 23 subtable" zero.lf
Substitution2: "'aalt' Access All Alternates in Latin lookup 0 subtable" zero.lf
EndChar

StartChar: one.tf
Encoding: 65687 -1 397
Width: 550
GlyphClass: 1
Flags: W
LayerCount: 2
Fore
SplineSet
400 75 m 0,0,1
 472 75 472 75 472 38 c 0,2,3
 472 0 472 0 277 0 c 256,4,5
 82 0 82 0 82 38 c 0,6,7
 82 75 82 75 165 75 c 0,8,9
 247 75 247 75 247 325 c 256,10,11
 247 575 247 575 170 575 c 0,12,13
 92 575 92 575 92 613 c 0,14,15
 92 650 92 650 210 650 c 0,16,17
 327 650 327 650 327 363 c 0,18,19
 327 75 327 75 400 75 c 0,0,1
EndSplineSet
Substitution2: "'case' Case-Sensitive Forms in Latin lookup 23 subtable" one.lf
Substitution2: "'aalt' Access All Alternates in Latin lookup 0 subtable" one.lf
EndChar

StartChar: five.tf
Encoding: 65691 -1 401
Width: 550
GlyphClass: 1
Flags: W
LayerCount: 2
Fore
SplineSet
345 420 m 1,0,-1
 433 366 l 1,1,-1
 485 268 l 1,2,-1
 485 140 l 1,3,-1
 428 42 l 1,4,-1
 334 -10 l 1,5,-1
 225 -10 l 1,6,-1
 129 38 l 1,7,-1
 69 127 l 1,8,9
 65 187 65 187 105 187 c 256,10,11
 145 187 145 187 151 131 c 1,12,-1
 225 68 l 1,13,-1
 311 68 l 1,14,-1
 369 100 l 1,15,-1
 405 162 l 1,16,-1
 405 246 l 1,17,-1
 371 309 l 1,18,-1
 316 342 l 1,19,-1
 243 342 l 1,20,-1
 179 305 l 1,21,22
 160 259 160 259 122 267 c 0,23,24
 110 270 110 270 101 298.5 c 128,-1,25
 92 327 92 327 90 370.5 c 128,-1,26
 88 414 88 414 95.5 462.5 c 128,-1,27
 103 511 103 511 122.5 553.5 c 128,-1,28
 142 596 142 596 177 623 c 128,-1,29
 212 650 212 650 265 650 c 0,30,31
 424 650 424 650 424 613 c 0,32,33
 424 575 424 575 302 575 c 0,34,35
 181 575 181 575 173 453 c 0,36,37
 169 392 169 392 172 373 c 128,-1,38
 175 354 175 354 183 376 c 1,39,-1
 250 420 l 1,40,-1
 345 420 l 1,0,-1
EndSplineSet
Substitution2: "'case' Case-Sensitive Forms in Latin lookup 23 subtable" five.lf
Substitution2: "'aalt' Access All Alternates in Latin lookup 0 subtable" five.lf
EndChar

StartChar: six.tf
Encoding: 65692 -1 402
Width: 550
GlyphClass: 1
Flags: W
LayerCount: 2
Fore
SplineSet
346 420 m 1,0,-1
 435 368 l 1,1,-1
 488 272 l 1,2,-1
 488 143 l 1,3,-1
 430 43 l 1,4,-1
 331 -10 l 1,5,-1
 214 -10 l 1,6,-1
 118 41 l 1,7,-1
 62 135 l 1,8,-1
 62 249 l 1,9,10
 74 280 74 280 81.5 300 c 128,-1,11
 89 320 89 320 93 329 c 2,12,-1
 222 601 l 2,13,14
 244 650 244 650 288 650 c 256,15,16
 332 650 332 650 261 510 c 0,17,18
 190 369 190 369 236 420 c 1,19,-1
 346 420 l 1,0,-1
408 270 m 1,20,-1
 334 343 l 1,21,-1
 217 343 l 1,22,-1
 142 261 l 1,23,-1
 142 138 l 1,24,-1
 217 67 l 1,25,-1
 329 67 l 1,26,-1
 408 143 l 1,27,-1
 408 270 l 1,20,-1
EndSplineSet
Substitution2: "'case' Case-Sensitive Forms in Latin lookup 23 subtable" six.lf
Substitution2: "'aalt' Access All Alternates in Latin lookup 0 subtable" six.lf
EndChar

StartChar: nine.tf
Encoding: 65695 -1 405
Width: 550
GlyphClass: 1
Flags: W
LayerCount: 2
Fore
SplineSet
336 660 m 1,0,-1
 432 609 l 1,1,-1
 488 515 l 1,2,-1
 488 401 l 1,3,4
 476 370 476 370 468.5 350 c 128,-1,5
 461 330 461 330 457 321 c 2,6,-1
 328 49 l 2,7,8
 306 0 306 0 262 0 c 256,9,10
 218 0 218 0 289 140 c 0,11,12
 360 281 360 281 314 230 c 1,13,-1
 206 230 l 1,14,-1
 116 283 l 1,15,-1
 62 379 l 1,16,-1
 62 508 l 1,17,-1
 120 607 l 1,18,-1
 219 660 l 1,19,-1
 336 660 l 1,0,-1
333 307 m 1,20,-1
 408 389 l 1,21,-1
 408 512 l 1,22,-1
 333 583 l 1,23,-1
 221 583 l 1,24,-1
 142 507 l 1,25,-1
 142 380 l 1,26,-1
 216 307 l 1,27,-1
 333 307 l 1,20,-1
EndSplineSet
Substitution2: "'case' Case-Sensitive Forms in Latin lookup 23 subtable" nine.lf
Substitution2: "'aalt' Access All Alternates in Latin lookup 0 subtable" nine.lf
EndChar

StartChar: zero.tosf
Encoding: 65696 -1 406
Width: 550
GlyphClass: 1
Flags: W
LayerCount: 2
Fore
SplineSet
211 -10 m 1,0,-1
 104 53 l 1,1,-1
 41 171 l 1,2,-1
 41 327 l 1,3,-1
 104 446 l 1,4,-1
 211 510 l 1,5,-1
 340 510 l 1,6,-1
 447 446 l 1,7,-1
 509 327 l 1,8,-1
 509 171 l 1,9,-1
 447 53 l 1,10,-1
 340 -10 l 1,11,-1
 211 -10 l 1,0,-1
317 68 m 1,12,-1
 387 111 l 1,13,-1
 429 193 l 1,14,-1
 429 305 l 1,15,-1
 387 388 l 1,16,-1
 318 432 l 1,17,-1
 234 432 l 1,18,-1
 163 388 l 1,19,-1
 121 305 l 1,20,-1
 121 193 l 1,21,-1
 163 111 l 1,22,-1
 234 68 l 1,23,-1
 317 68 l 1,12,-1
EndSplineSet
Substitution2: "'case' Case-Sensitive Forms in Latin lookup 23 subtable" zero.lf
Substitution2: "'pnum' Proportional Numbers in Latin lookup 20 subtable" zero.osf
AlternateSubs2: "'aalt' Access All Alternates in Latin lookup 1 subtable" zero.lf zero.osf
EndChar

StartChar: one.tosf
Encoding: 65697 -1 407
Width: 550
GlyphClass: 1
Flags: W
LayerCount: 2
Fore
SplineSet
393 75 m 0,0,1
 460 75 460 75 460 38 c 0,2,3
 460 0 460 0 280 0 c 256,4,5
 100 0 100 0 100 38 c 0,6,7
 100 75 100 75 173 75 c 0,8,9
 245 75 245 75 245 250 c 256,10,11
 245 425 245 425 168 425 c 0,12,13
 90 425 90 425 90 463 c 0,14,15
 90 500 90 500 208 500 c 0,16,17
 325 500 325 500 325 288 c 0,18,19
 325 75 325 75 393 75 c 0,0,1
EndSplineSet
Substitution2: "'case' Case-Sensitive Forms in Latin lookup 23 subtable" one.lf
Substitution2: "'pnum' Proportional Numbers in Latin lookup 20 subtable" one.osf
AlternateSubs2: "'aalt' Access All Alternates in Latin lookup 1 subtable" one.lf one.osf
EndChar

StartChar: five.tosf
Encoding: 65701 -1 411
Width: 550
GlyphClass: 1
Flags: W
LayerCount: 2
Fore
SplineSet
347 270 m 1,0,-1
 434 217 l 1,1,-1
 485 118 l 1,2,-1
 485 -10 l 1,3,-1
 430 -108 l 1,4,-1
 337 -160 l 1,5,-1
 224 -160 l 1,6,-1
 128 -112 l 1,7,-1
 69 -23 l 1,8,9
 65 37 65 37 105 37 c 256,10,11
 145 37 145 37 150 -19 c 1,12,-1
 226 -82 l 1,13,-1
 332 -82 l 1,14,-1
 405 -9 l 1,15,-1
 405 96 l 1,16,-1
 372 159 l 1,17,-1
 318 192 l 1,18,-1
 191 192 l 1,19,20
 155 110 155 110 118 117 c 0,21,22
 106 120 106 120 97 148.5 c 128,-1,23
 88 177 88 177 86 220.5 c 128,-1,24
 84 264 84 264 91.5 312.5 c 128,-1,25
 99 361 99 361 119 403.5 c 128,-1,26
 139 446 139 446 174.5 473 c 128,-1,27
 210 500 210 500 264 500 c 0,28,29
 427 500 427 500 427 463 c 0,30,31
 427 425 427 425 302 425 c 0,32,33
 178 425 178 425 170 303 c 0,34,35
 166 242 166 242 169 223 c 128,-1,36
 172 204 172 204 180 226 c 1,37,-1
 251 270 l 1,38,-1
 347 270 l 1,0,-1
EndSplineSet
Substitution2: "'case' Case-Sensitive Forms in Latin lookup 23 subtable" five.lf
Substitution2: "'pnum' Proportional Numbers in Latin lookup 20 subtable" five.osf
AlternateSubs2: "'aalt' Access All Alternates in Latin lookup 1 subtable" five.lf five.osf
EndChar

StartChar: six.tosf
Encoding: 65702 -1 412
Width: 550
GlyphClass: 1
Flags: W
LayerCount: 2
Fore
SplineSet
346 420 m 1,0,-1
 435 368 l 1,1,-1
 488 272 l 1,2,-1
 488 143 l 1,3,-1
 430 43 l 1,4,-1
 331 -10 l 1,5,-1
 214 -10 l 1,6,-1
 118 41 l 1,7,-1
 62 135 l 1,8,-1
 62 249 l 1,9,10
 74 280 74 280 81.5 300 c 128,-1,11
 89 320 89 320 93 329 c 2,12,-1
 222 601 l 2,13,14
 244 650 244 650 288 650 c 256,15,16
 332 650 332 650 261 510 c 0,17,18
 190 369 190 369 236 420 c 1,19,-1
 346 420 l 1,0,-1
408 270 m 1,20,-1
 334 343 l 1,21,-1
 217 343 l 1,22,-1
 142 261 l 1,23,-1
 142 138 l 1,24,-1
 217 67 l 1,25,-1
 329 67 l 1,26,-1
 408 143 l 1,27,-1
 408 270 l 1,20,-1
EndSplineSet
Substitution2: "'case' Case-Sensitive Forms in Latin lookup 23 subtable" six.lf
Substitution2: "'pnum' Proportional Numbers in Latin lookup 20 subtable" six.osf
AlternateSubs2: "'aalt' Access All Alternates in Latin lookup 1 subtable" six.lf six.osf
EndChar

StartChar: nine.tosf
Encoding: 65705 -1 415
Width: 550
GlyphClass: 1
Flags: W
LayerCount: 2
Fore
SplineSet
336 510 m 1,0,-1
 432 459 l 1,1,-1
 488 365 l 1,2,-1
 488 251 l 1,3,4
 476 220 476 220 468.5 200 c 128,-1,5
 461 180 461 180 457 171 c 2,6,-1
 328 -101 l 2,7,8
 306 -150 306 -150 262 -150 c 256,9,10
 218 -150 218 -150 289 -10 c 0,11,12
 360 131 360 131 314 80 c 1,13,-1
 206 80 l 1,14,-1
 116 133 l 1,15,-1
 62 229 l 1,16,-1
 62 358 l 1,17,-1
 120 457 l 1,18,-1
 219 510 l 1,19,-1
 336 510 l 1,0,-1
333 157 m 1,20,-1
 408 239 l 1,21,-1
 408 362 l 1,22,-1
 333 433 l 1,23,-1
 221 433 l 1,24,-1
 142 357 l 1,25,-1
 142 230 l 1,26,-1
 216 157 l 1,27,-1
 333 157 l 1,20,-1
EndSplineSet
Substitution2: "'case' Case-Sensitive Forms in Latin lookup 23 subtable" nine.lf
Substitution2: "'pnum' Proportional Numbers in Latin lookup 20 subtable" nine.osf
AlternateSubs2: "'aalt' Access All Alternates in Latin lookup 1 subtable" nine.lf nine.osf
EndChar

StartChar: zero.dnom
Encoding: 65706 -1 416
Width: 550
GlyphClass: 1
Flags: W
LayerCount: 2
Fore
SplineSet
346 394 m 1,0,-1
 426 281 l 1,1,-1
 426 103 l 1,2,-1
 346 -10 l 1,3,-1
 204 -10 l 1,4,-1
 124 103 l 1,5,-1
 124 281 l 1,6,-1
 204 394 l 1,7,-1
 346 394 l 1,0,-1
314 69 m 1,8,-1
 357 135 l 1,9,-1
 357 249 l 1,10,-1
 314 315 l 1,11,-1
 236 315 l 1,12,-1
 193 249 l 1,13,-1
 193 135 l 1,14,-1
 236 69 l 1,15,-1
 314 69 l 1,8,-1
EndSplineSet
EndChar

StartChar: one.dnom
Encoding: 65707 -1 417
Width: 550
GlyphClass: 1
Flags: W
LayerCount: 2
Fore
SplineSet
356 65 m 0,0,1
 392 65 392 65 392 33 c 0,2,3
 392 0 392 0 275 0 c 256,4,5
 158 0 158 0 158 33 c 0,6,7
 158 65 158 65 201 65 c 256,8,9
 244 65 244 65 244 195 c 0,10,11
 244 324 244 324 204 324 c 256,12,13
 164 324 164 324 164 357 c 256,14,15
 164 390 164 390 242 390 c 0,16,17
 319 390 319 390 319 228 c 0,18,19
 319 65 319 65 356 65 c 0,0,1
EndSplineSet
EndChar

StartChar: two.dnom
Encoding: 65708 -1 418
Width: 550
GlyphClass: 1
Flags: W
LayerCount: 2
Fore
SplineSet
156 33 m 0,0,1
 156 65 156 65 239 151 c 1,2,-1
 316 246 l 1,3,-1
 316 333 l 1,4,-1
 243 333 l 1,5,-1
 219 306 l 1,6,7
 219 291 219 291 188 291 c 256,8,9
 157 291 157 291 152 336 c 1,10,-1
 219 398 l 1,11,-1
 323 398 l 1,12,-1
 384 339 l 1,13,-1
 384 244 l 1,14,-1
 326 159 l 1,15,16
 272 104 272 104 254 84 c 0,17,18
 235 65 235 65 315 65 c 0,19,20
 394 65 394 65 394 33 c 0,21,22
 394 0 394 0 275 0 c 256,23,24
 156 0 156 0 156 33 c 0,0,1
EndSplineSet
EndChar

StartChar: three.dnom
Encoding: 65709 -1 419
Width: 550
GlyphClass: 1
Flags: W
LayerCount: 2
Fore
SplineSet
340 200 m 1,0,-1
 394 152 l 1,1,-1
 394 59 l 1,2,-1
 329 -10 l 1,3,-1
 240 -10 l 1,4,-1
 182 23 l 1,5,-1
 153 79 l 1,6,7
 156 110 156 110 187 110 c 0,8,9
 217 110 217 110 217 86 c 1,10,-1
 248 56 l 1,11,-1
 329 56 l 1,12,-1
 329 140 l 1,13,-1
 292 172 l 1,14,-1
 246 172 l 2,15,16
 235 172 235 172 235 203 c 0,17,18
 235 233 235 233 246 233 c 2,19,-1
 323 233 l 1,20,-1
 323 306 l 1,21,-1
 295 332 l 1,22,-1
 251 332 l 1,23,-1
 222 306 l 1,24,25
 222 286 222 286 192 286 c 256,26,27
 162 286 162 286 159 316 c 1,28,-1
 185 367 l 1,29,-1
 239 397 l 1,30,-1
 306 397 l 1,31,-1
 359 368 l 1,32,-1
 389 322 l 1,33,-1
 389 216 l 1,34,35
 340 211 340 211 327.5 206.5 c 128,-1,36
 315 202 315 202 340 200 c 1,0,-1
EndSplineSet
EndChar

StartChar: four.dnom
Encoding: 65710 -1 420
Width: 550
GlyphClass: 1
Flags: W
LayerCount: 2
Fore
SplineSet
407 109 m 0,0,1
 407 76 407 76 387 76 c 256,2,3
 367 76 367 76 367 38 c 256,4,5
 367 0 367 0 333 0 c 256,6,7
 299 0 299 0 299 38 c 256,8,9
 299 76 299 76 221 76 c 256,10,11
 143 76 143 76 143 106 c 0,12,13
 143 116 143 116 154 140.5 c 128,-1,14
 165 165 165 165 182.5 197 c 128,-1,15
 200 229 200 229 221.5 263 c 128,-1,16
 243 297 243 297 264.5 325.5 c 128,-1,17
 286 354 286 354 304.5 372 c 128,-1,18
 323 390 323 390 334 390 c 0,19,20
 367 390 367 390 367 266 c 0,21,22
 367 141 367 141 387 141 c 256,23,24
 407 141 407 141 407 109 c 0,0,1
259 141 m 256,25,26
 299 141 299 141 299 211 c 0,27,28
 299 279 299 279 259 211 c 0,29,30
 219 141 219 141 259 141 c 256,25,26
EndSplineSet
EndChar

StartChar: five.dnom
Encoding: 65711 -1 421
Width: 550
GlyphClass: 1
Flags: W
LayerCount: 2
Fore
SplineSet
342 260 m 1,0,-1
 408 185 l 1,1,-1
 408 66 l 1,2,-1
 335 -10 l 1,3,-1
 222 -10 l 1,4,-1
 147 60 l 1,5,6
 143 118 143 118 176 118 c 0,7,8
 210 118 210 118 211 91 c 1,9,-1
 249 59 l 1,10,-1
 308 59 l 1,11,-1
 343 95 l 1,12,-1
 343 157 l 1,13,-1
 310 194 l 1,14,-1
 234 194 l 1,15,16
 216 153 216 153 185 160 c 0,17,18
 173 163 173 163 165.5 187 c 128,-1,19
 158 211 158 211 158.5 245 c 128,-1,20
 159 279 159 279 170 312 c 128,-1,21
 181 345 181 345 205.5 367.5 c 128,-1,22
 230 390 230 390 271 390 c 0,23,24
 374 390 374 390 374 358 c 256,25,26
 374 326 374 326 301 326 c 0,27,28
 229 326 229 326 224 275 c 0,29,30
 222 249 222 249 227 245 c 128,-1,31
 232 241 232 241 243 260 c 1,32,-1
 342 260 l 1,0,-1
EndSplineSet
EndChar

StartChar: six.dnom
Encoding: 65712 -1 422
Width: 550
GlyphClass: 1
Flags: W
LayerCount: 2
Fore
SplineSet
338 262 m 1,0,-1
 407 183 l 1,1,-1
 407 66 l 1,2,-1
 333 -10 l 1,3,-1
 239 -10 l 1,4,-1
 177 26 l 1,5,-1
 143 85 l 1,6,-1
 143 154 l 1,7,8
 151 173 151 173 157 188 c 128,-1,9
 163 203 163 203 167 214 c 2,10,-1
 238 363 l 2,11,12
 250 389 250 389 288 389 c 0,13,14
 327 389 327 389 289 321 c 0,15,16
 251 251 251 251 265 262 c 1,17,-1
 338 262 l 1,0,-1
307 57 m 1,18,-1
 341 97 l 1,19,-1
 341 159 l 1,20,-1
 306 199 l 1,21,-1
 246 199 l 1,22,-1
 208 159 l 1,23,-1
 208 98 l 1,24,-1
 247 57 l 1,25,-1
 307 57 l 1,18,-1
EndSplineSet
EndChar

StartChar: seven.dnom
Encoding: 65713 -1 423
Width: 550
GlyphClass: 1
Flags: W
LayerCount: 2
Fore
SplineSet
275 390 m 256,0,1
 386 390 386 390 386 362 c 0,2,3
 386 353 386 353 377 323 c 128,-1,4
 368 293 368 293 353.5 251.5 c 128,-1,5
 339 210 339 210 321 166.5 c 128,-1,6
 303 123 303 123 284.5 85 c 128,-1,7
 266 47 266 47 250 23.5 c 128,-1,8
 234 0 234 0 223 0 c 0,9,10
 189 0 189 0 254 164 c 0,11,12
 317 327 317 327 241 327 c 0,13,14
 164 327 164 327 164 359 c 0,15,16
 164 390 164 390 275 390 c 256,0,1
EndSplineSet
EndChar

StartChar: eight.dnom
Encoding: 65714 -1 424
Width: 550
GlyphClass: 1
Flags: W
LayerCount: 2
Fore
SplineSet
369 193 m 1,0,-1
 400 143 l 1,1,-1
 400 57 l 1,2,-1
 329 -10 l 1,3,-1
 221 -10 l 1,4,-1
 151 57 l 1,5,-1
 151 144 l 1,6,-1
 181 193 l 1,7,8
 208 203 208 203 185 213 c 1,9,-1
 159 255 l 1,10,-1
 159 333 l 1,11,-1
 225 396 l 1,12,-1
 326 396 l 1,13,-1
 391 333 l 1,14,-1
 391 256 l 1,15,-1
 365 213 l 1,16,17
 342 203 342 203 369 193 c 1,0,-1
253 330 m 1,18,-1
 225 303 l 1,19,-1
 225 260 l 1,20,-1
 254 233 l 1,21,-1
 297 233 l 1,22,-1
 326 260 l 1,23,-1
 326 303 l 1,24,-1
 297 330 l 1,25,-1
 253 330 l 1,18,-1
301 53 m 1,26,-1
 334 85 l 1,27,-1
 334 136 l 1,28,-1
 301 168 l 1,29,-1
 250 168 l 1,30,-1
 217 136 l 1,31,-1
 217 85 l 1,32,-1
 250 53 l 1,33,-1
 301 53 l 1,26,-1
EndSplineSet
EndChar

StartChar: nine.dnom
Encoding: 65715 -1 425
Width: 550
GlyphClass: 1
Flags: W
LayerCount: 2
Fore
SplineSet
314 397 m 1,0,-1
 373 361 l 1,1,-1
 407 301 l 1,2,-1
 407 234 l 1,3,4
 400 215 400 215 394 199.5 c 128,-1,5
 388 184 388 184 383 173 c 2,6,-1
 312 25 l 2,7,8
 300 0 300 0 262 0 c 0,9,10
 223 0 223 0 261 68 c 256,11,12
 299 136 299 136 285 125 c 1,13,-1
 212 125 l 1,14,-1
 143 204 l 1,15,-1
 143 322 l 1,16,-1
 219 397 l 1,17,-1
 314 397 l 1,0,-1
304 188 m 1,18,-1
 342 229 l 1,19,-1
 342 290 l 1,20,-1
 304 330 l 1,21,-1
 244 330 l 1,22,-1
 209 291 l 1,23,-1
 209 229 l 1,24,-1
 245 188 l 1,25,-1
 304 188 l 1,18,-1
EndSplineSet
EndChar

StartChar: one.numr
Encoding: 65717 -1 427
Width: 550
GlyphClass: 1
Flags: W
LayerCount: 2
Fore
SplineSet
356 325 m 0,0,1
 392 325 392 325 392 293 c 0,2,3
 392 260 392 260 275 260 c 256,4,5
 158 260 158 260 158 293 c 0,6,7
 158 325 158 325 201 325 c 256,8,9
 244 325 244 325 244 455 c 0,10,11
 244 584 244 584 204 584 c 256,12,13
 164 584 164 584 164 617 c 256,14,15
 164 650 164 650 242 650 c 0,16,17
 319 650 319 650 319 488 c 0,18,19
 319 325 319 325 356 325 c 0,0,1
EndSplineSet
Substitution2: "Single Substitution lookup 16 subtable" one.dnom
Substitution2: "Single Substitution lookup 15 subtable" one.dnom
Substitution2: "'aalt' Access All Alternates in Latin lookup 0 subtable" one.dnom
EndChar

StartChar: two.numr
Encoding: 65718 -1 428
Width: 550
GlyphClass: 1
Flags: W
LayerCount: 2
Fore
SplineSet
156 293 m 0,0,1
 156 325 156 325 239 411 c 1,2,-1
 316 506 l 1,3,-1
 316 593 l 1,4,-1
 243 593 l 1,5,-1
 219 566 l 1,6,7
 219 551 219 551 188 551 c 256,8,9
 157 551 157 551 152 596 c 1,10,-1
 219 658 l 1,11,-1
 323 658 l 1,12,-1
 384 599 l 1,13,-1
 384 504 l 1,14,-1
 326 419 l 1,15,16
 272 364 272 364 254 344 c 0,17,18
 235 325 235 325 315 325 c 0,19,20
 394 325 394 325 394 293 c 0,21,22
 394 260 394 260 275 260 c 256,23,24
 156 260 156 260 156 293 c 0,0,1
EndSplineSet
Substitution2: "Single Substitution lookup 16 subtable" two.dnom
Substitution2: "Single Substitution lookup 15 subtable" two.dnom
Substitution2: "'aalt' Access All Alternates in Latin lookup 0 subtable" two.dnom
EndChar

StartChar: three.numr
Encoding: 65719 -1 429
Width: 550
GlyphClass: 1
Flags: W
LayerCount: 2
Fore
SplineSet
340 460 m 1,0,-1
 394 412 l 1,1,-1
 394 319 l 1,2,-1
 329 250 l 1,3,-1
 240 250 l 1,4,-1
 182 283 l 1,5,-1
 153 339 l 1,6,7
 156 370 156 370 187 370 c 0,8,9
 217 370 217 370 217 346 c 1,10,-1
 248 316 l 1,11,-1
 329 316 l 1,12,-1
 329 400 l 1,13,-1
 292 432 l 1,14,-1
 246 432 l 2,15,16
 235 432 235 432 235 463 c 0,17,18
 235 493 235 493 246 493 c 2,19,-1
 323 493 l 1,20,-1
 323 566 l 1,21,-1
 295 592 l 1,22,-1
 251 592 l 1,23,-1
 222 566 l 1,24,25
 222 546 222 546 192 546 c 256,26,27
 162 546 162 546 159 576 c 1,28,-1
 185 627 l 1,29,-1
 239 657 l 1,30,-1
 306 657 l 1,31,-1
 359 628 l 1,32,-1
 389 582 l 1,33,-1
 389 476 l 1,34,35
 340 471 340 471 327.5 466.5 c 128,-1,36
 315 462 315 462 340 460 c 1,0,-1
EndSplineSet
Substitution2: "Single Substitution lookup 16 subtable" three.dnom
Substitution2: "Single Substitution lookup 15 subtable" three.dnom
Substitution2: "'aalt' Access All Alternates in Latin lookup 0 subtable" three.dnom
EndChar

StartChar: fraction
Encoding: 8260 8260 440
Width: 0
GlyphClass: 1
Flags: W
LayerCount: 2
Fore
SplineSet
133 713 m 256,0,1
 140 711 140 711 135 677.5 c 128,-1,2
 130 644 130 644 115 589.5 c 128,-1,3
 100 535 100 535 79 468 c 128,-1,4
 58 401 58 401 34 330 c 128,-1,5
 10 259 10 259 -15 193.5 c 128,-1,6
 -40 128 -40 128 -62 76 c 128,-1,7
 -84 24 -84 24 -100 -5.5 c 128,-1,8
 -116 -35 -116 -35 -123 -32 c 256,9,10
 -130 -29 -130 -29 -124.5 4.5 c 128,-1,11
 -119 38 -119 38 -104.5 92.5 c 128,-1,12
 -90 147 -90 147 -69 213.5 c 128,-1,13
 -48 280 -48 280 -24 351 c 128,-1,14
 0 422 0 422 24.5 487.5 c 128,-1,15
 49 553 49 553 71 604.5 c 128,-1,16
 93 656 93 656 109.5 685.5 c 128,-1,17
 126 715 126 715 133 713 c 256,0,1
EndSplineSet
EndChar

StartChar: period
Encoding: 46 46 444
Width: 550
GlyphClass: 1
Flags: W
LayerCount: 2
Fore
SplineSet
327 49 m 256,0,1
 327 0 327 0 275 0 c 256,2,3
 223 0 223 0 223 49 c 256,4,5
 223 98 223 98 275 98 c 256,6,7
 327 98 327 98 327 49 c 256,0,1
EndSplineSet
EndChar

StartChar: comma
Encoding: 44 44 445
Width: 550
GlyphClass: 1
Flags: W
LayerCount: 2
Fore
SplineSet
235 -96 m 0,0,1
 229 -85 229 -85 232 -83 c 2,2,-1
 251 -65 l 1,3,-1
 270 -32 l 1,4,5
 270 -11 270 -11 246 -5 c 0,6,7
 221 -1 221 -1 221 49 c 0,8,9
 221 97 221 97 275 97 c 256,10,11
 329 97 329 97 329 64 c 2,12,-1
 329 -28 l 1,13,-1
 283 -92 l 1,14,15
 240 -107 240 -107 235 -96 c 0,0,1
EndSplineSet
EndChar

StartChar: colon
Encoding: 58 58 446
Width: 550
GlyphClass: 1
Flags: W
LayerCount: 2
Fore
SplineSet
327 438 m 256,0,1
 327 389 327 389 275 389 c 256,2,3
 223 389 223 389 223 438 c 256,4,5
 223 487 223 487 275 487 c 256,6,7
 327 487 327 487 327 438 c 256,0,1
327 49 m 256,8,9
 327 0 327 0 275 0 c 256,10,11
 223 0 223 0 223 49 c 256,12,13
 223 98 223 98 275 98 c 256,14,15
 327 98 327 98 327 49 c 256,8,9
EndSplineSet
EndChar

StartChar: semicolon
Encoding: 59 59 447
Width: 550
GlyphClass: 1
Flags: W
LayerCount: 2
Fore
SplineSet
327 437 m 256,0,1
 327 388 327 388 275 388 c 256,2,3
 223 388 223 388 223 437 c 256,4,5
 223 486 223 486 275 486 c 256,6,7
 327 486 327 486 327 437 c 256,0,1
235 -96 m 0,8,9
 229 -85 229 -85 232 -83 c 2,10,-1
 251 -65 l 1,11,-1
 270 -32 l 1,12,13
 270 -11 270 -11 246 -5 c 0,14,15
 221 -1 221 -1 221 49 c 0,16,17
 221 97 221 97 275 97 c 256,18,19
 329 97 329 97 329 64 c 2,20,-1
 329 -28 l 1,21,-1
 283 -92 l 1,22,23
 240 -107 240 -107 235 -96 c 0,8,9
EndSplineSet
EndChar

StartChar: ellipsis
Encoding: 8230 8230 448
Width: 550
GlyphClass: 1
Flags: W
LayerCount: 2
Fore
SplineSet
494 49 m 256,0,1
 494 0 494 0 442 0 c 256,2,3
 390 0 390 0 390 49 c 256,4,5
 390 98 390 98 442 98 c 256,6,7
 494 98 494 98 494 49 c 256,0,1
160 49 m 256,8,9
 160 0 160 0 108 0 c 256,10,11
 56 0 56 0 56 49 c 256,12,13
 56 98 56 98 108 98 c 256,14,15
 160 98 160 98 160 49 c 256,8,9
328 49 m 256,16,17
 328 0 328 0 276 0 c 256,18,19
 224 0 224 0 224 49 c 256,20,21
 224 98 224 98 276 98 c 256,22,23
 328 98 328 98 328 49 c 256,16,17
EndSplineSet
EndChar

StartChar: exclam
Encoding: 33 33 449
Width: 550
GlyphClass: 1
Flags: W
LayerCount: 2
Fore
SplineSet
275 650 m 256,0,1
 314 650 314 650 314 426 c 0,2,3
 314 201 314 201 275 201 c 256,4,5
 236 201 236 201 236 426 c 0,6,7
 236 650 236 650 275 650 c 256,0,1
327 49 m 256,8,9
 327 0 327 0 275 0 c 256,10,11
 223 0 223 0 223 49 c 256,12,13
 223 98 223 98 275 98 c 256,14,15
 327 98 327 98 327 49 c 256,8,9
EndSplineSet
EndChar

StartChar: exclamdown
Encoding: 161 161 450
Width: 550
GlyphClass: 1
Flags: W
LayerCount: 2
Fore
SplineSet
327 492 m 256,0,1
 327 443 327 443 275 443 c 256,2,3
 223 443 223 443 223 492 c 256,4,5
 223 541 223 541 275 541 c 256,6,7
 327 541 327 541 327 492 c 256,0,1
275 -109 m 256,8,9
 236 -109 236 -109 236 115 c 0,10,11
 236 340 236 340 275 340 c 256,12,13
 314 340 314 340 314 115 c 0,14,15
 314 -109 314 -109 275 -109 c 256,8,9
EndSplineSet
Substitution2: "'case' Case-Sensitive Forms in Latin lookup 23 subtable" exclamdown.case
Substitution2: "'aalt' Access All Alternates in Latin lookup 0 subtable" exclamdown.case
EndChar

StartChar: question
Encoding: 63 63 451
Width: 550
GlyphClass: 1
Flags: W
LayerCount: 2
Fore
SplineSet
335 660 m 1,0,-1
 423 614 l 1,1,-1
 471 534 l 1,2,-1
 471 405 l 1,3,-1
 380 310 l 1,4,5
 302 301 302 301 302 251 c 256,6,7
 302 201 302 201 262 201 c 256,8,9
 222 201 222 201 222 288 c 0,10,11
 222 374 222 374 244 374 c 2,12,-1
 323 374 l 1,13,-1
 391 437 l 1,14,-1
 391 530 l 1,15,-1
 330 585 l 1,16,-1
 223 585 l 1,17,-1
 159 529 l 1,18,19
 159 484 159 484 119 484 c 256,20,21
 79 484 79 484 79 533 c 1,22,-1
 130 613 l 1,23,-1
 220 660 l 1,24,-1
 335 660 l 1,0,-1
209 49 m 256,25,26
 209 98 209 98 261 98 c 0,27,28
 312 98 312 98 312 49 c 256,29,30
 312 0 312 0 261 0 c 0,31,32
 209 0 209 0 209 49 c 256,25,26
EndSplineSet
EndChar

StartChar: questiondown
Encoding: 191 191 452
Width: 550
GlyphClass: 1
Flags: W
LayerCount: 2
Fore
SplineSet
341 537 m 256,0,1
 341 488 341 488 289 488 c 0,2,3
 238 488 238 488 238 537 c 256,4,5
 238 586 238 586 289 586 c 0,6,7
 341 586 341 586 341 537 c 256,0,1
215 -74 m 1,8,-1
 127 -28 l 1,9,-1
 79 52 l 1,10,-1
 79 181 l 1,11,-1
 170 276 l 1,12,13
 248 285 248 285 248 335 c 256,14,15
 248 385 248 385 288 385 c 256,16,17
 328 385 328 385 328 298 c 0,18,19
 328 212 328 212 306 212 c 2,20,-1
 227 212 l 1,21,-1
 159 149 l 1,22,-1
 159 56 l 1,23,-1
 220 1 l 1,24,-1
 327 1 l 1,25,-1
 391 57 l 1,26,27
 391 102 391 102 431 102 c 256,28,29
 471 102 471 102 471 53 c 1,30,-1
 420 -27 l 1,31,-1
 330 -74 l 1,32,-1
 215 -74 l 1,8,-1
EndSplineSet
Substitution2: "'case' Case-Sensitive Forms in Latin lookup 23 subtable" questiondown.case
Substitution2: "'aalt' Access All Alternates in Latin lookup 0 subtable" questiondown.case
EndChar

StartChar: periodcentered
Encoding: 183 183 453
Width: 550
GlyphClass: 1
Flags: W
LayerCount: 2
Fore
SplineSet
327 273 m 256,0,1
 327 224 327 224 275 224 c 256,2,3
 223 224 223 224 223 273 c 256,4,5
 223 322 223 322 275 322 c 256,6,7
 327 322 327 322 327 273 c 256,0,1
EndSplineSet
EndChar

StartChar: bullet
Encoding: 8226 8226 454
Width: 550
GlyphClass: 1
Flags: W
LayerCount: 2
Fore
SplineSet
275 385 m 256,0,1
 398 385 398 385 398 262 c 256,2,3
 398 139 398 139 275 139 c 256,4,5
 152 139 152 139 152 262 c 256,6,7
 152 385 152 385 275 385 c 256,0,1
EndSplineSet
EndChar

StartChar: asterisk
Encoding: 42 42 455
Width: 550
GlyphClass: 1
Flags: W
LayerCount: 2
Fore
SplineSet
388 544 m 0,0,1
 335 527 335 527 371 478 c 0,2,3
 389 453 389 453 389.5 434.5 c 128,-1,4
 390 416 390 416 378.5 407.5 c 128,-1,5
 367 399 367 399 349 405.5 c 128,-1,6
 331 412 331 412 312 438 c 0,7,8
 275 491 275 491 237 438 c 0,9,10
 218 412 218 412 200 405.5 c 128,-1,11
 182 399 182 399 170.5 407 c 128,-1,12
 159 415 159 415 159 434 c 128,-1,13
 159 453 159 453 177 477 c 0,14,15
 212 526 212 526 161 542 c 0,16,17
 136 551 136 551 126 565 c 128,-1,18
 116 579 116 579 121 592.5 c 128,-1,19
 126 606 126 606 142.5 612 c 128,-1,20
 159 618 159 618 186 609 c 0,21,22
 240 591 240 591 240 651 c 0,23,24
 240 710 240 710 275 710 c 256,25,26
 310 710 310 710 310 652 c 0,27,28
 310 593 310 593 364 611 c 0,29,30
 391 620 391 620 408 614 c 128,-1,31
 425 608 425 608 429.5 594.5 c 128,-1,32
 434 581 434 581 424 567 c 128,-1,33
 414 553 414 553 388 544 c 0,0,1
EndSplineSet
EndChar

StartChar: numbersign
Encoding: 35 35 456
Width: 550
GlyphClass: 1
Flags: W
LayerCount: 2
Fore
SplineSet
456 404 m 256,0,1
 402 404 402 404 402 325 c 256,2,3
 402 246 402 246 456 246 c 256,4,5
 510 246 510 246 510 213 c 256,6,7
 510 180 510 180 456 180 c 256,8,9
 402 180 402 180 402 100 c 256,10,11
 402 20 402 20 370 20 c 256,12,13
 338 20 338 20 338 100 c 256,14,15
 338 180 338 180 278 180 c 256,16,17
 218 180 218 180 218 100 c 256,18,19
 218 20 218 20 186 20 c 256,20,21
 154 20 154 20 154 100 c 256,22,23
 154 180 154 180 97 180 c 256,24,25
 40 180 40 180 40 213 c 256,26,27
 40 246 40 246 97 246 c 256,28,29
 154 246 154 246 154 325 c 256,30,31
 154 404 154 404 97 404 c 256,32,33
 40 404 40 404 40 437 c 256,34,35
 40 470 40 470 97 470 c 256,36,37
 154 470 154 470 154 550 c 256,38,39
 154 630 154 630 186 630 c 256,40,41
 218 630 218 630 218 550 c 256,42,43
 218 470 218 470 278 470 c 256,44,45
 338 470 338 470 338 550 c 256,46,47
 338 630 338 630 370 630 c 256,48,49
 402 630 402 630 402 550 c 256,50,51
 402 470 402 470 456 470 c 256,52,53
 510 470 510 470 510 437 c 256,54,55
 510 404 510 404 456 404 c 256,0,1
338 325 m 256,56,57
 338 404 338 404 278 404 c 256,58,59
 218 404 218 404 218 325 c 256,60,61
 218 246 218 246 278 246 c 256,62,63
 338 246 338 246 338 325 c 256,56,57
EndSplineSet
EndChar

StartChar: slash
Encoding: 47 47 457
Width: 550
GlyphClass: 1
Flags: W
LayerCount: 2
Fore
SplineSet
485 679 m 256,0,1
 493 674 493 674 481.5 640 c 128,-1,2
 470 606 470 606 444 552 c 128,-1,3
 418 498 418 498 382.5 432 c 128,-1,4
 347 366 347 366 307.5 297 c 128,-1,5
 268 228 268 228 228.5 164.5 c 128,-1,6
 189 101 189 101 155 51.5 c 128,-1,7
 121 2 121 2 97.5 -25 c 128,-1,8
 74 -52 74 -52 66 -47 c 256,9,10
 58 -42 58 -42 69.5 -8 c 128,-1,11
 81 26 81 26 106.5 80 c 128,-1,12
 132 134 132 134 167.5 200 c 128,-1,13
 203 266 203 266 242.5 334.5 c 128,-1,14
 282 403 282 403 321.5 466.5 c 128,-1,15
 361 530 361 530 395 579.5 c 128,-1,16
 429 629 429 629 453 656.5 c 128,-1,17
 477 684 477 684 485 679 c 256,0,1
EndSplineSet
Substitution2: "'frac' Diagonal Fractions in Latin lookup 12 subtable" fraction
Substitution2: "'aalt' Access All Alternates in Latin lookup 0 subtable" fraction
EndChar

StartChar: backslash
Encoding: 92 92 458
Width: 550
GlyphClass: 1
Flags: W
LayerCount: 2
Fore
SplineSet
65 679 m 256,0,1
 73 684 73 684 97 656.5 c 128,-1,2
 121 629 121 629 155 579.5 c 128,-1,3
 189 530 189 530 228.5 466.5 c 128,-1,4
 268 403 268 403 307.5 334.5 c 128,-1,5
 347 266 347 266 382.5 200 c 128,-1,6
 418 134 418 134 443.5 80 c 128,-1,7
 469 26 469 26 480.5 -8 c 128,-1,8
 492 -42 492 -42 484 -47 c 256,9,10
 476 -52 476 -52 452.5 -25 c 128,-1,11
 429 2 429 2 395 51.5 c 128,-1,12
 361 101 361 101 321.5 164.5 c 128,-1,13
 282 228 282 228 242.5 297 c 128,-1,14
 203 366 203 366 167.5 432 c 128,-1,15
 132 498 132 498 106 552 c 128,-1,16
 80 606 80 606 68.5 640 c 128,-1,17
 57 674 57 674 65 679 c 256,0,1
EndSplineSet
EndChar

StartChar: exclamdown.case
Encoding: 65726 -1 459
Width: 550
GlyphClass: 1
Flags: W
LayerCount: 2
Fore
SplineSet
327 601 m 256,0,1
 327 552 327 552 275 552 c 256,2,3
 223 552 223 552 223 601 c 256,4,5
 223 650 223 650 275 650 c 256,6,7
 327 650 327 650 327 601 c 256,0,1
275 0 m 256,8,9
 236 0 236 0 236 224 c 0,10,11
 236 449 236 449 275 449 c 256,12,13
 314 449 314 449 314 224 c 0,14,15
 314 0 314 0 275 0 c 256,8,9
EndSplineSet
EndChar

StartChar: questiondown.case
Encoding: 65727 -1 460
Width: 550
GlyphClass: 1
Flags: W
LayerCount: 2
Fore
SplineSet
341 601 m 256,0,1
 341 552 341 552 289 552 c 0,2,3
 238 552 238 552 238 601 c 256,4,5
 238 650 238 650 289 650 c 0,6,7
 341 650 341 650 341 601 c 256,0,1
215 -10 m 1,8,-1
 127 36 l 1,9,-1
 79 116 l 1,10,-1
 79 245 l 1,11,-1
 170 340 l 1,12,13
 248 349 248 349 248 399 c 256,14,15
 248 449 248 449 288 449 c 256,16,17
 328 449 328 449 328 362 c 0,18,19
 328 276 328 276 306 276 c 2,20,-1
 227 276 l 1,21,-1
 159 213 l 1,22,-1
 159 120 l 1,23,-1
 220 65 l 1,24,-1
 327 65 l 1,25,-1
 391 121 l 1,26,27
 391 166 391 166 431 166 c 256,28,29
 471 166 471 166 471 117 c 1,30,-1
 420 37 l 1,31,-1
 330 -10 l 1,32,-1
 215 -10 l 1,8,-1
EndSplineSet
EndChar

StartChar: parenleft
Encoding: 40 40 461
Width: 550
GlyphClass: 1
Flags: W
LayerCount: 2
Fore
SplineSet
383 -94 m 1,0,1
 379 -94 379 -94 365 -103 c 128,-1,2
 351 -112 351 -112 339 -123 c 128,-1,3
 327 -134 327 -134 327 -140 c 1,4,-1
 239 -18 l 1,5,-1
 168 168 l 1,6,-1
 168 404 l 1,7,-1
 239 590 l 1,8,-1
 327 712 l 1,9,10
 327 708 327 708 339 696.5 c 128,-1,11
 351 685 351 685 365 675.5 c 128,-1,12
 379 666 379 666 383 666 c 1,13,-1
 308 558 l 1,14,-1
 248 393 l 1,15,-1
 248 179 l 1,16,-1
 308 14 l 1,17,-1
 383 -94 l 1,0,1
EndSplineSet
Substitution2: "'case' Case-Sensitive Forms in Latin lookup 23 subtable" parenleft.case
Substitution2: "'aalt' Access All Alternates in Latin lookup 0 subtable" parenleft.case
EndChar

StartChar: parenright
Encoding: 41 41 462
Width: 550
GlyphClass: 1
Flags: W
LayerCount: 2
Fore
SplineSet
223 -140 m 1,0,1
 223 -134 223 -134 211 -123 c 128,-1,2
 199 -112 199 -112 185.5 -103 c 128,-1,3
 172 -94 172 -94 167 -94 c 1,4,-1
 242 14 l 1,5,-1
 302 179 l 1,6,-1
 302 393 l 1,7,-1
 242 558 l 1,8,-1
 167 666 l 1,9,10
 172 666 172 666 185.5 675.5 c 128,-1,11
 199 685 199 685 211 696.5 c 128,-1,12
 223 708 223 708 223 712 c 1,13,-1
 311 590 l 1,14,-1
 382 404 l 1,15,-1
 382 168 l 1,16,-1
 311 -18 l 1,17,-1
 223 -140 l 1,0,1
EndSplineSet
Substitution2: "'case' Case-Sensitive Forms in Latin lookup 23 subtable" parenright.case
Substitution2: "'aalt' Access All Alternates in Latin lookup 0 subtable" parenright.case
EndChar

StartChar: braceleft
Encoding: 123 123 463
Width: 550
GlyphClass: 1
Flags: W
LayerCount: 2
Fore
SplineSet
411 760 m 256,0,1
 411 720 411 720 339 720 c 256,2,3
 267 720 267 720 267 692 c 1,4,-1
 283 633 l 2,5,6
 300 584 300 584 316 540 c 2,7,-1
 333 478 l 1,8,-1
 333 341 l 1,9,10
 213 311 213 311 333 281 c 1,11,-1
 333 144 l 1,12,-1
 316 82 l 1,13,14
 300 39 300 39 283 -11 c 2,15,-1
 267 -70 l 1,16,17
 267 -98 267 -98 339 -98 c 256,18,19
 411 -98 411 -98 411 -138 c 256,20,21
 411 -178 411 -178 295 -178 c 0,22,23
 178 -178 178 -178 175 -159 c 2,24,-1
 175 -95 l 1,25,-1
 200 -3 l 2,26,27
 211 29 211 29 221 55.5 c 128,-1,28
 231 82 231 82 238 103 c 2,29,-1
 253 153 l 1,30,-1
 253 217 l 1,31,-1
 184 271 l 1,32,33
 118 271 118 271 118 311 c 256,34,35
 118 351 118 351 184 351 c 1,36,-1
 253 405 l 1,37,-1
 253 469 l 1,38,-1
 238 519 l 2,39,40
 231 540 231 540 221 566.5 c 128,-1,41
 211 593 211 593 200 625 c 2,42,-1
 175 717 l 1,43,-1
 175 781 l 2,44,45
 178 800 178 800 295 800 c 0,46,47
 411 800 411 800 411 760 c 256,0,1
EndSplineSet
EndChar

StartChar: braceright
Encoding: 125 125 464
Width: 550
GlyphClass: 1
Flags: W
LayerCount: 2
Fore
SplineSet
139 760 m 256,0,1
 139 800 139 800 255 800 c 0,2,3
 372 800 372 800 375 781 c 2,4,-1
 375 717 l 1,5,-1
 350 625 l 2,6,7
 339 593 339 593 329.5 566.5 c 128,-1,8
 320 540 320 540 312 519 c 2,9,-1
 297 469 l 1,10,-1
 297 405 l 1,11,-1
 366 351 l 1,12,13
 432 351 432 351 432 311 c 256,14,15
 432 271 432 271 366 271 c 1,16,-1
 297 217 l 1,17,-1
 297 153 l 1,18,-1
 312 103 l 2,19,20
 320 82 320 82 329.5 55.5 c 128,-1,21
 339 29 339 29 350 -3 c 2,22,-1
 375 -95 l 1,23,-1
 375 -159 l 2,24,25
 372 -178 372 -178 255 -178 c 0,26,27
 139 -178 139 -178 139 -138 c 256,28,29
 139 -98 139 -98 211 -98 c 256,30,31
 283 -98 283 -98 283 -70 c 1,32,-1
 267 -11 l 2,33,34
 251 39 251 39 234 82 c 1,35,-1
 217 144 l 1,36,-1
 217 281 l 1,37,38
 337 311 337 311 217 341 c 1,39,-1
 217 478 l 1,40,-1
 234 540 l 1,41,42
 251 584 251 584 267 633 c 2,43,-1
 283 692 l 1,44,45
 283 720 283 720 211 720 c 256,46,47
 139 720 139 720 139 760 c 256,0,1
EndSplineSet
EndChar

StartChar: bracketleft
Encoding: 91 91 465
Width: 550
GlyphClass: 1
Flags: W
LayerCount: 2
Fore
SplineSet
455 -138 m 256,0,1
 455 -178 455 -178 322 -178 c 0,2,3
 188 -178 188 -178 188 311 c 256,4,5
 188 800 188 800 322 800 c 0,6,7
 455 800 455 800 455 760 c 256,8,9
 455 720 455 720 362 720 c 0,10,11
 268 720 268 720 268 311 c 256,12,13
 268 -98 268 -98 362 -98 c 0,14,15
 455 -98 455 -98 455 -138 c 256,0,1
EndSplineSet
EndChar

StartChar: bracketright
Encoding: 93 93 466
Width: 550
GlyphClass: 1
Flags: W
LayerCount: 2
Fore
SplineSet
95 760 m 256,0,1
 95 800 95 800 229 800 c 0,2,3
 362 800 362 800 362 311 c 256,4,5
 362 -178 362 -178 229 -178 c 0,6,7
 95 -178 95 -178 95 -138 c 256,8,9
 95 -98 95 -98 189 -98 c 0,10,11
 282 -98 282 -98 282 311 c 256,12,13
 282 720 282 720 189 720 c 0,14,15
 95 720 95 720 95 760 c 256,0,1
EndSplineSet
EndChar

StartChar: parenleft.case
Encoding: 65728 -1 467
Width: 550
GlyphClass: 1
Flags: W
LayerCount: 2
Fore
SplineSet
383 -54 m 1,0,1
 379 -54 379 -54 362.5 -63.5 c 128,-1,2
 346 -73 346 -73 331.5 -84 c 128,-1,3
 317 -95 317 -95 317 -100 c 1,4,-1
 234 22 l 1,5,-1
 168 208 l 1,6,-1
 168 444 l 1,7,-1
 234 630 l 1,8,-1
 317 752 l 1,9,10
 317 748 317 748 331.5 736.5 c 128,-1,11
 346 725 346 725 362.5 715.5 c 128,-1,12
 379 706 379 706 383 706 c 1,13,-1
 308 598 l 1,14,-1
 248 433 l 1,15,-1
 248 219 l 1,16,-1
 308 54 l 1,17,-1
 383 -54 l 1,0,1
EndSplineSet
EndChar

StartChar: parenright.case
Encoding: 65729 -1 468
Width: 550
GlyphClass: 1
Flags: W
LayerCount: 2
Fore
SplineSet
168 -54 m 1,0,-1
 243 54 l 1,1,-1
 303 219 l 1,2,-1
 303 433 l 1,3,-1
 243 598 l 1,4,-1
 168 706 l 1,5,6
 173 706 173 706 189 715.5 c 128,-1,7
 205 725 205 725 219.5 736.5 c 128,-1,8
 234 748 234 748 234 752 c 1,9,-1
 317 630 l 1,10,-1
 383 444 l 1,11,-1
 383 208 l 1,12,-1
 317 22 l 1,13,-1
 234 -100 l 1,14,15
 234 -95 234 -95 219.5 -84 c 128,-1,16
 205 -73 205 -73 189 -63.5 c 128,-1,17
 173 -54 173 -54 168 -54 c 1,0,-1
EndSplineSet
EndChar

StartChar: hyphen
Encoding: 45 45 469
Width: 550
GlyphClass: 1
Flags: W
LayerCount: 2
Fore
SplineSet
275 307 m 256,0,1
 420 307 420 307 420 270 c 256,2,3
 420 233 420 233 275 233 c 256,4,5
 130 233 130 233 130 270 c 256,6,7
 130 307 130 307 275 307 c 256,0,1
EndSplineSet
EndChar

StartChar: endash
Encoding: 8211 8211 471
Width: 550
GlyphClass: 1
Flags: W
LayerCount: 2
Fore
SplineSet
275 309 m 256,0,1
 475 309 475 309 475 271 c 0,2,3
 475 232 475 232 275 232 c 256,4,5
 75 232 75 232 75 271 c 0,6,7
 75 309 75 309 275 309 c 256,0,1
EndSplineSet
EndChar

StartChar: emdash
Encoding: 8212 8212 472
Width: 550
GlyphClass: 1
Flags: W
LayerCount: 2
Fore
SplineSet
275 310 m 256,0,1
 510 310 510 310 510 272 c 0,2,3
 510 233 510 233 275 233 c 256,4,5
 40 233 40 233 40 272 c 0,6,7
 40 310 40 310 275 310 c 256,0,1
EndSplineSet
EndChar

StartChar: underscore
Encoding: 95 95 473
Width: 550
GlyphClass: 1
Flags: W
LayerCount: 2
Fore
SplineSet
275 -123 m 256,0,1
 510 -123 510 -123 510 -161 c 0,2,3
 510 -200 510 -200 275 -200 c 256,4,5
 40 -200 40 -200 40 -161 c 0,6,7
 40 -123 40 -123 275 -123 c 256,0,1
EndSplineSet
EndChar

StartChar: quoteleft
Encoding: 8216 8216 478
Width: 550
GlyphClass: 1
Flags: W
LayerCount: 2
Fore
SplineSet
315 653 m 0,0,1
 321 642 321 642 318 640 c 2,2,-1
 299 622 l 1,3,-1
 280 589 l 1,4,5
 280 568 280 568 304 562 c 0,6,7
 329 558 329 558 329 508 c 0,8,9
 329 460 329 460 275 460 c 256,10,11
 221 460 221 460 221 493 c 2,12,-1
 221 585 l 1,13,-1
 267 649 l 1,14,15
 310 664 310 664 315 653 c 0,0,1
EndSplineSet
EndChar

StartChar: quoteright
Encoding: 8217 8217 479
Width: 550
GlyphClass: 1
Flags: W
LayerCount: 2
Fore
SplineSet
235 457 m 0,0,1
 229 468 229 468 232 470 c 2,2,-1
 251 488 l 1,3,-1
 270 521 l 1,4,5
 270 542 270 542 246 548 c 0,6,7
 221 552 221 552 221 602 c 0,8,9
 221 650 221 650 275 650 c 256,10,11
 329 650 329 650 329 617 c 2,12,-1
 329 525 l 1,13,-1
 283 460 l 1,14,15
 240 447 240 447 235 457 c 0,0,1
EndSplineSet
EndChar

StartChar: guillemotleft
Encoding: 171 171 480
Width: 550
GlyphClass: 1
Flags: W
LayerCount: 2
Fore
SplineSet
271 361 m 0,0,1
 198 279 198 279 271 198 c 0,2,3
 308 157 308 157 319 127.5 c 128,-1,4
 330 98 330 98 317.5 88.5 c 128,-1,5
 305 79 305 79 273 97.5 c 128,-1,6
 241 116 241 116 191 170 c 0,7,8
 158 206 158 206 151.5 244.5 c 128,-1,9
 145 283 145 283 157 320 c 128,-1,10
 169 357 169 357 191.5 388 c 128,-1,11
 214 419 214 419 239.5 440.5 c 128,-1,12
 265 462 265 462 287 470.5 c 128,-1,13
 309 479 309 479 318 470 c 0,14,15
 345 442 345 442 271 361 c 0,0,1
432 309 m 0,16,17
 405 279 405 279 432 250 c 0,18,19
 445 235 445 235 444 219 c 128,-1,20
 443 203 443 203 431.5 193.5 c 128,-1,21
 420 184 420 184 400 189.5 c 128,-1,22
 380 195 380 195 354 223 c 0,23,24
 334 245 334 245 332.5 269.5 c 128,-1,25
 331 294 331 294 341.5 315.5 c 128,-1,26
 352 337 352 337 369.5 352 c 128,-1,27
 387 367 387 367 404 371.5 c 128,-1,28
 421 376 421 376 432 365 c 0,29,30
 458 338 458 338 432 309 c 0,16,17
EndSplineSet
EndChar

StartChar: guillemotright
Encoding: 187 187 481
Width: 550
GlyphClass: 1
Flags: W
LayerCount: 2
Fore
SplineSet
279 361 m 0,0,1
 225 421 225 421 225 451 c 0,2,3
 225 463 225 463 232 470 c 0,4,5
 236 474 236 474 245 474 c 0,6,7
 262 474 262 474 287.5 457.5 c 128,-1,8
 313 441 313 441 339.5 412.5 c 128,-1,9
 366 384 366 384 383.5 347.5 c 128,-1,10
 401 311 401 311 401 272 c 0,11,12
 401 247 401 247 391.5 221 c 128,-1,13
 382 195 382 195 359 170 c 0,14,15
 318 125 318 125 288.5 105.5 c 128,-1,16
 259 86 259 86 243 86 c 0,17,18
 226 86 226 86 226 104 c 0,19,20
 226 119 226 119 239 143.5 c 128,-1,21
 252 168 252 168 279 198 c 0,22,23
 316 238 316 238 316 279 c 0,24,25
 316 321 316 321 279 361 c 0,0,1
118 309 m 0,26,27
 105 325 105 325 105 337 c 0,28,29
 105 350 105 350 118 365 c 0,30,31
 125 372 125 372 137 372 c 0,32,33
 153 372 153 372 172 358.5 c 128,-1,34
 191 345 191 345 204.5 323.5 c 128,-1,35
 218 302 218 302 218 277 c 0,36,37
 218 264 218 264 213 250 c 128,-1,38
 208 236 208 236 196 223 c 0,39,40
 179 204 179 204 163.5 196 c 128,-1,41
 148 188 148 188 137 188 c 0,42,43
 123 188 123 188 114.5 197.5 c 128,-1,44
 106 207 106 207 106 220 c 0,45,46
 106 237 106 237 118 250 c 0,47,48
 132 266 132 266 132 279 c 0,49,50
 132 293 132 293 118 309 c 0,26,27
EndSplineSet
EndChar

StartChar: guilsinglleft
Encoding: 8249 8249 482
Width: 550
GlyphClass: 1
Flags: W
LayerCount: 2
Fore
SplineSet
309 361 m 0,0,1
 236 279 236 279 309 198 c 0,2,3
 346 157 346 157 357 127.5 c 128,-1,4
 368 98 368 98 355.5 88.5 c 128,-1,5
 343 79 343 79 311 97.5 c 128,-1,6
 279 116 279 116 229 170 c 0,7,8
 196 206 196 206 189.5 244.5 c 128,-1,9
 183 283 183 283 195 320 c 128,-1,10
 207 357 207 357 229.5 388 c 128,-1,11
 252 419 252 419 277.5 440.5 c 128,-1,12
 303 462 303 462 325 470.5 c 128,-1,13
 347 479 347 479 356 470 c 0,14,15
 383 442 383 442 309 361 c 0,0,1
EndSplineSet
EndChar

StartChar: guilsinglright
Encoding: 8250 8250 483
Width: 550
GlyphClass: 1
Flags: W
LayerCount: 2
Fore
SplineSet
241 361 m 0,0,1
 167 442 167 442 194 470 c 0,2,3
 203 479 203 479 225 470.5 c 128,-1,4
 247 462 247 462 272.5 440.5 c 128,-1,5
 298 419 298 419 320.5 388 c 128,-1,6
 343 357 343 357 355 320 c 128,-1,7
 367 283 367 283 360.5 244.5 c 128,-1,8
 354 206 354 206 321 170 c 0,9,10
 272 116 272 116 239.5 97.5 c 128,-1,11
 207 79 207 79 194.5 88.5 c 128,-1,12
 182 98 182 98 193 127.5 c 128,-1,13
 204 157 204 157 241 198 c 0,14,15
 314 279 314 279 241 361 c 0,0,1
EndSplineSet
EndChar

StartChar: quotedbl
Encoding: 34 34 484
Width: 550
GlyphClass: 1
Flags: W
LayerCount: 2
Fore
SplineSet
201 436 m 256,0,1
 191 436 191 436 181.5 452.5 c 128,-1,2
 172 469 172 469 165.5 494.5 c 128,-1,3
 159 520 159 520 155 549 c 128,-1,4
 151 578 151 578 151 602 c 0,5,6
 151 650 151 650 200 650 c 256,7,8
 249 650 249 650 249 602 c 0,9,10
 249 578 249 578 245.5 549 c 128,-1,11
 242 520 242 520 235.5 494.5 c 128,-1,12
 229 469 229 469 220 452.5 c 128,-1,13
 211 436 211 436 201 436 c 256,0,1
351 436 m 256,14,15
 341 436 341 436 331.5 452.5 c 128,-1,16
 322 469 322 469 315.5 494.5 c 128,-1,17
 309 520 309 520 305 549 c 128,-1,18
 301 578 301 578 301 602 c 0,19,20
 301 650 301 650 350 650 c 256,21,22
 399 650 399 650 399 602 c 0,23,24
 399 578 399 578 395.5 549 c 128,-1,25
 392 520 392 520 385.5 494.5 c 128,-1,26
 379 469 379 469 370 452.5 c 128,-1,27
 361 436 361 436 351 436 c 256,14,15
EndSplineSet
EndChar

StartChar: quotesingle
Encoding: 39 39 485
Width: 550
GlyphClass: 1
Flags: W
LayerCount: 2
Fore
SplineSet
288 456 m 1,0,-1
 256 456 l 1,1,2
 246 471 246 471 238 487.5 c 128,-1,3
 230 504 230 504 225.5 531 c 128,-1,4
 221 558 221 558 221 602 c 0,5,6
 221 650 221 650 275 650 c 0,7,8
 302 650 302 650 315.5 640 c 128,-1,9
 329 630 329 630 329 602 c 0,10,11
 329 558 329 558 323 531 c 128,-1,12
 317 504 317 504 308 487.5 c 128,-1,13
 299 471 299 471 288 456 c 1,0,-1
EndSplineSet
EndChar

StartChar: cent
Encoding: 162 162 489
Width: 550
GlyphClass: 1
Flags: W
LayerCount: 2
Fore
SplineSet
340 67 m 1,0,-1
 409 128 l 1,1,2
 427 188 427 188 463 188 c 256,3,4
 499 188 499 188 488 96 c 1,5,-1
 371 -10 l 1,6,-1
 270 -10 l 2,7,8
 263 -9 263 -9 255 -54 c 0,9,10
 251 -76 251 -76 237.5 -85.5 c 128,-1,11
 224 -95 224 -95 209.5 -92.5 c 128,-1,12
 195 -90 195 -90 186.5 -76 c 128,-1,13
 178 -62 178 -62 182 -38 c 0,14,15
 190 9 190 9 127 37 c 1,16,-1
 51 162 l 1,17,-1
 51 326 l 1,18,-1
 111 443 l 1,19,-1
 215 508 l 1,20,21
 278 510 278 510 287 559 c 0,22,23
 291 583 291 583 304.5 593 c 128,-1,24
 318 603 318 603 332.5 600.5 c 128,-1,25
 347 598 347 598 356 584.5 c 128,-1,26
 365 571 365 571 361 547 c 0,27,28
 353 500 353 500 412 482 c 1,29,-1
 489 384 l 1,30,31
 500 313 500 313 463 313 c 256,32,33
 426 313 426 313 399 401 c 1,34,35
 379 408 379 408 362 387 c 128,-1,36
 345 366 345 366 331.5 327.5 c 128,-1,37
 318 289 318 289 307.5 244.5 c 128,-1,38
 297 200 297 200 290.5 159.5 c 128,-1,39
 284 119 284 119 281.5 93 c 128,-1,40
 279 67 279 67 280 67 c 2,41,-1
 340 67 l 1,0,-1
131 194 m 1,42,-1
 170 113 l 1,43,44
 181 105 181 105 193.5 125 c 128,-1,45
 206 145 206 145 216.5 181.5 c 128,-1,46
 227 218 227 218 234 261 c 128,-1,47
 241 304 241 304 241.5 342 c 128,-1,48
 242 380 242 380 234 403.5 c 128,-1,49
 226 427 226 427 207 424 c 1,50,-1
 131 327 l 1,51,-1
 131 194 l 1,42,-1
EndSplineSet
EndChar

StartChar: currency
Encoding: 164 164 490
Width: 550
GlyphClass: 1
Flags: W
LayerCount: 2
Fore
SplineSet
459 253 m 1,0,1
 427 206 427 206 466 169 c 0,2,3
 486 150 486 150 488 132.5 c 128,-1,4
 490 115 490 115 480 105 c 128,-1,5
 470 95 470 95 453 97.5 c 128,-1,6
 436 100 436 100 417 119 c 0,7,8
 378 157 378 157 329 126 c 1,9,-1
 219 126 l 1,10,11
 173 157 173 157 133 119 c 0,12,13
 114 100 114 100 96.5 97.5 c 128,-1,14
 79 95 79 95 69.5 105 c 128,-1,15
 60 115 60 115 62.5 132.5 c 128,-1,16
 65 150 65 150 84 169 c 0,17,18
 122 207 122 207 91 252 c 1,19,-1
 91 368 l 1,20,21
 122 412 122 412 84 452 c 0,22,23
 65 471 65 471 62.5 488 c 128,-1,24
 60 505 60 505 69.5 515 c 128,-1,25
 79 525 79 525 96.5 523 c 128,-1,26
 114 521 114 521 133 501 c 0,27,28
 172 463 172 463 218 494 c 1,29,-1
 329 494 l 1,30,31
 378 463 378 463 417 502 c 0,32,33
 436 521 436 521 453 523 c 128,-1,34
 470 525 470 525 480 515 c 128,-1,35
 490 505 490 505 488 488 c 128,-1,36
 486 471 486 471 466 452 c 0,37,38
 428 414 428 414 459 367 c 1,39,-1
 459 253 l 1,0,1
322 198 m 1,40,-1
 387 264 l 1,41,-1
 387 357 l 1,42,-1
 322 422 l 1,43,-1
 229 422 l 1,44,-1
 163 357 l 1,45,-1
 163 264 l 1,46,-1
 229 198 l 1,47,-1
 322 198 l 1,40,-1
EndSplineSet
EndChar

StartChar: dollar
Encoding: 36 36 491
Width: 550
GlyphClass: 1
Flags: W
LayerCount: 2
Fore
SplineSet
388 334 m 1,0,-1
 484 267 l 1,1,-1
 484 131 l 1,2,-1
 391 55 l 1,3,-1
 282 55 l 2,4,5
 260 58 260 58 249 -7 c 0,6,7
 243 -40 243 -40 229 -54 c 128,-1,8
 215 -68 215 -68 200.5 -65.5 c 128,-1,9
 186 -63 186 -63 178 -44 c 128,-1,10
 170 -25 170 -25 176 8 c 0,11,12
 186 75 186 75 142 93 c 1,13,-1
 87 151 l 1,14,-1
 65 208 l 1,15,16
 67 226 67 226 104 226 c 0,17,18
 140 226 140 226 151 185 c 1,19,-1
 233 132 l 1,20,-1
 355 132 l 1,21,-1
 404 166 l 1,22,-1
 404 231 l 1,23,-1
 348 264 l 1,24,25
 313 270 313 270 272 277 c 128,-1,26
 231 284 231 284 184 292 c 1,27,-1
 76 363 l 1,28,-1
 76 494 l 1,29,-1
 173 575 l 1,30,-1
 268 575 l 2,31,32
 276 575 276 575 286 638 c 0,33,34
 292 670 292 670 306 683.5 c 128,-1,35
 320 697 320 697 334.5 694.5 c 128,-1,36
 349 692 349 692 357.5 674.5 c 128,-1,37
 366 657 366 657 360 625 c 0,38,39
 349 561 349 561 400 545 c 1,40,-1
 453 469 l 1,41,42
 455 415 455 415 420 415 c 256,43,44
 385 415 385 415 371 496 c 1,45,-1
 208 496 l 1,46,-1
 156 462 l 1,47,-1
 156 400 l 1,48,-1
 223 365 l 1,49,50
 258 358 258 358 299.5 350.5 c 128,-1,51
 341 343 341 343 388 334 c 1,0,-1
EndSplineSet
EndChar

StartChar: Euro
Encoding: 8364 8364 492
Width: 550
GlyphClass: 1
Flags: W
LayerCount: 2
Fore
SplineSet
478 217 m 0,0,1
 515 217 515 217 515 109 c 1,2,-1
 405 -10 l 1,3,-1
 190 -10 l 1,4,-1
 67 116 l 1,5,6
 50 232 50 232 21 232 c 0,7,8
 -10 232 -10 232 18 260 c 256,9,10
 46 288 46 288 45 300 c 2,11,-1
 45 334 l 2,12,13
 45 342 45 342 18 342 c 0,14,15
 -10 342 -10 342 20 372 c 256,16,17
 50 402 50 402 63 525 c 1,18,-1
 186 660 l 1,19,-1
 466 660 l 1,20,21
 511 509 511 509 480 475 c 0,22,23
 448 439 448 439 435 512 c 1,24,-1
 365 585 l 1,25,-1
 223 585 l 1,26,-1
 141 493 l 1,27,28
 129 402 129 402 273 402 c 0,29,30
 345 402 345 402 372.5 393 c 128,-1,31
 400 384 400 384 391 372 c 128,-1,32
 382 360 382 360 343.5 351 c 128,-1,33
 305 342 305 342 245 342 c 0,34,35
 125 342 125 342 125 334 c 2,36,-1
 125 303 l 2,37,38
 127 292 127 292 219 292 c 0,39,40
 265 292 265 292 279.5 283 c 128,-1,41
 294 274 294 274 285 262 c 128,-1,42
 276 250 276 250 252 241 c 128,-1,43
 228 232 228 232 196 232 c 0,44,45
 131 232 131 232 145 149 c 1,46,-1
 227 65 l 1,47,-1
 367 65 l 1,48,-1
 434 141 l 1,49,50
 440 217 440 217 478 217 c 0,0,1
EndSplineSet
EndChar

StartChar: florin
Encoding: 402 402 493
Width: 550
GlyphClass: 1
Flags: W
LayerCount: 2
Fore
SplineSet
352 585 m 1,0,-1
 315 535 l 1,1,-1
 315 443 l 2,2,3
 315 402 315 402 379 402 c 256,4,5
 443 402 443 402 443 372 c 256,6,7
 443 342 443 342 379 342 c 256,8,9
 315 342 315 342 315 255 c 0,10,11
 315 211 315 211 315 168.5 c 128,-1,12
 315 126 315 126 314 85 c 1,13,-1
 235 -10 l 1,14,-1
 122 -10 l 1,15,-1
 53 33 l 1,16,-1
 13 114 l 1,17,18
 13 167 13 167 53 167 c 256,19,20
 93 167 93 167 93 117 c 1,21,-1
 133 65 l 1,22,-1
 197 65 l 1,23,-1
 234 116 l 1,24,25
 235 142 235 142 235 176.5 c 128,-1,26
 235 211 235 211 235 255 c 0,27,28
 235 342 235 342 174 342 c 256,29,30
 113 342 113 342 113 372 c 256,31,32
 113 402 113 402 174 402 c 256,33,34
 235 402 235 402 235 443 c 2,35,-1
 235 566 l 1,36,-1
 314 660 l 1,37,-1
 427 660 l 1,38,-1
 496 617 l 1,39,-1
 536 537 l 1,40,41
 536 484 536 484 496 484 c 256,42,43
 456 484 456 484 456 534 c 1,44,-1
 416 585 l 1,45,-1
 352 585 l 1,0,-1
EndSplineSet
EndChar

StartChar: sterling
Encoding: 163 163 494
Width: 550
GlyphClass: 1
Flags: W
LayerCount: 2
Fore
SplineSet
274 152 m 1,0,-1
 223 91 l 1,1,2
 197 75 197 75 329 75 c 256,3,4
 461 75 461 75 461 38 c 0,5,6
 461 0 461 0 286 0 c 256,7,8
 111 0 111 0 111 38 c 2,9,-1
 111 73 l 1,10,-1
 158 107 l 1,11,-1
 196 163 l 1,12,-1
 196 231 l 1,13,14
 183 262 183 262 131 262 c 0,15,16
 80 262 80 262 80 292 c 256,17,18
 80 322 80 322 116 322 c 256,19,20
 152 322 152 322 128 366 c 1,21,-1
 99 446 l 1,22,-1
 99 537 l 1,23,-1
 147 617 l 1,24,-1
 232 660 l 1,25,-1
 340 660 l 1,26,-1
 424 614 l 1,27,-1
 470 533 l 1,28,29
 470 484 470 484 430 484 c 256,30,31
 390 484 390 484 390 528 c 1,32,-1
 329 585 l 1,33,-1
 241 585 l 1,34,-1
 179 533 l 1,35,-1
 179 448 l 1,36,-1
 203 384 l 1,37,-1
 232 330 l 2,38,39
 237 322 237 322 308 322 c 0,40,41
 380 322 380 322 380 292 c 256,42,43
 380 262 380 262 322 262 c 256,44,45
 264 262 264 262 274 231 c 1,46,-1
 274 152 l 1,0,-1
EndSplineSet
EndChar

StartChar: yen
Encoding: 165 165 495
Width: 550
GlyphClass: 1
Flags: W
LayerCount: 2
Fore
SplineSet
428 452 m 0,0,1
 331 253 331 253 364 253 c 256,2,3
 397 253 397 253 397 223 c 256,4,5
 397 193 397 193 247 193 c 256,6,7
 97 193 97 193 97 223 c 256,8,9
 97 253 97 253 159 253 c 0,10,11
 220 253 220 253 123 452 c 0,12,13
 26 650 26 650 70 650 c 0,14,15
 115 650 115 650 196 478 c 256,16,17
 277 306 277 306 356 478 c 256,18,19
 435 650 435 650 480 650 c 0,20,21
 526 650 526 650 428 452 c 0,0,1
97 113 m 256,22,23
 97 143 97 143 247 143 c 256,24,25
 397 143 397 143 397 113 c 256,26,27
 397 83 397 83 356 83 c 256,28,29
 315 83 315 83 315 42 c 0,30,31
 315 0 315 0 275 0 c 256,32,33
 235 0 235 0 235 42 c 0,34,35
 235 83 235 83 166 83 c 256,36,37
 97 83 97 83 97 113 c 256,22,23
EndSplineSet
EndChar

StartChar: plus
Encoding: 43 43 497
Width: 550
GlyphClass: 1
Flags: W
LayerCount: 2
Fore
SplineSet
455 270 m 256,0,1
 455 235 455 235 383 235 c 0,2,3
 310 235 310 235 310 163 c 0,4,5
 310 90 310 90 275 90 c 256,6,7
 240 90 240 90 240 163 c 0,8,9
 240 235 240 235 168 235 c 0,10,11
 95 235 95 235 95 270 c 256,12,13
 95 305 95 305 168 305 c 0,14,15
 240 305 240 305 240 378 c 0,16,17
 240 450 240 450 275 450 c 256,18,19
 310 450 310 450 310 378 c 0,20,21
 310 305 310 305 383 305 c 0,22,23
 455 305 455 305 455 270 c 256,0,1
EndSplineSet
EndChar

StartChar: minus
Encoding: 8722 8722 498
Width: 550
GlyphClass: 1
Flags: W
LayerCount: 2
Fore
SplineSet
275 307 m 256,0,1
 445 307 445 307 445 270 c 256,2,3
 445 233 445 233 275 233 c 256,4,5
 105 233 105 233 105 270 c 256,6,7
 105 307 105 307 275 307 c 256,0,1
EndSplineSet
EndChar

StartChar: multiply
Encoding: 215 215 499
Width: 550
GlyphClass: 1
Flags: W
LayerCount: 2
Fore
SplineSet
376 322 m 0,0,1
 324 270 324 270 376 219 c 0,2,3
 402 193 402 193 407 172.5 c 128,-1,4
 412 152 412 152 402.5 142.5 c 128,-1,5
 393 133 393 133 373 138.5 c 128,-1,6
 353 144 353 144 327 170 c 0,7,8
 275 221 275 221 224 170 c 0,9,10
 198 144 198 144 177.5 138.5 c 128,-1,11
 157 133 157 133 147.5 142.5 c 128,-1,12
 138 152 138 152 143.5 172.5 c 128,-1,13
 149 193 149 193 175 219 c 0,14,15
 226 270 226 270 175 322 c 0,16,17
 149 348 149 348 143.5 368 c 128,-1,18
 138 388 138 388 147.5 397.5 c 128,-1,19
 157 407 157 407 177.5 402 c 128,-1,20
 198 397 198 397 224 371 c 0,21,22
 275 319 275 319 327 371 c 0,23,24
 353 397 353 397 373 402 c 128,-1,25
 393 407 393 407 402.5 397.5 c 128,-1,26
 412 388 412 388 407 368 c 128,-1,27
 402 348 402 348 376 322 c 0,0,1
EndSplineSet
EndChar

StartChar: divide
Encoding: 247 247 500
Width: 550
GlyphClass: 1
Flags: W
LayerCount: 2
Fore
SplineSet
327 405 m 256,0,1
 327 356 327 356 275 356 c 256,2,3
 223 356 223 356 223 405 c 256,4,5
 223 454 223 454 275 454 c 256,6,7
 327 454 327 454 327 405 c 256,0,1
275 307 m 256,8,9
 465 307 465 307 465 270 c 256,10,11
 465 233 465 233 275 233 c 256,12,13
 85 233 85 233 85 270 c 256,14,15
 85 307 85 307 275 307 c 256,8,9
327 134 m 0,16,17
 327 85 327 85 275 85 c 256,18,19
 223 85 223 85 223 134 c 0,20,21
 223 182 223 182 275 182 c 256,22,23
 327 182 327 182 327 134 c 0,16,17
EndSplineSet
EndChar

StartChar: equal
Encoding: 61 61 501
Width: 550
GlyphClass: 1
Flags: W
LayerCount: 2
Fore
SplineSet
275 405 m 256,0,1
 470 405 470 405 470 368 c 0,2,3
 470 330 470 330 275 330 c 256,4,5
 80 330 80 330 80 368 c 0,6,7
 80 405 80 405 275 405 c 256,0,1
275 225 m 256,8,9
 470 225 470 225 470 188 c 0,10,11
 470 150 470 150 275 150 c 256,12,13
 80 150 80 150 80 188 c 0,14,15
 80 225 80 225 275 225 c 256,8,9
EndSplineSet
EndChar

StartChar: notequal
Encoding: 8800 8800 502
Width: 550
GlyphClass: 1
Flags: W
LayerCount: 2
Fore
SplineSet
397 330 m 0,0,1
 360 330 360 330 337 314 c 128,-1,2
 314 298 314 298 309 277.5 c 128,-1,3
 304 257 304 257 321 241 c 128,-1,4
 338 225 338 225 382 225 c 0,5,6
 470 225 470 225 470 188 c 0,7,8
 470 150 470 150 372 150 c 0,9,10
 273 150 273 150 257 86 c 0,11,12
 248 54 248 54 234.5 41 c 128,-1,13
 221 28 221 28 208 31 c 128,-1,14
 195 34 195 34 189.5 50.5 c 128,-1,15
 184 67 184 67 191 95 c 0,16,17
 206 150 206 150 143 150 c 256,18,19
 80 150 80 150 80 188 c 0,20,21
 80 225 80 225 153 225 c 0,22,23
 189 225 189 225 212 241 c 128,-1,24
 235 257 235 257 240 277.5 c 128,-1,25
 245 298 245 298 228 314 c 128,-1,26
 211 330 211 330 167 330 c 0,27,28
 80 330 80 330 80 368 c 0,29,30
 80 405 80 405 177 405 c 256,31,32
 274 405 274 405 292 472 c 0,33,34
 301 505 301 505 315 519 c 128,-1,35
 329 533 329 533 342 530 c 128,-1,36
 355 527 355 527 361 509.5 c 128,-1,37
 367 492 367 492 359 463 c 0,38,39
 343 405 343 405 407 405 c 0,40,41
 470 405 470 405 470 368 c 0,42,43
 470 330 470 330 397 330 c 0,0,1
EndSplineSet
EndChar

StartChar: greater
Encoding: 62 62 503
Width: 550
GlyphClass: 1
Flags: W
LayerCount: 2
Fore
SplineSet
295 429 m 0,0,1
 456 336 456 336 456 291 c 0,2,3
 456 276 456 276 433 252.5 c 128,-1,4
 410 229 410 229 373.5 203 c 128,-1,5
 337 177 337 177 295 152.5 c 128,-1,6
 253 128 253 128 214.5 111 c 128,-1,7
 176 94 176 94 148.5 88.5 c 128,-1,8
 121 83 121 83 114 94 c 0,9,10
 95 128 95 128 236 210 c 0,11,12
 377 291 377 291 236 373 c 0,13,14
 165 414 165 414 135 444.5 c 128,-1,15
 105 475 105 475 114 488 c 128,-1,16
 123 501 123 501 168.5 488.5 c 128,-1,17
 214 476 214 476 295 429 c 0,0,1
EndSplineSet
EndChar

StartChar: less
Encoding: 60 60 504
Width: 550
GlyphClass: 1
Flags: W
LayerCount: 2
Fore
SplineSet
255 429 m 0,0,1
 336 476 336 476 381.5 488.5 c 128,-1,2
 427 501 427 501 436 488 c 128,-1,3
 445 475 445 475 415 444.5 c 128,-1,4
 385 414 385 414 314 373 c 0,5,6
 173 291 173 291 314 210 c 0,7,8
 455 128 455 128 436 94 c 0,9,10
 429 83 429 83 401.5 88.5 c 128,-1,11
 374 94 374 94 335.5 111 c 128,-1,12
 297 128 297 128 255 152.5 c 128,-1,13
 213 177 213 177 176.5 203 c 128,-1,14
 140 229 140 229 117 252.5 c 128,-1,15
 94 276 94 276 94 291 c 0,16,17
 94 336 94 336 255 429 c 0,0,1
EndSplineSet
EndChar

StartChar: greaterequal
Encoding: 8805 8805 505
Width: 550
GlyphClass: 1
Flags: W
LayerCount: 2
Fore
SplineSet
308 435 m 0,0,1
 469 342 469 342 469 297 c 0,2,3
 469 282 469 282 444.5 262 c 128,-1,4
 420 242 420 242 381 221.5 c 128,-1,5
 342 201 342 201 298 183.5 c 128,-1,6
 254 166 254 166 213.5 154.5 c 128,-1,7
 173 143 173 143 146 142 c 128,-1,8
 119 141 119 141 114 153 c 0,9,10
 101 190 101 190 239 247 c 256,11,12
 377 304 377 304 242 382 c 0,13,14
 175 421 175 421 146.5 451 c 128,-1,15
 118 481 118 481 127 494 c 128,-1,16
 136 507 136 507 181.5 494.5 c 128,-1,17
 227 482 227 482 308 435 c 0,0,1
110 28 m 0,18,19
 110 65 110 65 280 65 c 256,20,21
 450 65 450 65 450 28 c 0,22,23
 450 -10 450 -10 280 -10 c 256,24,25
 110 -10 110 -10 110 28 c 0,18,19
EndSplineSet
EndChar

StartChar: lessequal
Encoding: 8804 8804 506
Width: 550
GlyphClass: 1
Flags: W
LayerCount: 2
Fore
SplineSet
242 435 m 0,0,1
 323 482 323 482 368.5 494.5 c 128,-1,2
 414 507 414 507 423 494 c 128,-1,3
 432 481 432 481 404 451 c 128,-1,4
 376 421 376 421 308 382 c 0,5,6
 173 304 173 304 311 247 c 256,7,8
 449 190 449 190 436 153 c 0,9,10
 432 141 432 141 404.5 142 c 128,-1,11
 377 143 377 143 336.5 154.5 c 128,-1,12
 296 166 296 166 252 183.5 c 128,-1,13
 208 201 208 201 169 221.5 c 128,-1,14
 130 242 130 242 105.5 262 c 128,-1,15
 81 282 81 282 81 297 c 0,16,17
 81 342 81 342 242 435 c 0,0,1
440 28 m 0,18,19
 440 -10 440 -10 270 -10 c 256,20,21
 100 -10 100 -10 100 28 c 0,22,23
 100 65 100 65 270 65 c 256,24,25
 440 65 440 65 440 28 c 0,18,19
EndSplineSet
EndChar

StartChar: plusminus
Encoding: 177 177 507
Width: 550
GlyphClass: 1
Flags: W
LayerCount: 2
Fore
SplineSet
383 325 m 0,0,1
 455 325 455 325 455 290 c 256,2,3
 455 255 455 255 383 255 c 0,4,5
 310 255 310 255 310 193 c 0,6,7
 310 130 310 130 275 130 c 256,8,9
 240 130 240 130 240 193 c 0,10,11
 240 255 240 255 168 255 c 0,12,13
 95 255 95 255 95 290 c 256,14,15
 95 325 95 325 168 325 c 0,16,17
 240 325 240 325 240 388 c 0,18,19
 240 450 240 450 275 450 c 256,20,21
 310 450 310 450 310 388 c 0,22,23
 310 325 310 325 383 325 c 0,0,1
105 28 m 0,24,25
 105 65 105 65 275 65 c 256,26,27
 445 65 445 65 445 28 c 0,28,29
 445 -10 445 -10 275 -10 c 256,30,31
 105 -10 105 -10 105 28 c 0,24,25
EndSplineSet
EndChar

StartChar: approxequal
Encoding: 8776 8776 508
Width: 550
GlyphClass: 1
Flags: W
LayerCount: 2
Fore
SplineSet
435 428 m 256,0,1
 468 428 468 428 470 420 c 2,2,-1
 470 358 l 1,3,-1
 415 300 l 1,4,-1
 341 300 l 1,5,-1
 296 321 l 2,6,7
 282 331 282 331 270 340 c 128,-1,8
 258 349 258 349 247 356 c 2,9,-1
 216 372 l 1,10,-1
 174 372 l 1,11,-1
 147 341 l 1,12,13
 147 320 147 320 114 320 c 0,14,15
 82 320 82 320 80 328 c 2,16,-1
 80 390 l 1,17,-1
 138 448 l 1,18,-1
 218 448 l 1,19,-1
 264 427 l 1,20,21
 293 408 293 408 315 391 c 1,22,-1
 344 376 l 1,23,-1
 402 376 l 1,24,25
 402 428 402 428 435 428 c 256,0,1
435 251 m 256,26,27
 468 251 468 251 470 243 c 2,28,-1
 470 181 l 1,29,-1
 415 123 l 1,30,-1
 341 123 l 1,31,-1
 296 144 l 2,32,33
 282 154 282 154 270 163 c 128,-1,34
 258 172 258 172 247 179 c 2,35,-1
 216 195 l 1,36,-1
 174 195 l 1,37,-1
 147 164 l 1,38,39
 147 143 147 143 114 143 c 0,40,41
 82 143 82 143 80 151 c 2,42,-1
 80 213 l 1,43,-1
 138 271 l 1,44,-1
 218 271 l 1,45,-1
 264 250 l 1,46,47
 293 231 293 231 315 214 c 1,48,-1
 344 199 l 1,49,-1
 402 199 l 1,50,51
 402 251 402 251 435 251 c 256,26,27
EndSplineSet
EndChar

StartChar: logicalnot
Encoding: 172 172 510
Width: 550
GlyphClass: 1
Flags: W
LayerCount: 2
Fore
SplineSet
480 283 m 0,0,1
 480 160 480 160 440 160 c 256,2,3
 400 160 400 160 400 245 c 256,4,5
 400 330 400 330 235 330 c 256,6,7
 70 330 70 330 70 368 c 0,8,9
 70 405 70 405 275 405 c 256,10,11
 480 405 480 405 480 283 c 0,0,1
EndSplineSet
EndChar

StartChar: emptyset
Encoding: 8709 8709 512
Width: 550
GlyphClass: 1
Flags: W
LayerCount: 2
Fore
SplineSet
472 472 m 1,0,-1
 512 364 l 1,1,-1
 512 226 l 1,2,-1
 453 100 l 1,3,-1
 345 26 l 1,4,-1
 219 26 l 1,5,6
 172 51 172 51 137 -8 c 0,7,8
 120 -38 120 -38 102 -48 c 128,-1,9
 84 -58 84 -58 72 -50.5 c 128,-1,10
 60 -43 60 -43 60 -22 c 128,-1,11
 60 -1 60 -1 78 31 c 0,12,13
 115 94 115 94 79 133 c 1,14,-1
 39 240 l 1,15,-1
 39 378 l 1,16,-1
 98 505 l 1,17,-1
 206 579 l 1,18,-1
 333 579 l 1,19,20
 380 553 380 553 415 613 c 0,21,22
 432 643 432 643 450 653 c 128,-1,23
 468 663 468 663 479.5 655.5 c 128,-1,24
 491 648 491 648 491 627 c 128,-1,25
 491 606 491 606 473 574 c 0,26,27
 436 510 436 510 472 472 c 1,0,-1
111 218 m 1,28,29
 125 199 125 199 148 210.5 c 128,-1,30
 171 222 171 222 197.5 253.5 c 128,-1,31
 224 285 224 285 248.5 325.5 c 128,-1,32
 273 366 273 366 291.5 406 c 128,-1,33
 310 446 310 446 316.5 474 c 128,-1,34
 323 502 323 502 312 507 c 1,35,-1
 225 507 l 1,36,-1
 151 452 l 1,37,-1
 111 359 l 1,38,-1
 111 218 l 1,28,29
325 98 m 1,39,-1
 400 152 l 1,40,-1
 440 246 l 1,41,-1
 440 388 l 1,42,43
 426 407 426 407 403 395 c 128,-1,44
 380 383 380 383 353.5 351.5 c 128,-1,45
 327 320 327 320 302.5 279 c 128,-1,46
 278 238 278 238 259.5 198.5 c 128,-1,47
 241 159 241 159 234.5 131 c 128,-1,48
 228 103 228 103 239 98 c 1,49,-1
 325 98 l 1,39,-1
EndSplineSet
EndChar

StartChar: infinity
Encoding: 8734 8734 513
Width: 550
GlyphClass: 1
Flags: W
LayerCount: 2
Fore
SplineSet
458 510 m 1,0,-1
 534 389 l 1,1,-1
 534 209 l 1,2,-1
 458 88 l 1,3,-1
 350 88 l 1,4,-1
 294 147 l 1,5,6
 274 200 274 200 255 148 c 1,7,-1
 199 89 l 1,8,-1
 91 89 l 1,9,-1
 15 210 l 1,10,-1
 15 389 l 1,11,-1
 91 510 l 1,12,-1
 199 510 l 1,13,-1
 255 452 l 1,14,15
 275 399 275 399 294 451 c 1,16,-1
 350 510 l 1,17,-1
 458 510 l 1,0,-1
427 160 m 1,18,-1
 462 238 l 1,19,-1
 462 361 l 1,20,-1
 427 438 l 1,21,-1
 361 438 l 1,22,-1
 324 369 l 1,23,24
 305 302 305 302 325 228 c 1,25,-1
 361 160 l 1,26,-1
 427 160 l 1,18,-1
188 161 m 1,27,-1
 225 230 l 1,28,29
 245 299 245 299 225 368 c 1,30,-1
 188 437 l 1,31,-1
 122 437 l 1,32,-1
 87 361 l 1,33,-1
 87 239 l 1,34,-1
 122 161 l 1,35,-1
 188 161 l 1,27,-1
EndSplineSet
EndChar

StartChar: integral
Encoding: 8747 8747 514
Width: 550
GlyphClass: 1
Flags: W
LayerCount: 2
Fore
SplineSet
454 760 m 2,0,1
 501 760 501 760 501 720 c 256,2,3
 501 680 501 680 454 680 c 0,4,5
 430 680 430 680 395.5 680.5 c 128,-1,6
 361 681 361 681 316 682 c 1,7,-1
 316 -26 l 1,8,-1
 225 -110 l 1,9,-1
 98 -110 l 2,10,11
 50 -110 50 -110 50 -70 c 256,12,13
 50 -30 50 -30 98 -30 c 0,14,15
 122 -30 122 -30 156.5 -30.5 c 128,-1,16
 191 -31 191 -31 236 -32 c 1,17,-1
 236 676 l 1,18,-1
 327 760 l 1,19,-1
 454 760 l 2,0,1
EndSplineSet
EndChar

StartChar: product
Encoding: 8719 8719 515
Width: 550
GlyphClass: 1
Flags: W
LayerCount: 2
Fore
SplineSet
515 612 m 0,0,1
 515 573 515 573 465 573 c 256,2,3
 415 573 415 573 415 287 c 0,4,5
 415 0 415 0 375 0 c 256,6,7
 335 0 335 0 335 287 c 0,8,9
 335 573 335 573 275 573 c 256,10,11
 215 573 215 573 215 287 c 0,12,13
 215 0 215 0 175 0 c 256,14,15
 135 0 135 0 135 287 c 0,16,17
 135 573 135 573 85 573 c 256,18,19
 35 573 35 573 35 612 c 0,20,21
 35 650 35 650 275 650 c 256,22,23
 515 650 515 650 515 612 c 0,0,1
EndSplineSet
EndChar

StartChar: summation
Encoding: 8721 8721 516
Width: 550
GlyphClass: 1
Flags: W
LayerCount: 2
Fore
SplineSet
485 613 m 0,0,1
 485 575 485 575 323 575 c 256,2,3
 161 575 161 575 261 446 c 0,4,5
 362 317 362 317 262 196 c 256,6,7
 162 75 162 75 324 75 c 0,8,9
 485 75 485 75 485 38 c 0,10,11
 485 0 485 0 275 0 c 256,12,13
 65 0 65 0 65 37 c 0,14,15
 65 73 65 73 167 196 c 0,16,17
 268 318 268 318 167 445 c 0,18,19
 65 571 65 571 65 611 c 0,20,21
 65 650 65 650 275 650 c 256,22,23
 485 650 485 650 485 613 c 0,0,1
EndSplineSet
EndChar

StartChar: radical
Encoding: 8730 8730 517
Width: 550
GlyphClass: 1
Flags: W
LayerCount: 2
Fore
SplineSet
529 613 m 0,0,1
 529 575 529 575 473 575 c 256,2,3
 417 575 417 575 360 288 c 0,4,5
 302 0 302 0 265 0 c 0,6,7
 254 0 254 0 236 27 c 128,-1,8
 218 54 218 54 196.5 98.5 c 128,-1,9
 175 143 175 143 153.5 196.5 c 128,-1,10
 132 250 132 250 114 303.5 c 128,-1,11
 96 357 96 357 84 401.5 c 128,-1,12
 72 446 72 446 71 473 c 128,-1,13
 70 500 70 500 82 500 c 0,14,15
 124 500 124 500 189 318 c 0,16,17
 252 137 252 137 301 393 c 0,18,19
 349 650 349 650 439 650 c 256,20,21
 529 650 529 650 529 613 c 0,0,1
EndSplineSet
EndChar

StartChar: uni00B5
Encoding: 181 181 518
Width: 550
GlyphClass: 1
Flags: W
LayerCount: 2
Fore
SplineSet
467 96 m 1,0,-1
 499 70 l 1,1,2
 530 70 530 70 530 30 c 256,3,4
 530 -10 530 -10 462 -10 c 1,5,-1
 387 63 l 1,6,-1
 387 143 l 2,7,8
 387 155 387 155 383.5 144 c 128,-1,9
 380 133 380 133 373 98 c 1,10,-1
 296 -10 l 1,11,-1
 155 -10 l 1,12,13
 123 39 123 39 123 -81 c 0,14,15
 123 -200 123 -200 83 -200 c 256,16,17
 43 -200 43 -200 43 150 c 256,18,19
 43 500 43 500 83 500 c 256,20,21
 123 500 123 500 123 344 c 2,22,-1
 123 70 l 1,23,-1
 302 70 l 1,24,-1
 373 156 l 1,25,26
 387 210 387 210 387 354 c 0,27,28
 387 500 387 500 427 500 c 256,29,30
 467 500 467 500 467 315 c 2,31,-1
 467 96 l 1,0,-1
EndSplineSet
EndChar

StartChar: partialdiff
Encoding: 8706 8706 519
Width: 550
GlyphClass: 1
Flags: W
LayerCount: 2
Fore
SplineSet
505 576 m 1,0,-1
 505 188 l 1,1,-1
 453 67 l 1,2,-1
 349 -10 l 1,3,-1
 169 -10 l 1,4,-1
 51 133 l 1,5,-1
 51 324 l 1,6,-1
 101 443 l 1,7,-1
 193 510 l 1,8,-1
 343 510 l 1,9,10
 387 448 387 448 320 569 c 1,11,12
 119 642 119 642 134 676 c 0,13,14
 147 710 147 710 505 576 c 1,0,-1
348 67 m 1,15,-1
 425 170 l 1,16,-1
 425 334 l 1,17,-1
 348 433 l 1,18,-1
 203 433 l 1,19,-1
 131 333 l 1,20,-1
 131 167 l 1,21,-1
 206 67 l 1,22,-1
 348 67 l 1,15,-1
EndSplineSet
EndChar

StartChar: percent
Encoding: 37 37 520
Width: 550
GlyphClass: 1
Flags: W
LayerCount: 2
Fore
SplineSet
405 699 m 256,0,1
 412 697 412 697 407 663.5 c 128,-1,2
 402 630 402 630 387 575.5 c 128,-1,3
 372 521 372 521 351 454 c 128,-1,4
 330 387 330 387 306 316 c 128,-1,5
 282 245 282 245 257 179.5 c 128,-1,6
 232 114 232 114 210 62 c 128,-1,7
 188 10 188 10 172 -19.5 c 128,-1,8
 156 -49 156 -49 149 -46 c 256,9,10
 142 -43 142 -43 147.5 -9.5 c 128,-1,11
 153 24 153 24 167.5 78.5 c 128,-1,12
 182 133 182 133 203 199.5 c 128,-1,13
 224 266 224 266 248 337 c 128,-1,14
 272 408 272 408 296.5 473.5 c 128,-1,15
 321 539 321 539 343 590.5 c 128,-1,16
 365 642 365 642 381.5 671.5 c 128,-1,17
 398 701 398 701 405 699 c 256,0,1
79 336 m 1,18,-1
 20 425 l 1,19,-1
 20 572 l 1,20,-1
 79 660 l 1,21,-1
 187 660 l 1,22,-1
 246 572 l 1,23,-1
 246 426 l 1,24,-1
 186 336 l 1,25,-1
 79 336 l 1,18,-1
172 410 m 1,26,-1
 172 587 l 1,27,-1
 94 587 l 1,28,-1
 94 410 l 1,29,-1
 172 410 l 1,26,-1
364 -10 m 1,30,-1
 305 79 l 1,31,-1
 305 225 l 1,32,-1
 364 314 l 1,33,-1
 472 314 l 1,34,-1
 531 225 l 1,35,-1
 531 79 l 1,36,-1
 472 -10 l 1,37,-1
 364 -10 l 1,30,-1
457 63 m 1,38,-1
 457 240 l 1,39,-1
 379 240 l 1,40,-1
 379 63 l 1,41,-1
 457 63 l 1,38,-1
EndSplineSet
EndChar

StartChar: perthousand
Encoding: 8240 8240 521
Width: 550
GlyphClass: 1
Flags: W
LayerCount: 2
Fore
SplineSet
404 699 m 256,0,1
 411 697 411 697 406 663.5 c 128,-1,2
 401 630 401 630 386 575.5 c 128,-1,3
 371 521 371 521 350.5 454 c 128,-1,4
 330 387 330 387 305.5 316 c 128,-1,5
 281 245 281 245 256.5 179.5 c 128,-1,6
 232 114 232 114 210 62 c 128,-1,7
 188 10 188 10 172 -19.5 c 128,-1,8
 156 -49 156 -49 149 -46 c 256,9,10
 142 -43 142 -43 147.5 -9.5 c 128,-1,11
 153 24 153 24 167.5 78.5 c 128,-1,12
 182 133 182 133 202.5 199.5 c 128,-1,13
 223 266 223 266 247.5 337 c 128,-1,14
 272 408 272 408 296.5 473.5 c 128,-1,15
 321 539 321 539 342.5 590.5 c 128,-1,16
 364 642 364 642 380.5 671.5 c 128,-1,17
 397 701 397 701 404 699 c 256,0,1
79 336 m 1,18,-1
 20 425 l 1,19,-1
 20 572 l 1,20,-1
 79 660 l 1,21,-1
 187 660 l 1,22,-1
 246 572 l 1,23,-1
 246 426 l 1,24,-1
 186 336 l 1,25,-1
 79 336 l 1,18,-1
172 410 m 1,26,-1
 172 587 l 1,27,-1
 94 587 l 1,28,-1
 94 410 l 1,29,-1
 172 410 l 1,26,-1
381 133 m 1,30,-1
 325 196 l 1,31,-1
 325 294 l 1,32,-1
 381 357 l 1,33,-1
 475 357 l 1,34,-1
 531 295 l 1,35,-1
 531 195 l 1,36,-1
 475 133 l 1,37,-1
 381 133 l 1,30,-1
462 197 m 1,38,-1
 462 292 l 1,39,-1
 394 292 l 1,40,-1
 394 197 l 1,41,-1
 462 197 l 1,38,-1
300 -116 m 1,42,-1
 244 -53 l 1,43,-1
 244 46 l 1,44,-1
 299 108 l 1,45,-1
 393 108 l 1,46,-1
 449 46 l 1,47,-1
 449 -53 l 1,48,-1
 393 -116 l 1,49,-1
 300 -116 l 1,42,-1
380 -52 m 1,50,-1
 380 44 l 1,51,-1
 312 44 l 1,52,-1
 312 -27 l 1,53,-1
 330 -52 l 1,54,-1
 380 -52 l 1,50,-1
EndSplineSet
EndChar

StartChar: arrowup
Encoding: 8593 8593 522
Width: 550
GlyphClass: 1
Flags: W
LayerCount: 2
Fore
SplineSet
384 601 m 0,0,1
 438 552 438 552 456.5 519.5 c 128,-1,2
 475 487 475 487 465.5 474.5 c 128,-1,3
 456 462 456 462 427 473 c 128,-1,4
 398 484 398 484 357 521 c 0,5,6
 275 594 275 594 194 521 c 0,7,8
 153 484 153 484 123.5 473 c 128,-1,9
 94 462 94 462 84.5 474.5 c 128,-1,10
 75 487 75 487 93.5 519.5 c 128,-1,11
 112 552 112 552 166 601 c 0,12,13
 275 700 275 700 384 601 c 0,0,1
275 510 m 0,14,15
 312 510 312 510 312 265 c 256,16,17
 312 20 312 20 275 20 c 0,18,19
 237 20 237 20 237 265 c 256,20,21
 237 510 237 510 275 510 c 0,14,15
EndSplineSet
EndChar

StartChar: uni2197
Encoding: 8599 8599 523
Width: 550
GlyphClass: 1
Flags: W
LayerCount: 2
Fore
SplineSet
316 505 m 0,0,1
 365 503 365 503 397 480 c 128,-1,2
 429 457 429 457 446.5 423 c 128,-1,3
 464 389 464 389 470 351 c 128,-1,4
 476 313 476 313 473 279.5 c 128,-1,5
 470 246 470 246 460.5 225 c 128,-1,6
 451 204 451 204 439 204 c 0,7,8
 400 203 400 203 394 314 c 0,9,10
 389 423 389 423 279 429 c 0,11,12
 224 432 224 432 195.5 445 c 128,-1,13
 167 458 167 458 169 473 c 128,-1,14
 171 488 171 488 207 498 c 128,-1,15
 243 508 243 508 316 505 c 0,0,1
328 364 m 0,16,17
 355 337 355 337 241 223 c 256,18,19
 127 109 127 109 100 136 c 0,20,21
 74 162 74 162 188 277 c 0,22,23
 302 390 302 390 328 364 c 0,16,17
EndSplineSet
EndChar

StartChar: arrowright
Encoding: 8594 8594 524
Width: 550
GlyphClass: 1
Flags: W
LayerCount: 2
Fore
SplineSet
459 388 m 0,0,1
 492 352 492 352 498.5 313.5 c 128,-1,2
 505 275 505 275 493.5 238 c 128,-1,3
 482 201 482 201 459.5 170 c 128,-1,4
 437 139 437 139 411 117.5 c 128,-1,5
 385 96 385 96 363.5 88 c 128,-1,6
 342 80 342 80 333 89 c 0,7,8
 305 115 305 115 379 198 c 0,9,10
 452 279 452 279 379 361 c 0,11,12
 342 402 342 402 331 431 c 128,-1,13
 320 460 320 460 332.5 469.5 c 128,-1,14
 345 479 345 479 377.5 460.5 c 128,-1,15
 410 442 410 442 459 388 c 0,0,1
368 280 m 0,16,17
 368 242 368 242 207 242 c 0,18,19
 45 242 45 242 45 280 c 0,20,21
 45 317 45 317 207 317 c 0,22,23
 368 317 368 317 368 280 c 0,16,17
EndSplineSet
EndChar

StartChar: uni2198
Encoding: 8600 8600 525
Width: 550
GlyphClass: 1
Flags: W
LayerCount: 2
Fore
SplineSet
329 230 m 0,0,1
 302 203 302 203 188 317 c 256,2,3
 74 431 74 431 101 458 c 0,4,5
 127 484 127 484 242 370 c 0,6,7
 355 256 355 256 329 230 c 0,0,1
470 242 m 0,8,9
 468 193 468 193 445 161 c 128,-1,10
 422 129 422 129 388 111.5 c 128,-1,11
 354 94 354 94 316 88 c 128,-1,12
 278 82 278 82 244.5 85 c 128,-1,13
 211 88 211 88 190 97.5 c 128,-1,14
 169 107 169 107 169 119 c 0,15,16
 168 158 168 158 279 164 c 0,17,18
 388 169 388 169 394 279 c 0,19,20
 397 334 397 334 410 362.5 c 128,-1,21
 423 391 423 391 438 389 c 128,-1,22
 453 387 453 387 463 351 c 128,-1,23
 473 315 473 315 470 242 c 0,8,9
EndSplineSet
EndChar

StartChar: arrowdown
Encoding: 8595 8595 526
Width: 550
GlyphClass: 1
Flags: W
LayerCount: 2
Fore
SplineSet
276 118 m 0,0,1
 238 118 238 118 238 363 c 256,2,3
 238 608 238 608 276 608 c 0,4,5
 313 608 313 608 313 363 c 256,6,7
 313 118 313 118 276 118 c 0,0,1
466 154 m 0,8,9
 475 145 475 145 466.5 123 c 128,-1,10
 458 101 458 101 436.5 75.5 c 128,-1,11
 415 50 415 50 384 27.5 c 128,-1,12
 353 5 353 5 316 -7 c 128,-1,13
 279 -19 279 -19 240.5 -12.5 c 128,-1,14
 202 -6 202 -6 166 27 c 0,15,16
 112 77 112 77 93.5 109 c 128,-1,17
 75 141 75 141 84.5 153.5 c 128,-1,18
 94 166 94 166 123.5 155 c 128,-1,19
 153 144 153 144 194 107 c 0,20,21
 275 34 275 34 357 107 c 0,22,23
 438 181 438 181 466 154 c 0,8,9
EndSplineSet
EndChar

StartChar: uni2199
Encoding: 8601 8601 527
Width: 550
GlyphClass: 1
Flags: W
LayerCount: 2
Fore
SplineSet
449 459 m 0,0,1
 476 432 476 432 362 318 c 256,2,3
 248 204 248 204 221 231 c 0,4,5
 195 257 195 257 309 371 c 256,6,7
 423 485 423 485 449 459 c 0,0,1
156 280 m 0,8,9
 162 170 162 170 271 165 c 0,10,11
 326 162 326 162 354.5 149 c 128,-1,12
 383 136 383 136 381 120.5 c 128,-1,13
 379 105 379 105 343.5 95 c 128,-1,14
 308 85 308 85 234 89 c 0,15,16
 185 91 185 91 153 113.5 c 128,-1,17
 121 136 121 136 103.5 170.5 c 128,-1,18
 86 205 86 205 80 243 c 128,-1,19
 74 281 74 281 77 314.5 c 128,-1,20
 80 348 80 348 89.5 369 c 128,-1,21
 99 390 99 390 112 390 c 0,22,23
 150 389 150 389 156 280 c 0,8,9
EndSplineSet
EndChar

StartChar: arrowleft
Encoding: 8592 8592 528
Width: 550
GlyphClass: 1
Flags: W
LayerCount: 2
Fore
SplineSet
171 361 m 0,0,1
 98 279 98 279 171 198 c 0,2,3
 208 157 208 157 219 127.5 c 128,-1,4
 230 98 230 98 217.5 88.5 c 128,-1,5
 205 79 205 79 173 97.5 c 128,-1,6
 141 116 141 116 91 170 c 0,7,8
 58 206 58 206 51.5 244.5 c 128,-1,9
 45 283 45 283 57 320 c 128,-1,10
 69 357 69 357 91.5 388 c 128,-1,11
 114 419 114 419 139.5 440.5 c 128,-1,12
 165 462 165 462 187 470.5 c 128,-1,13
 209 479 209 479 218 470 c 0,14,15
 245 442 245 442 171 361 c 0,0,1
505 280 m 0,16,17
 505 242 505 242 344 242 c 0,18,19
 182 242 182 242 182 280 c 0,20,21
 182 317 182 317 344 317 c 0,22,23
 505 317 505 317 505 280 c 0,16,17
EndSplineSet
EndChar

StartChar: uni2196
Encoding: 8598 8598 529
Width: 550
GlyphClass: 1
Flags: W
LayerCount: 2
Fore
SplineSet
270 435 m 0,0,1
 160 429 160 429 155 320 c 0,2,3
 152 265 152 265 139 236.5 c 128,-1,4
 126 208 126 208 110.5 210 c 128,-1,5
 95 212 95 212 85 247.5 c 128,-1,6
 75 283 75 283 79 357 c 0,7,8
 81 406 81 406 103.5 438 c 128,-1,9
 126 470 126 470 160.5 487.5 c 128,-1,10
 195 505 195 505 233 511 c 128,-1,11
 271 517 271 517 304.5 514 c 128,-1,12
 338 511 338 511 359 501.5 c 128,-1,13
 380 492 380 492 380 479 c 0,14,15
 379 441 379 441 270 435 c 0,0,1
449 142 m 0,16,17
 422 115 422 115 308 229 c 256,18,19
 194 343 194 343 221 370 c 0,20,21
 247 396 247 396 361 282 c 256,22,23
 475 168 475 168 449 142 c 0,16,17
EndSplineSet
EndChar

StartChar: arrowboth
Encoding: 8596 8596 530
Width: 550
GlyphClass: 1
Flags: W
LayerCount: 2
Fore
SplineSet
171 361 m 0,0,1
 98 279 98 279 171 198 c 0,2,3
 208 157 208 157 219 127.5 c 128,-1,4
 230 98 230 98 217.5 88.5 c 128,-1,5
 205 79 205 79 173 97.5 c 128,-1,6
 141 116 141 116 91 170 c 0,7,8
 58 206 58 206 51.5 244.5 c 128,-1,9
 45 283 45 283 57 320 c 128,-1,10
 69 357 69 357 91.5 388 c 128,-1,11
 114 419 114 419 139.5 440.5 c 128,-1,12
 165 462 165 462 187 470.5 c 128,-1,13
 209 479 209 479 218 470 c 0,14,15
 245 442 245 442 171 361 c 0,0,1
460 388 m 0,16,17
 493 352 493 352 499.5 313.5 c 128,-1,18
 506 275 506 275 494.5 238 c 128,-1,19
 483 201 483 201 460.5 170 c 128,-1,20
 438 139 438 139 412 117.5 c 128,-1,21
 386 96 386 96 364.5 88 c 128,-1,22
 343 80 343 80 334 89 c 0,23,24
 306 115 306 115 380 198 c 0,25,26
 453 279 453 279 380 361 c 0,27,28
 343 402 343 402 332 431 c 128,-1,29
 321 460 321 460 333.5 469.5 c 128,-1,30
 346 479 346 479 378.5 460.5 c 128,-1,31
 411 442 411 442 460 388 c 0,16,17
369 280 m 0,32,33
 369 242 369 242 274 242 c 256,34,35
 179 242 179 242 179 280 c 0,36,37
 179 317 179 317 274 317 c 256,38,39
 369 317 369 317 369 280 c 0,32,33
EndSplineSet
EndChar

StartChar: arrowupdn
Encoding: 8597 8597 531
Width: 550
GlyphClass: 1
Flags: W
LayerCount: 2
Fore
SplineSet
194 521 m 0,0,1
 153 484 153 484 123.5 472.5 c 128,-1,2
 94 461 94 461 84.5 473.5 c 128,-1,3
 75 486 75 486 93.5 518.5 c 128,-1,4
 112 551 112 551 166 600 c 0,5,6
 202 633 202 633 240.5 639.5 c 128,-1,7
 279 646 279 646 316 634.5 c 128,-1,8
 353 623 353 623 384 600.5 c 128,-1,9
 415 578 415 578 436.5 552 c 128,-1,10
 458 526 458 526 466.5 504.5 c 128,-1,11
 475 483 475 483 466 474 c 0,12,13
 438 446 438 446 357 521 c 0,14,15
 275 594 275 594 194 521 c 0,0,1
275 512 m 0,16,17
 312 512 312 512 312 315 c 0,18,19
 312 117 312 117 275 117 c 0,20,21
 237 117 237 117 237 315 c 0,22,23
 237 512 237 512 275 512 c 0,16,17
357 107 m 0,24,25
 398 144 398 144 427 155 c 128,-1,26
 456 166 456 166 465.5 153.5 c 128,-1,27
 475 141 475 141 456.5 109 c 128,-1,28
 438 77 438 77 384 27 c 0,29,30
 348 -6 348 -6 309.5 -12.5 c 128,-1,31
 271 -19 271 -19 234 -7 c 128,-1,32
 197 5 197 5 166 27.5 c 128,-1,33
 135 50 135 50 113.5 75.5 c 128,-1,34
 92 101 92 101 84 123 c 128,-1,35
 76 145 76 145 85 154 c 0,36,37
 112 181 112 181 194 107 c 0,38,39
 275 32 275 32 357 107 c 0,24,25
EndSplineSet
EndChar

StartChar: lozenge
Encoding: 9674 9674 532
Width: 550
GlyphClass: 1
Flags: W
LayerCount: 2
Fore
SplineSet
388 509 m 256,0,1
 426 452 426 452 435 389 c 128,-1,2
 444 326 444 326 431 268 c 128,-1,3
 418 210 418 210 389 166 c 128,-1,4
 360 122 360 122 322 102 c 128,-1,5
 284 82 284 82 242.5 95.5 c 128,-1,6
 201 109 201 109 163 166 c 256,7,8
 125 223 125 223 116 286 c 128,-1,9
 107 349 107 349 120.5 407 c 128,-1,10
 134 465 134 465 162.5 508.5 c 128,-1,11
 191 552 191 552 229 572 c 128,-1,12
 267 592 267 592 308.5 579 c 128,-1,13
 350 566 350 566 388 509 c 256,0,1
205 440 m 256,14,15
 177 399 177 399 174.5 353.5 c 128,-1,16
 172 308 172 308 187.5 269.5 c 128,-1,17
 203 231 203 231 229.5 208.5 c 128,-1,18
 256 186 256 186 287.5 190 c 128,-1,19
 319 194 319 194 347 235 c 256,20,21
 375 276 375 276 377.5 321 c 128,-1,22
 380 366 380 366 364.5 405 c 128,-1,23
 349 444 349 444 322.5 466 c 128,-1,24
 296 488 296 488 264.5 484.5 c 128,-1,25
 233 481 233 481 205 440 c 256,14,15
EndSplineSet
EndChar

StartChar: at
Encoding: 64 64 533
Width: 550
GlyphClass: 1
Flags: W
LayerCount: 2
Fore
SplineSet
501 527 m 1,0,-1
 501 450 l 1,1,-1
 490 384 l 2,2,3
 484 359 484 359 480.5 345 c 128,-1,4
 477 331 477 331 476 327 c 0,5,6
 474 317 474 317 471 304 c 128,-1,7
 468 291 468 291 464 277 c 2,8,-1
 438 198 l 1,9,-1
 423 183 l 1,10,-1
 409 172 l 2,11,12
 407 170 407 170 406 168 c 128,-1,13
 405 166 405 166 404 165 c 2,14,-1
 400 157 l 2,15,16
 396 154 396 154 392 154 c 2,17,-1
 384 160 l 2,18,19
 383 161 383 161 349 178 c 1,20,21
 349 219 349 219 349.5 252 c 128,-1,22
 350 285 350 285 352 323 c 2,23,-1
 352 351 l 1,24,25
 356 367 356 367 357.5 376 c 128,-1,26
 359 385 359 385 360 387 c 2,27,-1
 365 403 l 1,28,29
 364 401 364 401 351 383 c 1,30,31
 336 343 336 343 336 342 c 2,32,-1
 336 340 l 1,33,34
 336 340 336 340 335 338 c 128,-1,35
 334 336 334 336 332 331 c 0,36,37
 328 316 328 316 322 297.5 c 128,-1,38
 316 279 316 279 309 256 c 2,39,-1
 290 209 l 2,40,41
 283 199 283 199 275 188 c 128,-1,42
 267 177 267 177 259 165 c 0,43,44
 211 108 211 108 190 84 c 0,45,46
 180 71 180 71 174.5 65 c 128,-1,47
 169 59 169 59 169 59 c 2,48,49
 169 58 169 58 166 58 c 1,50,51
 166 82 166 82 165 104 c 128,-1,52
 164 126 164 126 161 153 c 2,53,-1
 161 207 l 2,54,55
 162 212 162 212 164 225 c 128,-1,56
 166 238 166 238 168 258 c 0,57,58
 181 302 181 302 188 327 c 128,-1,59
 195 352 195 352 199 366.5 c 128,-1,60
 203 381 203 381 206 393 c 0,61,62
 210 412 210 412 212 421.5 c 128,-1,63
 214 431 214 431 214 432 c 2,64,-1
 214 442 l 2,65,66
 213 446 213 446 213 449.5 c 128,-1,67
 213 453 213 453 213 456 c 1,68,-1
 218 456 l 1,69,-1
 224 453 l 1,70,71
 224 453 224 453 230 451 c 2,72,-1
 255 447 l 2,73,74
 258 446 258 446 262 444 c 128,-1,75
 266 442 266 442 270 440 c 2,76,-1
 313 413 l 2,77,78
 321 408 321 408 335 443 c 0,79,80
 340 448 340 448 348.5 457.5 c 128,-1,81
 357 467 357 467 368 480 c 1,82,-1
 394 480 l 1,83,-1
 405 455 l 1,84,-1
 405 408 l 1,85,86
 401 387 401 387 398.5 375 c 128,-1,87
 396 363 396 363 394 359 c 0,88,89
 391 352 391 352 391 317 c 0,90,91
 390 300 390 300 390 287 c 128,-1,92
 390 274 390 274 389 265 c 0,93,94
 389 224 389 224 400.5 229.5 c 128,-1,95
 412 235 412 235 418 280 c 0,96,97
 422 310 422 310 424.5 326 c 128,-1,98
 427 342 427 342 431 358 c 128,-1,99
 435 374 435 374 442 403 c 2,100,-1
 452 458 l 1,101,-1
 452 515 l 1,102,103
 448 529 448 529 445 538.5 c 128,-1,104
 442 548 442 548 440 552 c 2,105,-1
 439 559 l 1,106,-1
 435 560 l 2,107,108
 432 562 432 562 430.5 563 c 128,-1,109
 429 564 429 564 428 565 c 2,110,-1
 412 576 l 1,111,112
 388 584 388 584 390 582 c 1,113,-1
 378 583 l 1,114,-1
 366 583 l 2,115,116
 353 581 353 581 338 579 c 128,-1,117
 323 577 323 577 306 575 c 1,118,119
 284 565 284 565 264 557 c 128,-1,120
 244 549 244 549 227 542 c 1,121,-1
 151 467 l 1,122,123
 144 440 144 440 115 347 c 1,124,-1
 98 207 l 1,125,-1
 98 54 l 1,126,-1
 113 3 l 1,127,-1
 134 -30 l 2,128,129
 136 -33 136 -33 136.5 -33 c 128,-1,130
 137 -33 137 -33 135 -30 c 1,131,-1
 149 -33 l 2,132,133
 158 -38 158 -38 164 -42 c 128,-1,134
 170 -46 170 -46 174 -48 c 2,135,-1
 215 -48 l 1,136,-1
 242 -16 l 2,137,138
 261 10 261 10 280 34 c 1,139,-1
 291 56 l 2,140,141
 292 58 292 58 297 68.5 c 128,-1,142
 302 79 302 79 311 85.5 c 128,-1,143
 320 92 320 92 332 80 c 0,144,145
 349 62 349 62 351 64 c 1,146,-1
 348 58 l 2,147,148
 348 57 348 57 348 55 c 128,-1,149
 348 53 348 53 349 48 c 2,150,-1
 341 28 l 2,151,152
 338 23 338 23 332.5 13 c 128,-1,153
 327 3 327 3 319 -11 c 0,154,155
 291 -42 291 -42 286 -47 c 2,156,-1
 277 -58 l 2,157,158
 273 -65 273 -65 247 -94 c 1,159,-1
 215 -120 l 1,160,-1
 176 -120 l 1,161,-1
 158 -117 l 1,162,163
 148 -109 148 -109 145 -107 c 2,164,-1
 118 -95 l 1,165,-1
 100 -81 l 2,166,167
 99 -76 99 -76 97 -69 c 128,-1,168
 95 -62 95 -62 93 -55 c 2,169,-1
 83 -30 l 2,170,171
 82 -25 82 -25 77.5 -12 c 128,-1,172
 73 1 73 1 65 22 c 2,173,-1
 49 82 l 1,174,-1
 49 214 l 1,175,-1
 70 376 l 1,176,177
 84 422 84 422 93.5 455 c 128,-1,178
 103 488 103 488 108 508 c 1,179,-1
 203 606 l 1,180,181
 223 614 223 614 236.5 620 c 128,-1,182
 250 626 250 626 256 628 c 0,183,184
 261 630 261 630 265 631.5 c 128,-1,185
 269 633 269 633 270 634 c 2,186,-1
 301 648 l 2,187,188
 312 650 312 650 326.5 652 c 128,-1,189
 341 654 341 654 360 656 c 2,190,-1
 389 656 l 2,191,192
 396 655 396 655 403 653 c 128,-1,193
 410 651 410 651 417 649 c 2,194,-1
 432 641 l 1,195,-1
 449 628 l 2,196,197
 453 626 453 626 457.5 622.5 c 128,-1,198
 462 619 462 619 467 615 c 2,199,-1
 479 591 l 1,200,-1
 487 566 l 2,201,202
 488 563 488 563 491.5 553.5 c 128,-1,203
 495 544 495 544 501 527 c 1,0,-1
255 221 m 2,204,-1
 277 280 l 2,205,206
 294 331 294 331 298 343 c 0,207,208
 301 351 301 351 288.5 360 c 128,-1,209
 276 369 276 369 261 372.5 c 128,-1,210
 246 376 246 376 240 365 c 0,211,212
 239 360 239 360 237 348.5 c 128,-1,213
 235 337 235 337 233 320 c 0,214,215
 226 296 226 296 219 275 c 128,-1,216
 212 254 212 254 206 235 c 0,217,218
 202 215 202 215 201.5 206 c 128,-1,219
 201 197 201 197 201 181 c 0,220,221
 204 162 204 162 224 185 c 0,222,223
 234 196 234 196 242 205 c 128,-1,224
 250 214 250 214 255 221 c 2,204,-1
EndSplineSet
Substitution2: "'ss02' Style Set 2 in Latin lookup 26 subtable" at.ss02
Substitution2: "'aalt' Access All Alternates in Latin lookup 0 subtable" at.ss02
EndChar

StartChar: ampersand
Encoding: 38 38 534
Width: 550
GlyphClass: 1
Flags: W
LayerCount: 2
Fore
SplineSet
514 338 m 0,0,1
 514 300 514 300 470 300 c 256,2,3
 426 300 426 300 426 77 c 256,4,5
 426 -146 426 -146 391 -146 c 256,6,7
 356 -146 356 -146 356 -27 c 0,8,9
 356 90 356 90 328 -10 c 1,10,-1
 165 -10 l 1,11,-1
 82 38 l 1,12,-1
 36 122 l 1,13,-1
 36 246 l 1,14,-1
 122 331 l 1,15,16
 160 336 160 336 160.5 341 c 128,-1,17
 161 346 161 346 124 350 c 1,18,-1
 46 417 l 1,19,-1
 46 533 l 1,20,-1
 94 614 l 1,21,-1
 181 660 l 1,22,-1
 314 660 l 1,23,-1
 406 573 l 1,24,25
 406 494 406 494 371 494 c 256,26,27
 336 494 336 494 336 538 c 1,28,-1
 282 585 l 1,29,-1
 186 585 l 1,30,-1
 126 529 l 1,31,-1
 126 434 l 1,32,-1
 194 375 l 1,33,-1
 383 375 l 2,34,35
 514 375 514 375 514 338 c 0,0,1
356 239 m 2,36,37
 356 300 356 300 304 300 c 2,38,-1
 188 300 l 1,39,-1
 116 235 l 1,40,-1
 116 128 l 1,41,-1
 178 65 l 1,42,-1
 282 65 l 1,43,-1
 356 130 l 1,44,-1
 356 239 l 2,36,37
EndSplineSet
Substitution2: "'ss01' Style Set 1 in Latin lookup 25 subtable" ampersand.ss01
Substitution2: "'salt' Stylistic Alternatives in Latin lookup 24 subtable" ampersand.ss01
Substitution2: "'case' Case-Sensitive Forms in Latin lookup 23 subtable" ampersand.case
AlternateSubs2: "'aalt' Access All Alternates in Latin lookup 1 subtable" ampersand.case ampersand.ss01
EndChar

StartChar: paragraph
Encoding: 182 182 535
Width: 550
GlyphClass: 1
Flags: W
LayerCount: 2
Fore
SplineSet
505 325 m 256,0,1
 505 0 505 0 466 0 c 256,2,3
 427 0 427 0 427 134 c 256,4,5
 427 268 427 268 400 268 c 256,6,7
 373 268 373 268 373 134 c 256,8,9
 373 0 373 0 334 0 c 256,10,11
 295 0 295 0 295 134 c 256,12,13
 295 268 295 268 274 268 c 2,14,-1
 197 268 l 1,15,-1
 103 315 l 1,16,-1
 47 402 l 1,17,-1
 47 516 l 1,18,-1
 103 603 l 1,19,-1
 197 650 l 1,20,-1
 379 650 l 2,21,22
 505 650 505 650 505 325 c 256,0,1
427 459 m 256,23,24
 427 573 427 573 343 573 c 2,25,-1
 198 573 l 1,26,-1
 127 518 l 1,27,-1
 127 400 l 1,28,-1
 198 345 l 1,29,-1
 343 345 l 2,30,31
 427 345 427 345 427 459 c 256,23,24
EndSplineSet
EndChar

StartChar: section
Encoding: 167 167 536
Width: 550
GlyphClass: 1
Flags: W
LayerCount: 2
Fore
SplineSet
417 207 m 1,0,-1
 463 150 l 1,1,-1
 463 42 l 1,2,-1
 373 -36 l 1,3,-1
 219 -36 l 1,4,-1
 123 28 l 1,5,-1
 83 109 l 1,6,7
 86 135 86 135 123 135 c 0,8,9
 159 135 159 135 170 94 c 1,10,-1
 237 41 l 1,11,-1
 339 41 l 1,12,-1
 383 76 l 1,13,-1
 383 129 l 1,14,-1
 357 157 l 1,15,-1
 315 174 l 2,16,17
 293 180 293 180 262.5 189 c 128,-1,18
 232 198 232 198 191 210 c 1,19,-1
 90 282 l 1,20,-1
 90 379 l 1,21,-1
 143 435 l 1,22,23
 200 441 200 441 142 466 c 1,24,-1
 90 522 l 1,25,-1
 90 628 l 1,26,-1
 184 710 l 1,27,-1
 346 710 l 1,28,-1
 440 623 l 1,29,30
 442 549 442 549 407 549 c 256,31,32
 372 549 372 549 365 592 c 1,33,-1
 310 631 l 1,34,-1
 218 631 l 1,35,-1
 170 596 l 1,36,-1
 170 546 l 1,37,-1
 199 518 l 1,38,-1
 242 502 l 2,39,40
 265 495 265 495 291 487.5 c 128,-1,41
 317 480 317 480 345 472 c 1,42,-1
 416 439 l 1,43,-1
 463 378 l 1,44,-1
 463 290 l 1,45,-1
 415 236 l 1,46,47
 368 232 368 232 417 207 c 1,0,-1
170 326 m 1,48,-1
 201 296 l 1,49,-1
 245 277 l 2,50,51
 302 256 302 256 340 260 c 1,52,-1
 383 301 l 1,53,-1
 383 361 l 1,54,-1
 340 390 l 1,55,56
 312 400 312 400 295.5 406 c 128,-1,57
 279 412 279 412 273 414 c 0,58,59
 266 416 266 416 252.5 415.5 c 128,-1,60
 239 415 239 415 217 413 c 1,61,-1
 170 376 l 1,62,-1
 170 326 l 1,48,-1
EndSplineSet
EndChar

StartChar: copyright
Encoding: 169 169 537
Width: 550
GlyphClass: 1
Flags: W
LayerCount: 2
Fore
SplineSet
201 54 m 1,0,-1
 84 128 l 1,1,-1
 18 256 l 1,2,-1
 18 408 l 1,3,-1
 83 535 l 1,4,-1
 201 609 l 1,5,-1
 351 609 l 1,6,-1
 468 535 l 1,7,-1
 533 408 l 1,8,-1
 533 256 l 1,9,-1
 468 128 l 1,10,-1
 350 54 l 1,11,-1
 201 54 l 1,0,-1
331 126 m 1,12,-1
 415 181 l 1,13,-1
 461 275 l 1,14,-1
 461 389 l 1,15,-1
 415 482 l 1,16,-1
 331 537 l 1,17,-1
 220 537 l 1,18,-1
 136 482 l 1,19,-1
 90 389 l 1,20,-1
 90 275 l 1,21,-1
 136 181 l 1,22,-1
 221 126 l 1,23,-1
 331 126 l 1,12,-1
391 260 m 1,24,-1
 328 195 l 1,25,-1
 227 195 l 1,26,-1
 160 272 l 1,27,-1
 160 390 l 1,28,-1
 228 468 l 1,29,-1
 328 468 l 1,30,-1
 390 404 l 1,31,32
 392 351 392 351 360 351 c 0,33,34
 329 351 329 351 321 402 c 1,35,-1
 254 402 l 1,36,-1
 227 363 l 1,37,-1
 227 299 l 1,38,-1
 253 261 l 1,39,-1
 323 261 l 1,40,41
 329 313 329 313 360 313 c 256,42,43
 391 313 391 313 391 260 c 1,24,-1
EndSplineSet
EndChar

StartChar: registered
Encoding: 174 174 538
Width: 550
GlyphClass: 1
Flags: W
LayerCount: 2
Fore
SplineSet
201 105 m 1,0,-1
 84 179 l 1,1,-1
 18 307 l 1,2,-1
 18 459 l 1,3,-1
 83 586 l 1,4,-1
 201 660 l 1,5,-1
 351 660 l 1,6,-1
 468 586 l 1,7,-1
 533 459 l 1,8,-1
 533 307 l 1,9,-1
 468 179 l 1,10,-1
 350 105 l 1,11,-1
 201 105 l 1,0,-1
331 177 m 1,12,-1
 415 232 l 1,13,-1
 461 326 l 1,14,-1
 461 440 l 1,15,-1
 415 533 l 1,16,-1
 331 588 l 1,17,-1
 220 588 l 1,18,-1
 136 533 l 1,19,-1
 90 440 l 1,20,-1
 90 326 l 1,21,-1
 136 232 l 1,22,-1
 221 177 l 1,23,-1
 331 177 l 1,12,-1
187 388 m 256,24,25
 187 519 187 519 231 519 c 2,26,-1
 330 519 l 1,27,-1
 381 476 l 1,28,-1
 381 408 l 1,29,-1
 358 371 l 1,30,31
 329 366 329 366 356 362 c 1,32,-1
 377 333 l 1,33,-1
 377 283 l 2,34,35
 377 257 377 257 344 257 c 256,36,37
 311 257 311 257 311 283 c 2,38,-1
 311 323 l 1,39,-1
 290 337 l 1,40,-1
 259 337 l 2,41,42
 253 337 253 337 253 297 c 256,43,44
 253 257 253 257 220 257 c 256,45,46
 187 257 187 257 187 388 c 256,24,25
263 397 m 2,47,-1
 293 397 l 1,48,-1
 315 414 l 1,49,50
 316 422 316 422 316 433 c 128,-1,51
 316 444 316 444 316 457 c 1,52,-1
 263 457 l 2,53,54
 252 457 252 457 252 427 c 256,55,56
 252 397 252 397 263 397 c 2,47,-1
EndSplineSet
EndChar

StartChar: trademark
Encoding: 8482 8482 539
Width: 550
GlyphClass: 1
Flags: W
LayerCount: 2
Fore
SplineSet
406 613 m 0,0,1
 406 575 406 575 361 575 c 256,2,3
 316 575 316 575 316 488 c 0,4,5
 316 400 316 400 276 400 c 256,6,7
 236 400 236 400 236 488 c 0,8,9
 236 575 236 575 191 575 c 256,10,11
 146 575 146 575 146 613 c 0,12,13
 146 650 146 650 276 650 c 256,14,15
 406 650 406 650 406 613 c 0,0,1
416 400 m 256,16,17
 456 400 456 400 456 275 c 256,18,19
 456 150 456 150 417 150 c 256,20,21
 378 150 378 150 378 216 c 0,22,23
 377 279 377 279 347 216 c 0,24,25
 316 150 316 150 276 150 c 256,26,27
 236 150 236 150 206 215 c 0,28,29
 175 278 175 278 175 215 c 0,30,31
 173 150 173 150 135 150 c 0,32,33
 96 150 96 150 96 275 c 256,34,35
 96 400 96 400 136 400 c 256,36,37
 176 400 176 400 226 311 c 0,38,39
 258 255 258 255 276.5 255 c 128,-1,40
 295 255 295 255 326 311 c 0,41,42
 376 400 376 400 416 400 c 256,16,17
EndSplineSet
EndChar

StartChar: degree
Encoding: 176 176 540
Width: 550
GlyphClass: 1
Flags: W
LayerCount: 2
Fore
SplineSet
223 411 m 1,0,-1
 150 485 l 1,1,-1
 150 589 l 1,2,-1
 223 662 l 1,3,-1
 327 662 l 1,4,-1
 400 589 l 1,5,-1
 400 485 l 1,6,-1
 327 411 l 1,7,-1
 223 411 l 1,0,-1
300 475 m 1,8,-1
 335 511 l 1,9,-1
 335 562 l 1,10,-1
 300 598 l 1,11,-1
 250 598 l 1,12,-1
 215 562 l 1,13,-1
 215 511 l 1,14,-1
 250 475 l 1,15,-1
 300 475 l 1,8,-1
EndSplineSet
EndChar

StartChar: bar
Encoding: 124 124 541
Width: 550
GlyphClass: 1
Flags: W
LayerCount: 2
Fore
SplineSet
275 800 m 256,0,1
 310 800 310 800 310 320 c 256,2,3
 310 -160 310 -160 275 -160 c 256,4,5
 240 -160 240 -160 240 320 c 256,6,7
 240 800 240 800 275 800 c 256,0,1
EndSplineSet
EndChar

StartChar: brokenbar
Encoding: 166 166 542
Width: 550
GlyphClass: 1
Flags: W
LayerCount: 2
Fore
SplineSet
310 628 m 0,0,1
 310 455 310 455 275 455 c 256,2,3
 240 455 240 455 240 628 c 0,4,5
 240 800 240 800 275 800 c 256,6,7
 310 800 310 800 310 628 c 0,0,1
310 13 m 0,8,9
 310 -160 310 -160 275 -160 c 256,10,11
 240 -160 240 -160 240 13 c 0,12,13
 240 185 240 185 275 185 c 256,14,15
 310 185 310 185 310 13 c 0,8,9
EndSplineSet
EndChar

StartChar: dagger
Encoding: 8224 8224 543
Width: 550
GlyphClass: 1
Flags: W
LayerCount: 2
Fore
SplineSet
470 463 m 0,0,1
 470 425 470 425 393 425 c 0,2,3
 315 425 315 425 315 113 c 0,4,5
 315 -200 315 -200 275 -200 c 256,6,7
 235 -200 235 -200 235 113 c 0,8,9
 235 425 235 425 158 425 c 0,10,11
 80 425 80 425 80 463 c 0,12,13
 80 500 80 500 158 500 c 0,14,15
 235 500 235 500 235 600 c 256,16,17
 235 700 235 700 275 700 c 256,18,19
 315 700 315 700 315 600 c 256,20,21
 315 500 315 500 393 500 c 0,22,23
 470 500 470 500 470 463 c 0,0,1
EndSplineSet
EndChar

StartChar: daggerdbl
Encoding: 8225 8225 544
Width: 550
GlyphClass: 1
Flags: W
LayerCount: 2
Fore
SplineSet
393 425 m 0,0,1
 315 425 315 425 315 254 c 0,2,3
 315 82 315 82 393 82 c 0,4,5
 470 82 470 82 470 45 c 0,6,7
 470 7 470 7 393 7 c 0,8,9
 315 7 315 7 315 -96 c 0,10,11
 315 -200 315 -200 275 -200 c 256,12,13
 235 -200 235 -200 235 -96 c 0,14,15
 235 7 235 7 158 7 c 0,16,17
 80 7 80 7 80 45 c 0,18,19
 80 82 80 82 158 82 c 0,20,21
 235 82 235 82 235 254 c 0,22,23
 235 425 235 425 158 425 c 0,24,25
 80 425 80 425 80 463 c 0,26,27
 80 500 80 500 158 500 c 0,28,29
 235 500 235 500 235 600 c 256,30,31
 235 700 235 700 275 700 c 256,32,33
 315 700 315 700 315 600 c 256,34,35
 315 500 315 500 393 500 c 0,36,37
 470 500 470 500 470 463 c 0,38,39
 470 425 470 425 393 425 c 0,0,1
EndSplineSet
EndChar

StartChar: ampersand.case
Encoding: 65730 -1 545
Width: 550
GlyphClass: 1
Flags: W
LayerCount: 2
Fore
SplineSet
535 338 m 0,0,1
 535 300 535 300 471 300 c 256,2,3
 407 300 407 300 407 77 c 256,4,5
 407 -146 407 -146 372 -146 c 256,6,7
 337 -146 337 -146 337 -73 c 256,8,9
 337 0 337 0 191 0 c 256,10,11
 45 0 45 0 45 325 c 256,12,13
 45 650 45 650 170 650 c 0,14,15
 294 650 294 650 294 613 c 0,16,17
 294 575 294 575 210 575 c 0,18,19
 125 575 125 575 125 475 c 256,20,21
 125 375 125 375 330 375 c 256,22,23
 535 375 535 375 535 338 c 0,0,1
337 188 m 0,24,25
 337 300 337 300 231 300 c 256,26,27
 125 300 125 300 125 188 c 0,28,29
 125 75 125 75 231 75 c 256,30,31
 337 75 337 75 337 188 c 0,24,25
EndSplineSet
EndChar

